Atma-Light.ufo
<glyph name="exclam" format="1">
  <advance width="199"/>
  <unicode hex="0021"/>
  <outline>
    <contour>
      <point x="73" y="202" type="qcurve"/>
      <point x="66" y="330"/>
      <point x="60" y="543"/>
      <point x="60" y="669" type="qcurve" smooth="yes"/>
      <point x="60" y="694"/>
      <point x="60" y="720"/>
      <point x="61" y="728" type="qcurve"/>
      <point x="73" y="733"/>
      <point x="90" y="737"/>
      <point x="99" y="737" type="qcurve" smooth="yes"/>
      <point x="104" y="737"/>
      <point x="112" y="737"/>
      <point x="124" y="735" type="qcurve"/>
      <point x="114" y="621"/>
      <point x="109" y="361"/>
      <point x="114" y="201" type="qcurve"/>
      <point x="110" y="200"/>
      <point x="102" y="199"/>
      <point x="97" y="199" type="qcurve" smooth="yes"/>
      <point x="90" y="199"/>
      <point x="79" y="200"/>
    </contour>
    <contour>
      <point x="98" y="-1" type="qcurve" smooth="yes"/>
      <point x="94" y="-1"/>
      <point x="85" y="0"/>
      <point x="72" y="1" type="qcurve"/>
      <point x="71" y="18"/>
      <point x="71" y="49"/>
      <point x="72" y="64" type="qcurve"/>
      <point x="88" y="66"/>
      <point x="113" y="66"/>
      <point x="126" y="64" type="qcurve"/>
      <point x="127" y="48"/>
      <point x="129" y="6"/>
      <point x="129" y="2" type="qcurve"/>
      <point x="121" y="0"/>
      <point x="105" y="-1"/>
    </contour>
  </outline>
</glyph>
<glyph name="quotesingle" format="1">
  <advance width="119.685960588"/>
  <unicode hex="0027"/>
  <outline>
    <contour>
      <point x="61" y="738" type="qcurve" smooth="yes"/>
      <point x="66" y="738"/>
      <point x="77" y="736"/>
      <point x="79" y="736" type="qcurve"/>
      <point x="81" y="686"/>
      <point x="76" y="582"/>
      <point x="68" y="501" type="qcurve"/>
      <point x="62" y="499"/>
      <point x="42" y="498"/>
      <point x="31" y="499" type="qcurve"/>
      <point x="32" y="578"/>
      <point x="29" y="681"/>
      <point x="25" y="735" type="qcurve"/>
      <point x="32" y="736"/>
      <point x="52" y="738"/>
    </contour>
  </outline>
</glyph>
<glyph name="parenright" format="1">
  <advance width="336"/>
  <unicode hex="0029"/>
  <outline>
    <contour>
      <point x="10" y="-124" type="qcurve"/>
      <point x="129" y="-51"/>
      <point x="256" y="182"/>
      <point x="256" y="322" type="qcurve" smooth="yes"/>
      <point x="256" y="465"/>
      <point x="140" y="695"/>
      <point x="34" y="762" type="qcurve"/>
      <point x="50" y="779"/>
      <point x="68" y="794"/>
      <point x="76" y="798" type="qcurve"/>
      <point x="189" y="719"/>
      <point x="311" y="475"/>
      <point x="311" y="328" type="qcurve" smooth="yes"/>
      <point x="311" y="176"/>
      <point x="177" y="-76"/>
      <point x="52" y="-160" type="qcurve"/>
      <point x="44" y="-156"/>
      <point x="26" y="-141"/>
    </contour>
  </outline>
</glyph>
<glyph name="asterisk" format="1">
  <advance width="427"/>
  <unicode hex="002A"/>
  <outline>
    <contour>
      <point x="233" y="476" type="qcurve"/>
      <point x="233" y="435"/>
      <point x="236" y="362"/>
      <point x="239" y="317" type="qcurve"/>
      <point x="232" y="316"/>
      <point x="212" y="314"/>
      <point x="203" y="314" type="qcurve" smooth="yes"/>
      <point x="198" y="314"/>
      <point x="187" y="316"/>
      <point x="185" y="316" type="qcurve"/>
      <point x="184" y="349"/>
      <point x="187" y="420"/>
      <point x="192" y="477" type="qcurve"/>
      <point x="161" y="458"/>
      <point x="101" y="420"/>
      <point x="58" y="391" type="qcurve"/>
      <point x="57" y="392"/>
      <point x="40" y="416"/>
      <point x="37" y="423" type="qcurve" smooth="yes"/>
      <point x="35" y="427"/>
      <point x="31" y="436"/>
      <point x="30" y="438" type="qcurve"/>
      <point x="56" y="455"/>
      <point x="116" y="487"/>
      <point x="171" y="513" type="qcurve"/>
      <point x="145" y="528"/>
      <point x="91" y="557"/>
      <point x="32" y="586" type="qcurve"/>
      <point x="38" y="600"/>
      <point x="45" y="615"/>
      <point x="48" y="620" type="qcurve" smooth="yes"/>
      <point x="50" y="624"/>
      <point x="56" y="632"/>
      <point x="58" y="634" type="qcurve"/>
      <point x="91" y="616"/>
      <point x="153" y="578"/>
      <point x="194" y="549" type="qcurve"/>
      <point x="194" y="589"/>
      <point x="191" y="661"/>
      <point x="188" y="706" type="qcurve"/>
      <point x="195" y="707"/>
      <point x="215" y="709"/>
      <point x="224" y="709" type="qcurve" smooth="yes"/>
      <point x="229" y="709"/>
      <point x="240" y="707"/>
      <point x="242" y="707" type="qcurve"/>
      <point x="243" y="675"/>
      <point x="241" y="605"/>
      <point x="236" y="546" type="qcurve"/>
      <point x="283" y="574"/>
      <point x="341" y="612"/>
      <point x="369" y="632" type="qcurve"/>
      <point x="370" y="631"/>
      <point x="387" y="607"/>
      <point x="390" y="600" type="qcurve" smooth="yes"/>
      <point x="392" y="596"/>
      <point x="396" y="587"/>
      <point x="397" y="585" type="qcurve"/>
      <point x="374" y="570"/>
      <point x="320" y="541"/>
      <point x="254" y="510" type="qcurve"/>
      <point x="290" y="489"/>
      <point x="356" y="455"/>
      <point x="395" y="437" type="qcurve"/>
      <point x="389" y="423"/>
      <point x="382" y="408"/>
      <point x="379" y="403" type="qcurve" smooth="yes"/>
      <point x="377" y="399"/>
      <point x="371" y="391"/>
      <point x="369" y="389" type="qcurve"/>
      <point x="340" y="404"/>
      <point x="282" y="441"/>
    </contour>
  </outline>
</glyph>
<glyph name="plus" format="1">
  <advance width="341"/>
  <unicode hex="002B"/>
  <outline>
    <contour>
      <point x="192" y="316" type="qcurve"/>
      <point x="191" y="278"/>
      <point x="187" y="220"/>
      <point x="184" y="194" type="qcurve"/>
      <point x="174" y="192"/>
      <point x="153" y="192"/>
      <point x="142" y="195" type="qcurve"/>
      <point x="146" y="228"/>
      <point x="150" y="287"/>
      <point x="150" y="316" type="qcurve"/>
      <point x="113" y="317"/>
      <point x="53" y="321"/>
      <point x="27" y="324" type="qcurve"/>
      <point x="27" y="335"/>
      <point x="29" y="354"/>
      <point x="32" y="366" type="qcurve"/>
      <point x="64" y="362"/>
      <point x="122" y="358"/>
      <point x="150" y="358" type="qcurve"/>
      <point x="150" y="384"/>
      <point x="147" y="443"/>
      <point x="144" y="477" type="qcurve"/>
      <point x="154" y="479"/>
      <point x="174" y="479"/>
      <point x="184" y="477" type="qcurve"/>
      <point x="187" y="452"/>
      <point x="191" y="395"/>
      <point x="192" y="358" type="qcurve"/>
      <point x="218" y="358"/>
      <point x="278" y="361"/>
      <point x="314" y="364" type="qcurve"/>
      <point x="314" y="353"/>
      <point x="312" y="333"/>
      <point x="310" y="324" type="qcurve"/>
      <point x="286" y="321"/>
      <point x="229" y="317"/>
    </contour>
  </outline>
</glyph>
<glyph name="comma" format="1">
  <advance width="114"/>
  <unicode hex="002C"/>
  <outline>
    <contour>
      <point x="37" y="70" type="qcurve"/>
      <point x="49" y="71"/>
      <point x="76" y="70"/>
      <point x="92" y="68" type="qcurve"/>
      <point x="90" y="-2"/>
      <point x="63" y="-136"/>
      <point x="33" y="-220" type="qcurve"/>
      <point x="23" y="-218"/>
      <point x="5" y="-214"/>
      <point x="-5" y="-210" type="qcurve"/>
      <point x="14" y="-133"/>
      <point x="34" y="-3"/>
    </contour>
  </outline>
</glyph>
<glyph name="hyphen" format="1">
  <advance width="264"/>
  <unicode hex="002D"/>
  <outline>
    <contour>
      <point x="231" y="260" type="qcurve"/>
      <point x="168" y="254"/>
      <point x="65" y="257"/>
      <point x="30" y="266" type="qcurve"/>
      <point x="30" y="289"/>
      <point x="32" y="309"/>
      <point x="34" y="319" type="qcurve"/>
      <point x="59" y="314"/>
      <point x="127" y="309"/>
      <point x="159" y="309" type="qcurve" smooth="yes"/>
      <point x="183" y="309"/>
      <point x="220" y="311"/>
      <point x="234" y="313" type="qcurve"/>
      <point x="234" y="294"/>
      <point x="233" y="271"/>
    </contour>
  </outline>
</glyph>
<glyph name="period" format="1">
  <advance width="149"/>
  <unicode hex="002E"/>
  <outline>
    <contour>
      <point x="35" y="66" type="qcurve"/>
      <point x="57" y="71"/>
      <point x="95" y="72"/>
      <point x="114" y="69" type="qcurve"/>
      <point x="113" y="43"/>
      <point x="110" y="15"/>
      <point x="108" y="1" type="qcurve"/>
      <point x="88" y="-1"/>
      <point x="55" y="-1"/>
      <point x="38" y="1" type="qcurve"/>
      <point x="38" y="6"/>
      <point x="37" y="18"/>
      <point x="37" y="28" type="qcurve" smooth="yes"/>
      <point x="36" y="43"/>
      <point x="35" y="58"/>
    </contour>
  </outline>
</glyph>
<glyph name="slash" format="1">
  <advance width="465"/>
  <unicode hex="002F"/>
  <outline>
    <contour>
      <point x="409" y="744" type="qcurve"/>
      <point x="418" y="740"/>
      <point x="435" y="730"/>
      <point x="450" y="720" type="qcurve"/>
      <point x="365" y="516"/>
      <point x="147" y="52"/>
      <point x="19" y="-199" type="qcurve"/>
      <point x="4" y="-194"/>
      <point x="-19" y="-183"/>
      <point x="-30" y="-174" type="qcurve"/>
      <point x="54" y="-30"/>
      <point x="261" y="403"/>
    </contour>
  </outline>
</glyph>
<glyph name="zero" format="1">
  <advance width="490"/>
  <unicode hex="0030"/>
  <outline>
    <contour>
      <point x="40" y="313" type="qcurve"/>
      <point x="40" y="484"/>
      <point x="162" y="673"/>
      <point x="272" y="673" type="qcurve"/>
      <point x="355" y="673"/>
      <point x="450" y="518"/>
      <point x="450" y="387" type="qcurve"/>
      <point x="450" y="189"/>
      <point x="342" y="-20"/>
      <point x="241" y="-20" type="qcurve" smooth="yes"/>
      <point x="152" y="-20"/>
      <point x="40" y="167"/>
    </contour>
    <contour>
      <point x="395" y="347" type="qcurve" smooth="yes"/>
      <point x="395" y="492"/>
      <point x="328" y="629"/>
      <point x="258" y="629" type="qcurve" smooth="yes"/>
      <point x="185" y="629"/>
      <point x="95" y="461"/>
      <point x="95" y="321" type="qcurve" smooth="yes"/>
      <point x="95" y="187"/>
      <point x="178" y="24"/>
      <point x="247" y="24" type="qcurve" smooth="yes"/>
      <point x="315" y="24"/>
      <point x="395" y="198"/>
    </contour>
  </outline>
</glyph>
<glyph name="three" format="1">
  <advance width="377"/>
  <unicode hex="0033"/>
  <outline>
    <contour>
      <point x="377" y="154" type="qcurve" smooth="yes"/>
      <point x="377" y="58"/>
      <point x="284" y="-57"/>
      <point x="209" y="-57" type="qcurve" smooth="yes"/>
      <point x="134" y="-57"/>
      <point x="37" y="66"/>
      <point x="32" y="174" type="qcurve"/>
      <point x="43" y="178"/>
      <point x="69" y="183"/>
      <point x="85" y="185" type="qcurve"/>
      <point x="85" y="91"/>
      <point x="151" y="-12"/>
      <point x="208" y="-12" type="qcurve" smooth="yes"/>
      <point x="262" y="-12"/>
      <point x="322" y="67"/>
      <point x="322" y="138" type="qcurve" smooth="yes"/>
      <point x="322" y="240"/>
      <point x="207" y="343"/>
      <point x="102" y="334" type="qcurve"/>
      <point x="99" y="352"/>
      <point x="98" y="365"/>
      <point x="98" y="370" type="qcurve"/>
      <point x="167" y="414"/>
      <point x="267" y="511"/>
      <point x="307" y="575" type="qcurve"/>
      <point x="200" y="566"/>
      <point x="69" y="545"/>
      <point x="8" y="528" type="qcurve"/>
      <point x="5" y="542"/>
      <point x="5" y="568"/>
      <point x="7" y="582" type="qcurve"/>
      <point x="105" y="600"/>
      <point x="275" y="619"/>
      <point x="356" y="620" type="qcurve"/>
      <point x="357" y="611"/>
      <point x="358" y="591"/>
      <point x="357" y="579" type="qcurve"/>
      <point x="324" y="518"/>
      <point x="241" y="424"/>
      <point x="178" y="375" type="qcurve"/>
      <point x="275" y="358"/>
      <point x="377" y="245"/>
    </contour>
  </outline>
</glyph>
<glyph name="seven" format="1">
  <advance width="350"/>
  <unicode hex="0037"/>
  <outline>
    <contour>
      <point x="365" y="618" type="qcurve"/>
      <point x="245" y="439"/>
      <point x="119" y="180"/>
      <point x="57" y="-7" type="qcurve"/>
      <point x="41" y="-7"/>
      <point x="16" y="-3"/>
      <point x="2" y="2" type="qcurve"/>
      <point x="68" y="180"/>
      <point x="214" y="472"/>
      <point x="305" y="608" type="qcurve"/>
      <point x="200" y="605"/>
      <point x="65" y="613"/>
      <point x="-15" y="625" type="qcurve"/>
      <point x="-15" y="636"/>
      <point x="-12" y="661"/>
      <point x="-8" y="675" type="qcurve"/>
      <point x="104" y="657"/>
      <point x="249" y="648"/>
      <point x="344" y="653" type="qcurve"/>
      <point x="352" y="643"/>
      <point x="362" y="626"/>
    </contour>
  </outline>
</glyph>
<glyph name="eight" format="1">
  <advance width="423"/>
  <unicode hex="0038"/>
  <outline>
    <contour>
      <point x="393" y="225" type="qcurve" smooth="yes"/>
      <point x="393" y="124"/>
      <point x="283" y="-6"/>
      <point x="199" y="-6" type="qcurve" smooth="yes"/>
      <point x="129" y="-6"/>
      <point x="35" y="95"/>
      <point x="35" y="170" type="qcurve" smooth="yes"/>
      <point x="35" y="230"/>
      <point x="86" y="333"/>
      <point x="131" y="362" type="qcurve"/>
      <point x="92" y="384"/>
      <point x="45" y="469"/>
      <point x="45" y="520" type="qcurve" smooth="yes"/>
      <point x="45" y="614"/>
      <point x="140" y="723"/>
      <point x="221" y="723" type="qcurve" smooth="yes"/>
      <point x="287" y="723"/>
      <point x="378" y="630"/>
      <point x="378" y="560" type="qcurve" smooth="yes"/>
      <point x="378" y="495"/>
      <point x="337" y="402"/>
      <point x="297" y="376" type="qcurve"/>
      <point x="340" y="354"/>
      <point x="393" y="272"/>
    </contour>
    <contour>
      <point x="213" y="679" type="qcurve" smooth="yes"/>
      <point x="164" y="679"/>
      <point x="100" y="592"/>
      <point x="100" y="526" type="qcurve" smooth="yes"/>
      <point x="100" y="465"/>
      <point x="160" y="390"/>
      <point x="212" y="390" type="qcurve"/>
      <point x="215" y="390"/>
      <point x="224" y="391"/>
      <point x="226" y="391" type="qcurve"/>
      <point x="270" y="397"/>
      <point x="323" y="476"/>
      <point x="323" y="536" type="qcurve" smooth="yes"/>
      <point x="323" y="604"/>
      <point x="265" y="679"/>
    </contour>
    <contour>
      <point x="205" y="38" type="qcurve" smooth="yes"/>
      <point x="262" y="38"/>
      <point x="338" y="139"/>
      <point x="338" y="216" type="qcurve" smooth="yes"/>
      <point x="338" y="273"/>
      <point x="273" y="347"/>
      <point x="219" y="347" type="qcurve" smooth="yes"/>
      <point x="166" y="347"/>
      <point x="90" y="252"/>
      <point x="90" y="181" type="qcurve" smooth="yes"/>
      <point x="90" y="114"/>
      <point x="152" y="38"/>
    </contour>
  </outline>
</glyph>
<glyph name="nine" format="1">
  <advance width="465"/>
  <unicode hex="0039"/>
  <outline>
    <contour>
      <point x="103" y="480" type="qcurve" smooth="yes"/>
      <point x="103" y="400"/>
      <point x="168" y="311"/>
      <point x="225" y="311" type="qcurve" smooth="yes"/>
      <point x="275" y="311"/>
      <point x="353" y="398"/>
      <point x="369" y="471" type="qcurve"/>
      <point x="357" y="565"/>
      <point x="285" y="667"/>
      <point x="231" y="667" type="qcurve" smooth="yes"/>
      <point x="176" y="667"/>
      <point x="103" y="561"/>
    </contour>
    <contour>
      <point x="430" y="382" type="qcurve" smooth="yes"/>
      <point x="430" y="207"/>
      <point x="289" y="-31"/>
      <point x="183" y="-31" type="qcurve" smooth="yes"/>
      <point x="139" y="-31"/>
      <point x="67" y="11"/>
      <point x="35" y="55" type="qcurve"/>
      <point x="43" y="69"/>
      <point x="59" y="90"/>
      <point x="69" y="101" type="qcurve"/>
      <point x="91" y="56"/>
      <point x="151" y="13"/>
      <point x="191" y="13" type="qcurve"/>
      <point x="267" y="13"/>
      <point x="375" y="220"/>
      <point x="375" y="367" type="qcurve"/>
      <point x="346" y="319"/>
      <point x="264" y="267"/>
      <point x="215" y="267" type="qcurve" smooth="yes"/>
      <point x="144" y="267"/>
      <point x="48" y="382"/>
      <point x="48" y="466" type="qcurve" smooth="yes"/>
      <point x="48" y="573"/>
      <point x="153" y="711"/>
      <point x="233" y="711" type="qcurve" smooth="yes"/>
      <point x="325" y="711"/>
      <point x="430" y="536"/>
    </contour>
  </outline>
</glyph>
<glyph name="colon" format="1">
  <advance width="149"/>
  <unicode hex="003A"/>
  <outline>
    <contour>
      <point x="83" y="546" type="qcurve" smooth="yes"/>
      <point x="95" y="546"/>
      <point x="108" y="545"/>
      <point x="114" y="544" type="qcurve"/>
      <point x="113" y="518"/>
      <point x="110" y="490"/>
      <point x="108" y="476" type="qcurve"/>
      <point x="88" y="474"/>
      <point x="55" y="474"/>
      <point x="38" y="476" type="qcurve"/>
      <point x="38" y="481"/>
      <point x="37" y="493"/>
      <point x="37" y="503" type="qcurve" smooth="yes"/>
      <point x="36" y="518"/>
      <point x="35" y="533"/>
      <point x="35" y="541" type="qcurve"/>
      <point x="46" y="543"/>
      <point x="70" y="546"/>
    </contour>
    <contour>
      <point x="35" y="66" type="qcurve"/>
      <point x="57" y="71"/>
      <point x="95" y="72"/>
      <point x="114" y="69" type="qcurve"/>
      <point x="113" y="43"/>
      <point x="110" y="15"/>
      <point x="108" y="1" type="qcurve"/>
      <point x="88" y="-1"/>
      <point x="55" y="-1"/>
      <point x="38" y="1" type="qcurve"/>
      <point x="38" y="6"/>
      <point x="37" y="18"/>
      <point x="37" y="28" type="qcurve" smooth="yes"/>
      <point x="36" y="43"/>
      <point x="35" y="58"/>
    </contour>
  </outline>
</glyph>
<glyph name="equal" format="1">
  <advance width="341"/>
  <unicode hex="003D"/>
  <outline>
    <contour>
      <point x="32" y="359" type="qcurve"/>
      <point x="32" y="370"/>
      <point x="34" y="389"/>
      <point x="37" y="401" type="qcurve"/>
      <point x="105" y="393"/>
      <point x="233" y="392"/>
      <point x="319" y="399" type="qcurve"/>
      <point x="319" y="388"/>
      <point x="317" y="368"/>
      <point x="315" y="359" type="qcurve"/>
      <point x="247" y="351"/>
      <point x="103" y="351"/>
    </contour>
    <contour>
      <point x="22" y="239" type="qcurve"/>
      <point x="22" y="250"/>
      <point x="24" y="269"/>
      <point x="27" y="281" type="qcurve"/>
      <point x="95" y="273"/>
      <point x="223" y="272"/>
      <point x="309" y="279" type="qcurve"/>
      <point x="309" y="268"/>
      <point x="307" y="248"/>
      <point x="305" y="239" type="qcurve"/>
      <point x="237" y="231"/>
      <point x="93" y="231"/>
    </contour>
  </outline>
</glyph>
<glyph name="greater" format="1">
  <advance width="340"/>
  <unicode hex="003E"/>
  <outline>
    <contour>
      <point x="43" y="181" type="qcurve"/>
      <point x="41" y="186"/>
      <point x="32" y="210"/>
      <point x="30" y="219" type="qcurve"/>
      <point x="99" y="249"/>
      <point x="210" y="308"/>
      <point x="261" y="342" type="qcurve"/>
      <point x="223" y="370"/>
      <point x="116" y="426"/>
      <point x="33" y="462" type="qcurve"/>
      <point x="34" y="471"/>
      <point x="40" y="489"/>
      <point x="46" y="499" type="qcurve"/>
      <point x="131" y="466"/>
      <point x="258" y="398"/>
      <point x="310" y="358" type="qcurve"/>
      <point x="307" y="323" type="line"/>
      <point x="251" y="283"/>
      <point x="130" y="218"/>
    </contour>
  </outline>
</glyph>
<glyph name="question" format="1">
  <advance width="353"/>
  <unicode hex="003F"/>
  <outline>
    <contour>
      <point x="177" y="361" type="qcurve"/>
      <point x="177" y="200" type="line"/>
      <point x="168" y="199"/>
      <point x="149" y="199"/>
      <point x="140" y="200" type="qcurve"/>
      <point x="140" y="202"/>
      <point x="128" y="343"/>
      <point x="127" y="388" type="qcurve"/>
      <point x="196" y="405"/>
      <point x="268" y="498"/>
      <point x="268" y="571" type="qcurve" smooth="yes"/>
      <point x="268" y="638"/>
      <point x="215" y="719"/>
      <point x="171" y="719" type="qcurve" smooth="yes"/>
      <point x="120" y="719"/>
      <point x="65" y="624"/>
      <point x="65" y="538" type="qcurve"/>
      <point x="53" y="538"/>
      <point x="28" y="542"/>
      <point x="15" y="545" type="qcurve"/>
      <point x="22" y="655"/>
      <point x="102" y="763"/>
      <point x="177" y="763" type="qcurve" smooth="yes"/>
      <point x="243" y="763"/>
      <point x="323" y="660"/>
      <point x="323" y="575" type="qcurve" smooth="yes"/>
      <point x="323" y="499"/>
      <point x="246" y="386"/>
    </contour>
    <contour>
      <point x="191" y="64" type="qcurve"/>
      <point x="192" y="48"/>
      <point x="194" y="6"/>
      <point x="194" y="2" type="qcurve"/>
      <point x="186" y="0"/>
      <point x="170" y="-1"/>
      <point x="163" y="-1" type="qcurve" smooth="yes"/>
      <point x="159" y="-1"/>
      <point x="150" y="0"/>
      <point x="137" y="1" type="qcurve"/>
      <point x="136" y="18"/>
      <point x="136" y="49"/>
      <point x="137" y="64" type="qcurve"/>
      <point x="153" y="66"/>
      <point x="178" y="66"/>
    </contour>
  </outline>
</glyph>
<glyph name="B" format="1">
  <advance width="562"/>
  <unicode hex="0042"/>
  <outline>
    <contour>
      <point x="519" y="258" type="qcurve" smooth="yes"/>
      <point x="519" y="143"/>
      <point x="339" y="-20"/>
      <point x="209" y="-20" type="qcurve" smooth="yes"/>
      <point x="174" y="-20"/>
      <point x="105" y="-2"/>
      <point x="84" y="12" type="qcurve"/>
      <point x="77" y="208"/>
      <point x="72" y="421"/>
      <point x="72" y="538" type="qcurve" smooth="yes"/>
      <point x="72" y="550"/>
      <point x="72" y="577"/>
      <point x="72" y="606" type="qcurve" smooth="yes"/>
      <point x="71" y="643"/>
      <point x="71" y="685"/>
      <point x="71" y="705" type="qcurve"/>
      <point x="109" y="722"/>
      <point x="195" y="740"/>
      <point x="240" y="740" type="qcurve"/>
      <point x="348" y="740"/>
      <point x="469" y="654"/>
      <point x="469" y="577" type="qcurve" smooth="yes"/>
      <point x="469" y="524"/>
      <point x="408" y="444"/>
      <point x="348" y="417" type="qcurve"/>
      <point x="432" y="407"/>
      <point x="519" y="326"/>
    </contour>
    <contour>
      <point x="409" y="572" type="qcurve" smooth="yes"/>
      <point x="409" y="631"/>
      <point x="325" y="696"/>
      <point x="247" y="696" type="qcurve" smooth="yes"/>
      <point x="218" y="696"/>
      <point x="161" y="688"/>
      <point x="135" y="680" type="qcurve"/>
      <point x="130" y="615"/>
      <point x="126" y="480"/>
      <point x="127" y="403" type="qcurve"/>
      <point x="274" y="415"/>
      <point x="409" y="495"/>
    </contour>
    <contour>
      <point x="135" y="42" type="qcurve"/>
      <point x="154" y="34"/>
      <point x="196" y="25"/>
      <point x="218" y="25" type="qcurve" smooth="yes"/>
      <point x="317" y="25"/>
      <point x="459" y="155"/>
      <point x="459" y="243" type="qcurve" smooth="yes"/>
      <point x="459" y="314"/>
      <point x="377" y="382"/>
      <point x="294" y="382" type="qcurve" smooth="yes"/>
      <point x="256" y="382"/>
      <point x="161" y="365"/>
      <point x="127" y="353" type="qcurve"/>
      <point x="128" y="336"/>
      <point x="128" y="299"/>
      <point x="128" y="265" type="qcurve" smooth="yes"/>
      <point x="128" y="194"/>
      <point x="131" y="92"/>
    </contour>
  </outline>
</glyph>
<glyph name="C" format="1">
  <advance width="535"/>
  <unicode hex="0043"/>
  <outline>
    <contour>
      <point x="422" y="220" type="qcurve"/>
      <point x="437" y="220"/>
      <point x="458" y="216"/>
      <point x="472" y="210" type="qcurve"/>
      <point x="466" y="90"/>
      <point x="363" y="-35"/>
      <point x="270" y="-35" type="qcurve" smooth="yes"/>
      <point x="164" y="-35"/>
      <point x="48" y="132"/>
      <point x="48" y="285" type="qcurve" smooth="yes"/>
      <point x="48" y="468"/>
      <point x="193" y="693"/>
      <point x="312" y="693" type="qcurve" smooth="yes"/>
      <point x="397" y="693"/>
      <point x="475" y="581"/>
      <point x="470" y="464" type="qcurve"/>
      <point x="461" y="457"/>
      <point x="428" y="449"/>
      <point x="411" y="450" type="qcurve"/>
      <point x="419" y="555"/>
      <point x="368" y="646"/>
      <point x="302" y="646" type="qcurve" smooth="yes"/>
      <point x="255" y="646"/>
      <point x="172" y="575"/>
      <point x="145" y="511" type="qcurve" smooth="yes"/>
      <point x="127" y="467"/>
      <point x="108" y="359"/>
      <point x="108" y="296" type="qcurve" smooth="yes"/>
      <point x="108" y="159"/>
      <point x="193" y="12"/>
      <point x="273" y="12" type="qcurve" smooth="yes"/>
      <point x="345" y="12"/>
      <point x="424" y="124"/>
    </contour>
  </outline>
</glyph>
<glyph name="E" format="1">
  <advance width="505"/>
  <unicode hex="0045"/>
  <outline>
    <contour>
      <point x="463" y="-14" type="qcurve"/>
      <point x="377" y="-26"/>
      <point x="226" y="-38"/>
      <point x="126" y="-41" type="qcurve"/>
      <point x="97" y="156"/>
      <point x="60" y="549"/>
      <point x="58" y="693" type="qcurve"/>
      <point x="192" y="716"/>
      <point x="350" y="733"/>
      <point x="440" y="735" type="qcurve"/>
      <point x="441" y="722"/>
      <point x="439" y="699"/>
      <point x="437" y="688" type="qcurve"/>
      <point x="355" y="687"/>
      <point x="200" y="672"/>
      <point x="118" y="657" type="qcurve"/>
      <point x="117" y="584"/>
      <point x="122" y="449"/>
      <point x="128" y="376" type="qcurve"/>
      <point x="262" y="397"/>
      <point x="347" y="408"/>
      <point x="390" y="412" type="qcurve"/>
      <point x="393" y="400"/>
      <point x="395" y="378"/>
      <point x="394" y="367" type="qcurve"/>
      <point x="318" y="361"/>
      <point x="208" y="347"/>
      <point x="132" y="333" type="qcurve"/>
      <point x="140" y="249"/>
      <point x="161" y="82"/>
      <point x="173" y="4" type="qcurve"/>
      <point x="268" y="7"/>
      <point x="396" y="22"/>
      <point x="461" y="36" type="qcurve"/>
      <point x="464" y="25"/>
      <point x="465" y="-4"/>
    </contour>
  </outline>
</glyph>
<glyph name="G" format="1">
  <advance width="556"/>
  <unicode hex="0047"/>
  <outline>
    <contour>
      <point x="467" y="348" type="qcurve"/>
      <point x="465" y="251"/>
      <point x="491" y="72"/>
      <point x="520" y="-23" type="qcurve"/>
      <point x="513" y="-25"/>
      <point x="489" y="-28"/>
      <point x="475" y="-29" type="qcurve"/>
      <point x="461" y="6"/>
      <point x="438" y="81"/>
      <point x="429" y="122" type="qcurve"/>
      <point x="395" y="49"/>
      <point x="303" y="-21"/>
      <point x="240" y="-21" type="qcurve" smooth="yes"/>
      <point x="152" y="-21"/>
      <point x="48" y="154"/>
      <point x="48" y="306" type="qcurve" smooth="yes"/>
      <point x="48" y="494"/>
      <point x="185" y="724"/>
      <point x="298" y="724" type="qcurve" smooth="yes"/>
      <point x="376" y="724"/>
      <point x="464" y="596"/>
      <point x="462" y="488" type="qcurve"/>
      <point x="450" y="484"/>
      <point x="421" y="480"/>
      <point x="403" y="478" type="qcurve"/>
      <point x="402" y="576"/>
      <point x="341" y="677"/>
      <point x="283" y="677" type="qcurve" smooth="yes"/>
      <point x="207" y="677"/>
      <point x="108" y="477"/>
      <point x="108" y="323" type="qcurve" smooth="yes"/>
      <point x="108" y="183"/>
      <point x="183" y="27"/>
      <point x="247" y="27" type="qcurve" smooth="yes"/>
      <point x="305" y="27"/>
      <point x="389" y="119"/>
      <point x="413" y="208" type="qcurve"/>
      <point x="409" y="236"/>
      <point x="403" y="301"/>
      <point x="400" y="341" type="qcurve"/>
      <point x="416" y="344"/>
      <point x="452" y="348"/>
    </contour>
  </outline>
</glyph>
<glyph name="M" format="1">
  <advance width="724"/>
  <unicode hex="004D"/>
  <outline>
    <contour>
      <point x="633" y="-49" type="qcurve"/>
      <point x="620" y="-54"/>
      <point x="591" y="-58"/>
      <point x="576" y="-58" type="qcurve"/>
      <point x="586" y="111"/>
      <point x="592" y="432"/>
      <point x="589" y="662" type="qcurve"/>
      <point x="525" y="557"/>
      <point x="424" y="323"/>
      <point x="378" y="175" type="qcurve"/>
      <point x="369" y="171"/>
      <point x="348" y="168"/>
      <point x="338" y="169" type="qcurve"/>
      <point x="296" y="313"/>
      <point x="194" y="544"/>
      <point x="125" y="654" type="qcurve"/>
      <point x="124" y="637"/>
      <point x="122" y="569"/>
      <point x="122" y="517" type="qcurve" smooth="yes"/>
      <point x="122" y="404"/>
      <point x="146" y="145"/>
      <point x="170" y="4" type="qcurve"/>
      <point x="157" y="-1"/>
      <point x="129" y="-5"/>
      <point x="116" y="-4" type="qcurve"/>
      <point x="89" y="160"/>
      <point x="66" y="555"/>
      <point x="74" y="732" type="qcurve"/>
      <point x="90" y="740"/>
      <point x="118" y="751"/>
      <point x="131" y="754" type="qcurve"/>
      <point x="202" y="652"/>
      <point x="319" y="398"/>
      <point x="358" y="263" type="qcurve"/>
      <point x="394" y="382"/>
      <point x="502" y="622"/>
      <point x="579" y="754" type="qcurve"/>
      <point x="595" y="751"/>
      <point x="624" y="742"/>
      <point x="637" y="736" type="qcurve"/>
      <point x="643" y="603"/>
      <point x="642" y="217"/>
    </contour>
  </outline>
</glyph>
<glyph name="N" format="1">
  <advance width="616"/>
  <unicode hex="004E"/>
  <outline>
    <contour>
      <point x="131" y="360" type="qcurve" smooth="yes"/>
      <point x="132" y="299"/>
      <point x="140" y="147"/>
      <point x="153" y="-34" type="qcurve"/>
      <point x="142" y="-36"/>
      <point x="119" y="-39"/>
      <point x="106" y="-40" type="qcurve"/>
      <point x="85" y="202"/>
      <point x="69" y="514"/>
      <point x="69" y="682" type="qcurve"/>
      <point x="96" y="694"/>
      <point x="119" y="701"/>
      <point x="136" y="704" type="qcurve"/>
      <point x="249" y="560"/>
      <point x="411" y="283"/>
      <point x="480" y="120" type="qcurve"/>
      <point x="482" y="157"/>
      <point x="484" y="252"/>
      <point x="484" y="353" type="qcurve" smooth="yes"/>
      <point x="484" y="496"/>
      <point x="476" y="689"/>
      <point x="467" y="745" type="qcurve"/>
      <point x="483" y="750"/>
      <point x="513" y="756"/>
      <point x="530" y="757" type="qcurve"/>
      <point x="534" y="693"/>
      <point x="537" y="595"/>
      <point x="537" y="549" type="qcurve" smooth="yes"/>
      <point x="537" y="383"/>
      <point x="527" y="155"/>
      <point x="516" y="23" type="qcurve"/>
      <point x="508" y="21"/>
      <point x="488" y="19"/>
      <point x="471" y="18" type="qcurve"/>
      <point x="395" y="193"/>
      <point x="220" y="497"/>
      <point x="128" y="612" type="qcurve"/>
      <point x="127" y="553"/>
      <point x="131" y="369"/>
    </contour>
  </outline>
</glyph>
<glyph name="O" format="1">
  <advance width="591"/>
  <unicode hex="004F"/>
  <outline>
    <contour>
      <point x="319" y="733" type="qcurve" smooth="yes"/>
      <point x="428" y="733"/>
      <point x="541" y="557"/>
      <point x="541" y="388" type="qcurve" smooth="yes"/>
      <point x="541" y="215"/>
      <point x="397" y="-20"/>
      <point x="274" y="-20" type="qcurve" smooth="yes"/>
      <point x="174" y="-20"/>
      <point x="48" y="183"/>
      <point x="48" y="342" type="qcurve" smooth="yes"/>
      <point x="48" y="512"/>
      <point x="200" y="733"/>
    </contour>
    <contour>
      <point x="276" y="27" type="qcurve" smooth="yes"/>
      <point x="370" y="27"/>
      <point x="481" y="224"/>
      <point x="481" y="377" type="qcurve" smooth="yes"/>
      <point x="481" y="534"/>
      <point x="399" y="685"/>
      <point x="312" y="685" type="qcurve" smooth="yes"/>
      <point x="224" y="685"/>
      <point x="109" y="498"/>
      <point x="109" y="351" type="qcurve" smooth="yes"/>
      <point x="109" y="211"/>
      <point x="199" y="27"/>
    </contour>
  </outline>
</glyph>
<glyph name="P" format="1">
  <advance width="536"/>
  <unicode hex="0050"/>
  <outline>
    <contour>
      <point x="123" y="237" type="qcurve"/>
      <point x="124" y="170"/>
      <point x="133" y="29"/>
      <point x="142" y="-68" type="qcurve"/>
      <point x="134" y="-70"/>
      <point x="99" y="-69"/>
      <point x="92" y="-67" type="qcurve"/>
      <point x="79" y="94"/>
      <point x="69" y="328"/>
      <point x="69" y="538" type="qcurve" smooth="yes"/>
      <point x="69" y="576"/>
      <point x="73" y="686"/>
      <point x="76" y="721" type="qcurve"/>
      <point x="126" y="732"/>
      <point x="204" y="742"/>
      <point x="242" y="742" type="qcurve" smooth="yes"/>
      <point x="364" y="742"/>
      <point x="497" y="639"/>
      <point x="497" y="547" type="qcurve" smooth="yes"/>
      <point x="497" y="445"/>
      <point x="317" y="295"/>
    </contour>
    <contour>
      <point x="138" y="683" type="qcurve"/>
      <point x="130" y="597"/>
      <point x="123" y="443"/>
      <point x="123" y="357" type="qcurve"/>
      <point x="123" y="339"/>
      <point x="123" y="303"/>
      <point x="123" y="285" type="qcurve"/>
      <point x="279" y="327"/>
      <point x="437" y="456"/>
      <point x="437" y="542" type="qcurve" smooth="yes"/>
      <point x="437" y="618"/>
      <point x="340" y="698"/>
      <point x="247" y="698" type="qcurve" smooth="yes"/>
      <point x="218" y="698"/>
      <point x="165" y="691"/>
    </contour>
  </outline>
</glyph>
<glyph name="T" format="1">
  <advance width="592"/>
  <unicode hex="0054"/>
  <outline>
    <contour>
      <point x="355" y="33" type="qcurve"/>
      <point x="348" y="30"/>
      <point x="317" y="26"/>
      <point x="300" y="25" type="qcurve"/>
      <point x="306" y="191"/>
      <point x="287" y="561"/>
      <point x="265" y="724" type="qcurve"/>
      <point x="219" y="719"/>
      <point x="109" y="705"/>
      <point x="28" y="693" type="qcurve"/>
      <point x="25" y="706"/>
      <point x="23" y="734"/>
      <point x="24" y="744" type="qcurve"/>
      <point x="183" y="769"/>
      <point x="412" y="789"/>
      <point x="554" y="791" type="qcurve"/>
      <point x="557" y="785"/>
      <point x="560" y="772"/>
      <point x="561" y="764" type="qcurve" smooth="yes"/>
      <point x="562" y="758"/>
      <point x="561" y="741"/>
      <point x="561" y="740" type="qcurve"/>
      <point x="492" y="739"/>
      <point x="380" y="734"/>
      <point x="328" y="730" type="qcurve"/>
      <point x="344" y="578"/>
      <point x="358" y="336"/>
      <point x="358" y="209" type="qcurve" smooth="yes"/>
      <point x="358" y="167"/>
      <point x="357" y="80"/>
    </contour>
  </outline>
</glyph>
<glyph name="U" format="1">
  <advance width="538"/>
  <unicode hex="0055"/>
  <outline>
    <contour>
      <point x="427" y="705" type="qcurve"/>
      <point x="451" y="615"/>
      <point x="474" y="445"/>
      <point x="474" y="363" type="qcurve" smooth="yes"/>
      <point x="474" y="138"/>
      <point x="357" y="-80"/>
      <point x="235" y="-80" type="qcurve" smooth="yes"/>
      <point x="145" y="-80"/>
      <point x="58" y="95"/>
      <point x="58" y="274" type="qcurve" smooth="yes"/>
      <point x="58" y="365"/>
      <point x="87" y="564"/>
      <point x="108" y="630" type="qcurve"/>
      <point x="114" y="632"/>
      <point x="135" y="634"/>
      <point x="144" y="634" type="qcurve" smooth="yes"/>
      <point x="149" y="634"/>
      <point x="159" y="633"/>
      <point x="166" y="632" type="qcurve"/>
      <point x="143" y="540"/>
      <point x="119" y="369"/>
      <point x="119" y="293" type="qcurve" smooth="yes"/>
      <point x="119" y="120"/>
      <point x="177" y="-31"/>
      <point x="246" y="-31" type="qcurve" smooth="yes"/>
      <point x="326" y="-31"/>
      <point x="414" y="151"/>
      <point x="414" y="316" type="qcurve" smooth="yes"/>
      <point x="414" y="420"/>
      <point x="392" y="591"/>
      <point x="365" y="694" type="qcurve"/>
      <point x="379" y="698"/>
      <point x="407" y="703"/>
    </contour>
  </outline>
</glyph>
<glyph name="Z" format="1">
  <advance width="585"/>
  <unicode hex="005A"/>
  <outline>
    <contour>
      <point x="517" y="28" type="qcurve"/>
      <point x="516" y="14"/>
      <point x="508" y="-16"/>
      <point x="500" y="-34" type="qcurve"/>
      <point x="379" y="-33"/>
      <point x="133" y="-13"/>
      <point x="26" y="5" type="qcurve"/>
      <point x="25" y="19"/>
      <point x="27" y="43"/>
      <point x="29" y="53" type="qcurve"/>
      <point x="191" y="223"/>
      <point x="419" y="511"/>
      <point x="486" y="629" type="qcurve"/>
      <point x="379" y="639"/>
      <point x="193" y="664"/>
      <point x="98" y="681" type="qcurve"/>
      <point x="99" y="696"/>
      <point x="108" y="724"/>
      <point x="117" y="737" type="qcurve"/>
      <point x="199" y="720"/>
      <point x="368" y="691"/>
      <point x="555" y="664" type="qcurve"/>
      <point x="555" y="663"/>
      <point x="554" y="656"/>
      <point x="552" y="644" type="qcurve" smooth="yes"/>
      <point x="549" y="631"/>
      <point x="548" y="624"/>
      <point x="548" y="623" type="qcurve"/>
      <point x="464" y="489"/>
      <point x="240" y="210"/>
      <point x="83" y="42" type="qcurve"/>
      <point x="200" y="28"/>
      <point x="420" y="21"/>
    </contour>
  </outline>
</glyph>
<glyph name="asciicircum" format="1">
  <advance width="377"/>
  <unicode hex="005E"/>
  <outline>
    <contour>
      <point x="347" y="228" type="qcurve"/>
      <point x="341" y="226"/>
      <point x="318" y="217"/>
      <point x="310" y="215" type="qcurve"/>
      <point x="280" y="284"/>
      <point x="221" y="395"/>
      <point x="187" y="446" type="qcurve"/>
      <point x="159" y="408"/>
      <point x="103" y="301"/>
      <point x="67" y="218" type="qcurve"/>
      <point x="58" y="219"/>
      <point x="40" y="225"/>
      <point x="30" y="231" type="qcurve"/>
      <point x="63" y="316"/>
      <point x="131" y="443"/>
      <point x="171" y="495" type="qcurve"/>
      <point x="206" y="492" type="line"/>
      <point x="247" y="435"/>
      <point x="312" y="314"/>
    </contour>
  </outline>
</glyph>
<glyph name="grave" format="1">
  <advance width="260"/>
  <unicode hex="0060"/>
  <outline>
    <contour>
      <point x="136" y="751" type="qcurve"/>
      <point x="139" y="713"/>
      <point x="159" y="632"/>
      <point x="177" y="580" type="qcurve"/>
      <point x="167" y="577"/>
      <point x="147" y="574"/>
      <point x="136" y="573" type="qcurve"/>
      <point x="110" y="619"/>
      <point x="79" y="705"/>
      <point x="74" y="748" type="qcurve"/>
      <point x="86" y="751"/>
      <point x="121" y="753"/>
    </contour>
    <contour>
      <point x="158" y="560" type="move" name="_top"/>
    </contour>
  </outline>
</glyph>
<glyph name="b" format="1">
  <advance width="427"/>
  <unicode hex="0062"/>
  <outline>
    <contour>
      <point x="386" y="306" type="qcurve" smooth="yes"/>
      <point x="386" y="152"/>
      <point x="267" y="-30"/>
      <point x="167" y="-30" type="qcurve" smooth="yes"/>
      <point x="135" y="-30"/>
      <point x="83" y="-8"/>
      <point x="61" y="14" type="qcurve"/>
      <point x="59" y="51"/>
      <point x="56" y="148"/>
      <point x="56" y="303" type="qcurve" smooth="yes"/>
      <point x="56" y="423"/>
      <point x="66" y="656"/>
      <point x="75" y="721" type="qcurve"/>
      <point x="84" y="724"/>
      <point x="101" y="726"/>
      <point x="113" y="726" type="qcurve" smooth="yes"/>
      <point x="117" y="726"/>
      <point x="125" y="725"/>
      <point x="141" y="722" type="qcurve"/>
      <point x="131" y="661"/>
      <point x="116" y="513"/>
      <point x="111" y="432" type="qcurve"/>
      <point x="137" y="473"/>
      <point x="206" y="513"/>
      <point x="249" y="513" type="qcurve" smooth="yes"/>
      <point x="316" y="513"/>
      <point x="386" y="407"/>
    </contour>
    <contour>
      <point x="106" y="38" type="qcurve"/>
      <point x="120" y="26"/>
      <point x="150" y="15"/>
      <point x="171" y="15" type="qcurve" smooth="yes"/>
      <point x="246" y="15"/>
      <point x="327" y="168"/>
      <point x="327" y="305" type="qcurve" smooth="yes"/>
      <point x="327" y="386"/>
      <point x="278" y="468"/>
      <point x="230" y="468" type="qcurve" smooth="yes"/>
      <point x="195" y="468"/>
      <point x="127" y="397"/>
      <point x="106" y="336" type="qcurve"/>
      <point x="105" y="285"/>
      <point x="104" y="249"/>
      <point x="104" y="234" type="qcurve" smooth="yes"/>
      <point x="104" y="152"/>
      <point x="105" y="54"/>
    </contour>
  </outline>
</glyph>
<glyph name="c" format="1">
  <advance width="408"/>
  <unicode hex="0063"/>
  <outline>
    <contour>
      <point x="366" y="368" type="qcurve"/>
      <point x="352" y="361"/>
      <point x="323" y="355"/>
      <point x="307" y="355" type="qcurve"/>
      <point x="307" y="425"/>
      <point x="267" y="496"/>
      <point x="228" y="496" type="qcurve" smooth="yes"/>
      <point x="168" y="496"/>
      <point x="82" y="318"/>
      <point x="82" y="203" type="qcurve" smooth="yes"/>
      <point x="82" y="117"/>
      <point x="141" y="19"/>
      <point x="195" y="19" type="qcurve" smooth="yes"/>
      <point x="235" y="19"/>
      <point x="302" y="84"/>
      <point x="326" y="146" type="qcurve"/>
      <point x="338" y="141"/>
      <point x="357" y="129"/>
      <point x="364" y="120" type="qcurve"/>
      <point x="348" y="59"/>
      <point x="246" y="-26"/>
      <point x="187" y="-26" type="qcurve" smooth="yes"/>
      <point x="110" y="-26"/>
      <point x="28" y="91"/>
      <point x="28" y="198" type="qcurve" smooth="yes"/>
      <point x="28" y="347"/>
      <point x="140" y="541"/>
      <point x="226" y="541" type="qcurve" smooth="yes"/>
      <point x="292" y="541"/>
      <point x="366" y="449"/>
    </contour>
  </outline>
</glyph>
<glyph name="j" format="1">
  <advance width="214"/>
  <unicode hex="006A"/>
  <outline>
    <contour>
      <point x="107" y="737" type="qcurve"/>
      <point x="97" y="712"/>
      <point x="82" y="654"/>
      <point x="78" y="627" type="qcurve"/>
      <point x="70" y="625"/>
      <point x="47" y="623"/>
      <point x="36" y="622" type="qcurve"/>
      <point x="34" y="634"/>
      <point x="32" y="652"/>
      <point x="31" y="659" type="qcurve" smooth="yes"/>
      <point x="29" y="682"/>
      <point x="33" y="721"/>
      <point x="39" y="738" type="qcurve"/>
      <point x="47" y="742"/>
      <point x="62" y="745"/>
      <point x="72" y="745" type="qcurve" smooth="yes"/>
      <point x="85" y="744"/>
      <point x="99" y="741"/>
    </contour>
    <contour>
      <point x="144" y="189" type="qcurve" smooth="yes"/>
      <point x="144" y="3"/>
      <point x="62" y="-194"/>
      <point x="-14" y="-194" type="qcurve" smooth="yes"/>
      <point x="-53" y="-194"/>
      <point x="-116" y="-151"/>
      <point x="-140" y="-108" type="qcurve"/>
      <point x="-133" y="-95"/>
      <point x="-117" y="-73"/>
      <point x="-108" y="-65" type="qcurve"/>
      <point x="-89" y="-106"/>
      <point x="-47" y="-144"/>
      <point x="-19" y="-144" type="qcurve" smooth="yes"/>
      <point x="33" y="-144"/>
      <point x="88" y="15"/>
      <point x="88" y="167" type="qcurve" smooth="yes"/>
      <point x="88" y="228"/>
      <point x="71" y="359"/>
      <point x="34" y="531" type="qcurve"/>
      <point x="48" y="537"/>
      <point x="81" y="539"/>
      <point x="100" y="537" type="qcurve"/>
      <point x="124" y="415"/>
      <point x="144" y="256"/>
    </contour>
  </outline>
</glyph>
<glyph name="k" format="1">
  <advance width="424"/>
  <unicode hex="006B"/>
  <outline>
    <contour>
      <point x="104" y="244" type="qcurve" smooth="yes"/>
      <point x="104" y="173"/>
      <point x="113" y="31"/>
      <point x="122" y="-44" type="qcurve"/>
      <point x="106" y="-46"/>
      <point x="79" y="-49"/>
      <point x="71" y="-49" type="qcurve"/>
      <point x="60" y="76"/>
      <point x="52" y="226"/>
      <point x="52" y="306" type="qcurve" smooth="yes"/>
      <point x="52" y="416"/>
      <point x="67" y="628"/>
      <point x="82" y="732" type="qcurve"/>
      <point x="100" y="735"/>
      <point x="129" y="734"/>
      <point x="141" y="731" type="qcurve"/>
      <point x="124" y="620"/>
      <point x="107" y="415"/>
      <point x="105" y="306" type="qcurve"/>
      <point x="187" y="376"/>
      <point x="284" y="490"/>
      <point x="340" y="579" type="qcurve"/>
      <point x="352" y="572"/>
      <point x="371" y="558"/>
      <point x="378" y="550" type="qcurve"/>
      <point x="322" y="463"/>
      <point x="237" y="363"/>
      <point x="174" y="309" type="qcurve"/>
      <point x="223" y="235"/>
      <point x="323" y="136"/>
      <point x="404" y="81" type="qcurve"/>
      <point x="393" y="61"/>
      <point x="378" y="43"/>
      <point x="370" y="37" type="qcurve"/>
      <point x="299" y="92"/>
      <point x="202" y="194"/>
      <point x="139" y="280" type="qcurve"/>
      <point x="136" y="278"/>
      <point x="130" y="273"/>
      <point x="124" y="268" type="qcurve" smooth="yes"/>
      <point x="116" y="262"/>
      <point x="108" y="255"/>
      <point x="104" y="252" type="qcurve"/>
      <point x="104" y="250"/>
      <point x="104" y="246"/>
    </contour>
  </outline>
</glyph>
<glyph name="n" format="1">
  <advance width="437"/>
  <unicode hex="006E"/>
  <outline>
    <contour>
      <point x="106" y="180" type="qcurve" smooth="yes"/>
      <point x="106" y="127"/>
      <point x="110" y="0"/>
      <point x="114" y="-27" type="qcurve"/>
      <point x="105" y="-31"/>
      <point x="78" y="-35"/>
      <point x="66" y="-35" type="qcurve"/>
      <point x="61" y="66"/>
      <point x="52" y="400"/>
      <point x="52" y="519" type="qcurve"/>
      <point x="60" y="523"/>
      <point x="78" y="527"/>
      <point x="88" y="527" type="qcurve" smooth="yes"/>
      <point x="95" y="527"/>
      <point x="111" y="526"/>
      <point x="120" y="524" type="qcurve"/>
      <point x="120" y="522"/>
      <point x="114" y="438"/>
      <point x="113" y="409" type="qcurve"/>
      <point x="146" y="466"/>
      <point x="220" y="523"/>
      <point x="261" y="523" type="qcurve" smooth="yes"/>
      <point x="322" y="523"/>
      <point x="376" y="435"/>
      <point x="376" y="338" type="qcurve" smooth="yes"/>
      <point x="376" y="259"/>
      <point x="351" y="66"/>
      <point x="337" y="12" type="qcurve"/>
      <point x="324" y="13"/>
      <point x="295" y="20"/>
      <point x="287" y="24" type="qcurve"/>
      <point x="305" y="123"/>
      <point x="321" y="272"/>
      <point x="321" y="342" type="qcurve" smooth="yes"/>
      <point x="321" y="411"/>
      <point x="287" y="472"/>
      <point x="249" y="472" type="qcurve" smooth="yes"/>
      <point x="211" y="472"/>
      <point x="136" y="398"/>
      <point x="109" y="333" type="qcurve"/>
      <point x="108" y="293"/>
      <point x="106" y="214"/>
    </contour>
  </outline>
</glyph>
<glyph name="o" format="1">
  <advance width="431"/>
  <unicode hex="006F"/>
  <outline>
    <contour>
      <point x="31" y="244" type="qcurve" smooth="yes"/>
      <point x="31" y="372"/>
      <point x="142" y="533"/>
      <point x="230" y="533" type="qcurve" smooth="yes"/>
      <point x="304" y="533"/>
      <point x="390" y="416"/>
      <point x="390" y="317" type="qcurve" smooth="yes"/>
      <point x="390" y="171"/>
      <point x="285" y="-10"/>
      <point x="200" y="-10" type="qcurve" smooth="yes"/>
      <point x="123" y="-10"/>
      <point x="31" y="132"/>
    </contour>
    <contour>
      <point x="331" y="277" type="qcurve" smooth="yes"/>
      <point x="331" y="384"/>
      <point x="275" y="488"/>
      <point x="217" y="488" type="qcurve" smooth="yes"/>
      <point x="164" y="488"/>
      <point x="86" y="350"/>
      <point x="86" y="251" type="qcurve" smooth="yes"/>
      <point x="86" y="159"/>
      <point x="152" y="35"/>
      <point x="208" y="35" type="qcurve" smooth="yes"/>
      <point x="257" y="35"/>
      <point x="331" y="176"/>
    </contour>
  </outline>
</glyph>
<glyph name="p" format="1">
  <advance width="433"/>
  <unicode hex="0070"/>
  <outline>
    <contour>
      <point x="118" y="80" type="qcurve"/>
      <point x="130" y="66"/>
      <point x="159" y="53"/>
      <point x="177" y="53" type="qcurve" smooth="yes"/>
      <point x="240" y="53"/>
      <point x="333" y="225"/>
      <point x="333" y="352" type="qcurve" smooth="yes"/>
      <point x="333" y="419"/>
      <point x="287" y="497"/>
      <point x="248" y="497" type="qcurve" smooth="yes"/>
      <point x="202" y="497"/>
      <point x="133" y="413"/>
      <point x="112" y="331" type="qcurve"/>
      <point x="112" y="321"/>
      <point x="112" y="300"/>
      <point x="112" y="290" type="qcurve"/>
      <point x="112" y="231"/>
      <point x="115" y="126"/>
    </contour>
    <contour>
      <point x="122" y="21" type="qcurve"/>
      <point x="126" y="-35"/>
      <point x="139" y="-144"/>
      <point x="150" y="-210" type="qcurve"/>
      <point x="137" y="-214"/>
      <point x="112" y="-218"/>
      <point x="100" y="-218" type="qcurve"/>
      <point x="83" y="-92"/>
      <point x="61" y="221"/>
      <point x="61" y="348" type="qcurve" smooth="yes"/>
      <point x="61" y="407"/>
      <point x="65" y="501"/>
      <point x="70" y="547" type="qcurve"/>
      <point x="81" y="553"/>
      <point x="103" y="558"/>
      <point x="116" y="558" type="qcurve" smooth="yes"/>
      <point x="123" y="558"/>
      <point x="133" y="557"/>
      <point x="139" y="555" type="qcurve"/>
      <point x="131" y="524"/>
      <point x="121" y="467"/>
      <point x="118" y="436" type="qcurve"/>
      <point x="144" y="492"/>
      <point x="222" y="553"/>
      <point x="268" y="553" type="qcurve" smooth="yes"/>
      <point x="324" y="553"/>
      <point x="392" y="445"/>
      <point x="392" y="355" type="qcurve" smooth="yes"/>
      <point x="392" y="209"/>
      <point x="266" y="10"/>
      <point x="177" y="10" type="qcurve" smooth="yes"/>
      <point x="160" y="10"/>
      <point x="133" y="15"/>
    </contour>
  </outline>
</glyph>
<glyph name="q" format="1">
  <advance width="471"/>
  <unicode hex="0071"/>
  <outline>
    <contour>
      <point x="364" y="-236" type="qcurve"/>
      <point x="359" y="-238"/>
      <point x="341" y="-241"/>
      <point x="334" y="-241" type="qcurve" smooth="yes"/>
      <point x="330" y="-241"/>
      <point x="325" y="-240"/>
      <point x="317" y="-238" type="qcurve"/>
      <point x="314" y="-215"/>
      <point x="308" y="-37"/>
      <point x="307" y="51" type="qcurve"/>
      <point x="285" y="0"/>
      <point x="228" y="-50"/>
      <point x="191" y="-50" type="qcurve" smooth="yes"/>
      <point x="124" y="-50"/>
      <point x="41" y="89"/>
      <point x="41" y="196" type="qcurve" smooth="yes"/>
      <point x="41" y="339"/>
      <point x="166" y="509"/>
      <point x="272" y="509" type="qcurve" smooth="yes"/>
      <point x="286" y="509"/>
      <point x="325" y="503"/>
      <point x="341" y="498" type="qcurve"/>
      <point x="343" y="512"/>
      <point x="349" y="539"/>
      <point x="352" y="553" type="qcurve"/>
      <point x="361" y="558"/>
      <point x="378" y="561"/>
      <point x="389" y="561" type="qcurve" smooth="yes"/>
      <point x="397" y="561"/>
      <point x="414" y="559"/>
      <point x="420" y="557" type="qcurve"/>
      <point x="381" y="421"/>
      <point x="353" y="16"/>
    </contour>
    <contour>
      <point x="96" y="197" type="qcurve" smooth="yes"/>
      <point x="96" y="106"/>
      <point x="151" y="-5"/>
      <point x="193" y="-5" type="qcurve" smooth="yes"/>
      <point x="237" y="-5"/>
      <point x="290" y="68"/>
      <point x="308" y="151" type="qcurve"/>
      <point x="310" y="227"/>
      <point x="324" y="386"/>
      <point x="334" y="451" type="qcurve"/>
      <point x="321" y="458"/>
      <point x="287" y="464"/>
      <point x="263" y="464" type="qcurve" smooth="yes"/>
      <point x="189" y="464"/>
      <point x="96" y="321"/>
    </contour>
  </outline>
</glyph>
<glyph name="r" format="1">
  <advance width="332"/>
  <unicode hex="0072"/>
  <outline>
    <contour>
      <point x="127" y="-3" type="qcurve"/>
      <point x="122" y="-5"/>
      <point x="109" y="-8"/>
      <point x="101" y="-9" type="qcurve" smooth="yes"/>
      <point x="94" y="-10"/>
      <point x="84" y="-9"/>
      <point x="79" y="-8" type="qcurve"/>
      <point x="55" y="122"/>
      <point x="39" y="395"/>
      <point x="46" y="542" type="qcurve"/>
      <point x="52" y="545"/>
      <point x="67" y="547"/>
      <point x="83" y="547" type="qcurve" smooth="yes"/>
      <point x="87" y="547"/>
      <point x="95" y="546"/>
      <point x="108" y="543" type="qcurve"/>
      <point x="102" y="494"/>
      <point x="96" y="431"/>
      <point x="95" y="404" type="qcurve"/>
      <point x="117" y="484"/>
      <point x="195" y="580"/>
      <point x="236" y="580" type="qcurve" smooth="yes"/>
      <point x="273" y="580"/>
      <point x="306" y="528"/>
      <point x="306" y="470" type="qcurve" smooth="yes"/>
      <point x="306" y="457"/>
      <point x="304" y="427"/>
      <point x="303" y="411" type="qcurve"/>
      <point x="296" y="409"/>
      <point x="277" y="407"/>
      <point x="259" y="407" type="qcurve"/>
      <point x="261" y="423"/>
      <point x="263" y="453"/>
      <point x="263" y="467" type="qcurve" smooth="yes"/>
      <point x="263" y="501"/>
      <point x="247" y="532"/>
      <point x="230" y="532" type="qcurve" smooth="yes"/>
      <point x="193" y="532"/>
      <point x="119" y="385"/>
      <point x="96" y="266" type="qcurve"/>
      <point x="99" y="212"/>
      <point x="114" y="82"/>
    </contour>
  </outline>
</glyph>
<glyph name="w" format="1">
  <advance width="633"/>
  <unicode hex="0077"/>
  <outline>
    <contour>
      <point x="422" y="-28" type="qcurve"/>
      <point x="413" y="-31"/>
      <point x="387" y="-35"/>
      <point x="379" y="-35" type="qcurve"/>
      <point x="361" y="85"/>
      <point x="322" y="263"/>
      <point x="296" y="344" type="qcurve"/>
      <point x="273" y="251"/>
      <point x="223" y="107"/>
      <point x="184" y="19" type="qcurve"/>
      <point x="172" y="15"/>
      <point x="147" y="11"/>
      <point x="137" y="10" type="qcurve"/>
      <point x="86" y="145"/>
      <point x="29" y="391"/>
      <point x="16" y="536" type="qcurve"/>
      <point x="26" y="541"/>
      <point x="50" y="546"/>
      <point x="66" y="547" type="qcurve"/>
      <point x="79" y="404"/>
      <point x="124" y="183"/>
      <point x="162" y="76" type="qcurve"/>
      <point x="200" y="162"/>
      <point x="251" y="341"/>
      <point x="269" y="454" type="qcurve"/>
      <point x="280" y="458"/>
      <point x="301" y="461"/>
      <point x="313" y="461" type="qcurve"/>
      <point x="346" y="374"/>
      <point x="397" y="161"/>
      <point x="412" y="48" type="qcurve"/>
      <point x="465" y="168"/>
      <point x="534" y="395"/>
      <point x="548" y="492" type="qcurve"/>
      <point x="560" y="490"/>
      <point x="587" y="479"/>
      <point x="602" y="470" type="qcurve"/>
      <point x="565" y="313"/>
      <point x="491" y="112"/>
    </contour>
  </outline>
</glyph>
<glyph name="z" format="1">
  <advance width="422"/>
  <unicode hex="007A"/>
  <outline>
    <contour>
      <point x="367" y="37" type="qcurve"/>
      <point x="367" y="28"/>
      <point x="362" y="10"/>
      <point x="352" y="-14" type="qcurve"/>
      <point x="253" y="-13"/>
      <point x="101" y="2"/>
      <point x="17" y="21" type="qcurve"/>
      <point x="16" y="35"/>
      <point x="17" y="54"/>
      <point x="18" y="63" type="qcurve"/>
      <point x="109" y="188"/>
      <point x="255" y="366"/>
      <point x="335" y="450" type="qcurve"/>
      <point x="265" y="464"/>
      <point x="154" y="481"/>
      <point x="68" y="489" type="qcurve"/>
      <point x="70" y="504"/>
      <point x="74" y="521"/>
      <point x="79" y="537" type="qcurve"/>
      <point x="168" y="529"/>
      <point x="298" y="505"/>
      <point x="391" y="478" type="qcurve"/>
      <point x="391" y="468"/>
      <point x="388" y="446"/>
      <point x="385" y="438" type="qcurve"/>
      <point x="295" y="343"/>
      <point x="153" y="173"/>
      <point x="65" y="54" type="qcurve"/>
      <point x="150" y="41"/>
      <point x="286" y="34"/>
    </contour>
  </outline>
</glyph>
<glyph name="braceleft" format="1">
  <advance width="285"/>
  <unicode hex="007B"/>
  <outline>
    <contour>
      <point x="240" y="-151" type="qcurve"/>
      <point x="226" y="-158"/>
      <point x="198" y="-164"/>
      <point x="176" y="-164" type="qcurve" smooth="yes"/>
      <point x="125" y="-164"/>
      <point x="61" y="-94"/>
      <point x="61" y="-39" type="qcurve" smooth="yes"/>
      <point x="61" y="-7"/>
      <point x="80" y="51"/>
      <point x="103" y="90" type="qcurve" smooth="yes"/>
      <point x="135" y="144"/>
      <point x="154" y="193"/>
      <point x="154" y="215" type="qcurve" smooth="yes"/>
      <point x="154" y="248"/>
      <point x="115" y="292"/>
      <point x="85" y="292" type="qcurve" smooth="yes"/>
      <point x="73" y="292"/>
      <point x="54" y="290"/>
      <point x="44" y="288" type="qcurve"/>
      <point x="40" y="307"/>
      <point x="40" y="354"/>
      <point x="43" y="369" type="qcurve"/>
      <point x="53" y="366"/>
      <point x="69" y="364"/>
      <point x="80" y="364" type="qcurve" smooth="yes"/>
      <point x="112" y="364"/>
      <point x="149" y="406"/>
      <point x="149" y="442" type="qcurve" smooth="yes"/>
      <point x="149" y="459"/>
      <point x="138" y="492"/>
      <point x="98" y="559" type="qcurve" smooth="yes"/>
      <point x="75" y="598"/>
      <point x="56" y="656"/>
      <point x="56" y="688" type="qcurve" smooth="yes"/>
      <point x="56" y="743"/>
      <point x="120" y="813"/>
      <point x="171" y="813" type="qcurve" smooth="yes"/>
      <point x="193" y="813"/>
      <point x="222" y="807"/>
      <point x="235" y="800" type="qcurve"/>
      <point x="236" y="789"/>
      <point x="230" y="767"/>
      <point x="223" y="757" type="qcurve"/>
      <point x="210" y="763"/>
      <point x="190" y="768"/>
      <point x="175" y="768" type="qcurve" smooth="yes"/>
      <point x="146" y="768"/>
      <point x="111" y="725"/>
      <point x="111" y="688" type="qcurve" smooth="yes"/>
      <point x="111" y="663"/>
      <point x="128" y="613"/>
      <point x="155" y="568" type="qcurve" smooth="yes"/>
      <point x="182" y="522"/>
      <point x="199" y="472"/>
      <point x="199" y="447" type="qcurve" smooth="yes"/>
      <point x="199" y="403"/>
      <point x="156" y="342"/>
      <point x="116" y="330" type="qcurve"/>
      <point x="159" y="320"/>
      <point x="204" y="258"/>
      <point x="204" y="210" type="qcurve" smooth="yes"/>
      <point x="204" y="185"/>
      <point x="187" y="133"/>
      <point x="160" y="86" type="qcurve" smooth="yes"/>
      <point x="133" y="38"/>
      <point x="116" y="-14"/>
      <point x="116" y="-39" type="qcurve" smooth="yes"/>
      <point x="116" y="-76"/>
      <point x="151" y="-119"/>
      <point x="180" y="-119" type="qcurve" smooth="yes"/>
      <point x="195" y="-119"/>
      <point x="215" y="-114"/>
      <point x="228" y="-108" type="qcurve"/>
      <point x="233" y="-116"/>
      <point x="239" y="-138"/>
    </contour>
  </outline>
</glyph>
<glyph name="braceright" format="1">
  <advance width="310.287253677"/>
  <unicode hex="007D"/>
  <outline>
    <contour>
      <point x="187" y="91" type="qcurve" smooth="yes"/>
      <point x="210" y="52"/>
      <point x="228" y="-7"/>
      <point x="227" y="-39" type="qcurve" smooth="yes"/>
      <point x="225" y="-94"/>
      <point x="160" y="-162"/>
      <point x="109" y="-161" type="qcurve" smooth="yes"/>
      <point x="86" y="-160"/>
      <point x="57" y="-154"/>
      <point x="45" y="-147" type="qcurve"/>
      <point x="44" y="-135"/>
      <point x="51" y="-113"/>
      <point x="58" y="-104" type="qcurve"/>
      <point x="72" y="-111"/>
      <point x="93" y="-116"/>
      <point x="106" y="-116" type="qcurve" smooth="yes"/>
      <point x="135" y="-117"/>
      <point x="171" y="-74"/>
      <point x="172" y="-37" type="qcurve" smooth="yes"/>
      <point x="173" y="-12"/>
      <point x="157" y="38"/>
      <point x="131" y="84" type="qcurve" smooth="yes"/>
      <point x="104" y="130"/>
      <point x="88" y="180"/>
      <point x="89" y="205" type="qcurve" smooth="yes"/>
      <point x="90" y="249"/>
      <point x="134" y="309"/>
      <point x="174" y="321" type="qcurve"/>
      <point x="132" y="332"/>
      <point x="87" y="396"/>
      <point x="89" y="443" type="qcurve" smooth="yes"/>
      <point x="90" y="468"/>
      <point x="107" y="520"/>
      <point x="136" y="568" type="qcurve" smooth="yes"/>
      <point x="164" y="615"/>
      <point x="181" y="666"/>
      <point x="182" y="691" type="qcurve" smooth="yes"/>
      <point x="183" y="728"/>
      <point x="149" y="771"/>
      <point x="120" y="772" type="qcurve" smooth="yes"/>
      <point x="104" y="772"/>
      <point x="84" y="768"/>
      <point x="72" y="762" type="qcurve"/>
      <point x="67" y="771"/>
      <point x="61" y="793"/>
      <point x="61" y="805" type="qcurve"/>
      <point x="75" y="812"/>
      <point x="104" y="818"/>
      <point x="125" y="817" type="qcurve" smooth="yes"/>
      <point x="176" y="816"/>
      <point x="239" y="744"/>
      <point x="237" y="689" type="qcurve" smooth="yes"/>
      <point x="236" y="657"/>
      <point x="217" y="601"/>
      <point x="192" y="561" type="qcurve" smooth="yes"/>
      <point x="159" y="509"/>
      <point x="139" y="458"/>
      <point x="139" y="436" type="qcurve" smooth="yes"/>
      <point x="138" y="403"/>
      <point x="176" y="359"/>
      <point x="206" y="358" type="qcurve" smooth="yes"/>
      <point x="223" y="358"/>
      <point x="240" y="359"/>
      <point x="247" y="361" type="qcurve"/>
      <point x="251" y="341"/>
      <point x="250" y="294"/>
      <point x="246" y="280" type="qcurve"/>
      <point x="233" y="284"/>
      <point x="218" y="286"/>
      <point x="209" y="286" type="qcurve" smooth="yes"/>
      <point x="178" y="287"/>
      <point x="140" y="245"/>
      <point x="139" y="209" type="qcurve" smooth="yes"/>
      <point x="139" y="192"/>
      <point x="149" y="158"/>
    </contour>
  </outline>
</glyph>
<glyph name="asciitilde" format="1">
  <advance width="328.347076828"/>
  <unicode hex="007E"/>
  <outline>
    <contour>
      <point x="173" y="342" type="qcurve" smooth="yes"/>
      <point x="196" y="333"/>
      <point x="215" y="328"/>
      <point x="222" y="328" type="qcurve" smooth="yes"/>
      <point x="242" y="328"/>
      <point x="261" y="350"/>
      <point x="260" y="369" type="qcurve"/>
      <point x="271" y="370"/>
      <point x="288" y="367"/>
      <point x="299" y="362" type="qcurve"/>
      <point x="302" y="330"/>
      <point x="261" y="288"/>
      <point x="228" y="288" type="qcurve" smooth="yes"/>
      <point x="214" y="288"/>
      <point x="180" y="296"/>
      <point x="148" y="308" type="qcurve" smooth="yes"/>
      <point x="126" y="317"/>
      <point x="107" y="322"/>
      <point x="100" y="322" type="qcurve" smooth="yes"/>
      <point x="80" y="322"/>
      <point x="64" y="303"/>
      <point x="65" y="282" type="qcurve"/>
      <point x="58" y="281"/>
      <point x="42" y="284"/>
      <point x="29" y="289" type="qcurve"/>
      <point x="26" y="321"/>
      <point x="65" y="362"/>
      <point x="98" y="362" type="qcurve" smooth="yes"/>
      <point x="111" y="362"/>
      <point x="143" y="354"/>
    </contour>
  </outline>
</glyph>
<glyph name="exclamdown" format="1">
  <advance width="199"/>
  <unicode hex="00A1"/>
  <outline>
    <contour>
      <point x="91" y="553" type="qcurve" smooth="yes"/>
      <point x="95" y="553"/>
      <point x="104" y="552"/>
      <point x="117" y="551" type="qcurve"/>
      <point x="118" y="535"/>
      <point x="118" y="503"/>
      <point x="117" y="488" type="qcurve"/>
      <point x="101" y="487"/>
      <point x="77" y="487"/>
      <point x="63" y="488" type="qcurve"/>
      <point x="62" y="504"/>
      <point x="60" y="546"/>
      <point x="60" y="550" type="qcurve"/>
      <point x="68" y="552"/>
      <point x="84" y="553"/>
    </contour>
    <contour>
      <point x="116" y="350" type="qcurve"/>
      <point x="123" y="222"/>
      <point x="129" y="9"/>
      <point x="129" y="-117" type="qcurve" smooth="yes"/>
      <point x="129" y="-142"/>
      <point x="129" y="-168"/>
      <point x="128" y="-176" type="qcurve"/>
      <point x="116" y="-181"/>
      <point x="99" y="-185"/>
      <point x="90" y="-185" type="qcurve" smooth="yes"/>
      <point x="85" y="-185"/>
      <point x="77" y="-185"/>
      <point x="65" y="-183" type="qcurve"/>
      <point x="75" y="-69"/>
      <point x="80" y="191"/>
      <point x="75" y="351" type="qcurve"/>
      <point x="79" y="352"/>
      <point x="87" y="353"/>
      <point x="92" y="353" type="qcurve" smooth="yes"/>
      <point x="99" y="353"/>
      <point x="110" y="352"/>
    </contour>
  </outline>
</glyph>
<glyph name="cent" format="1">
  <advance width="411"/>
  <unicode hex="00A2"/>
  <outline>
    <contour>
      <point x="381" y="194" type="qcurve"/>
      <point x="366" y="135"/>
      <point x="259" y="47"/>
      <point x="199" y="47" type="qcurve" smooth="yes"/>
      <point x="183" y="47"/>
      <point x="153" y="53"/>
      <point x="140" y="58" type="qcurve"/>
      <point x="132" y="33"/>
      <point x="109" y="-19"/>
      <point x="95" y="-47" type="qcurve"/>
      <point x="81" y="-47"/>
      <point x="57" y="-41"/>
      <point x="46" y="-34" type="qcurve"/>
      <point x="64" y="-1"/>
      <point x="89" y="55"/>
      <point x="100" y="83" type="qcurve"/>
      <point x="70" y="111"/>
      <point x="40" y="206"/>
      <point x="40" y="271" type="qcurve" smooth="yes"/>
      <point x="40" y="419"/>
      <point x="155" y="614"/>
      <point x="243" y="614" type="qcurve" smooth="yes"/>
      <point x="261" y="614"/>
      <point x="293" y="607"/>
      <point x="307" y="600" type="qcurve"/>
      <point x="317" y="632"/>
      <point x="336" y="678"/>
      <point x="345" y="695" type="qcurve"/>
      <point x="355" y="695"/>
      <point x="376" y="688"/>
      <point x="391" y="680" type="qcurve"/>
      <point x="376" y="651"/>
      <point x="351" y="597"/>
      <point x="341" y="572" type="qcurve"/>
      <point x="359" y="549"/>
      <point x="378" y="483"/>
      <point x="378" y="441" type="qcurve"/>
      <point x="364" y="434"/>
      <point x="335" y="428"/>
      <point x="319" y="428" type="qcurve"/>
      <point x="319" y="498"/>
      <point x="279" y="569"/>
      <point x="240" y="569" type="qcurve" smooth="yes"/>
      <point x="180" y="569"/>
      <point x="94" y="391"/>
      <point x="94" y="276" type="qcurve" smooth="yes"/>
      <point x="94" y="189"/>
      <point x="153" y="92"/>
      <point x="207" y="92" type="qcurve" smooth="yes"/>
      <point x="246" y="92"/>
      <point x="311" y="155"/>
      <point x="338" y="219" type="qcurve"/>
      <point x="350" y="218"/>
      <point x="377" y="202"/>
    </contour>
  </outline>
</glyph>
<glyph name="currency" format="1">
  <advance width="566"/>
  <unicode hex="00A4"/>
  <outline>
    <contour>
      <point x="404" y="373" type="qcurve" smooth="yes"/>
      <point x="404" y="459"/>
      <point x="348" y="551"/>
      <point x="295" y="551" type="qcurve" smooth="yes"/>
      <point x="236" y="551"/>
      <point x="164" y="440"/>
      <point x="164" y="351" type="qcurve" smooth="yes"/>
      <point x="164" y="269"/>
      <point x="230" y="162"/>
      <point x="281" y="162" type="qcurve" smooth="yes"/>
      <point x="332" y="162"/>
      <point x="404" y="286"/>
    </contour>
    <contour>
      <point x="409" y="204" type="qcurve"/>
      <point x="385" y="164"/>
      <point x="316" y="123"/>
      <point x="275" y="123" type="qcurve" smooth="yes"/>
      <point x="241" y="123"/>
      <point x="183" y="153"/>
      <point x="161" y="181" type="qcurve"/>
      <point x="140" y="152"/>
      <point x="90" y="95"/>
      <point x="62" y="69" type="qcurve"/>
      <point x="50" y="73"/>
      <point x="29" y="87"/>
      <point x="20" y="98" type="qcurve"/>
      <point x="55" y="130"/>
      <point x="112" y="191"/>
      <point x="137" y="224" type="qcurve"/>
      <point x="126" y="250"/>
      <point x="114" y="310"/>
      <point x="114" y="343" type="qcurve" smooth="yes"/>
      <point x="114" y="393"/>
      <point x="135" y="476"/>
      <point x="156" y="509" type="qcurve"/>
      <point x="128" y="534"/>
      <point x="79" y="590"/>
      <point x="58" y="619" type="qcurve"/>
      <point x="62" y="630"/>
      <point x="79" y="649"/>
      <point x="91" y="658" type="qcurve"/>
      <point x="117" y="620"/>
      <point x="159" y="570"/>
      <point x="185" y="545" type="qcurve"/>
      <point x="208" y="567"/>
      <point x="266" y="590"/>
      <point x="300" y="590" type="qcurve" smooth="yes"/>
      <point x="332" y="590"/>
      <point x="388" y="565"/>
      <point x="409" y="541" type="qcurve"/>
      <point x="431" y="572"/>
      <point x="479" y="627"/>
      <point x="503" y="650" type="qcurve"/>
      <point x="512" y="647"/>
      <point x="529" y="633"/>
      <point x="541" y="620" type="qcurve"/>
      <point x="509" y="592"/>
      <point x="457" y="535"/>
      <point x="433" y="502" type="qcurve"/>
      <point x="443" y="481"/>
      <point x="454" y="429"/>
      <point x="454" y="398" type="qcurve" smooth="yes"/>
      <point x="454" y="354"/>
      <point x="441" y="277"/>
      <point x="428" y="244" type="qcurve"/>
      <point x="460" y="216"/>
      <point x="514" y="158"/>
      <point x="536" y="128" type="qcurve"/>
      <point x="531" y="120"/>
      <point x="515" y="103"/>
      <point x="501" y="94" type="qcurve"/>
      <point x="471" y="136"/>
      <point x="435" y="179"/>
    </contour>
  </outline>
</glyph>
<glyph name="brokenbar" format="1">
  <advance width="268.0"/>
  <unicode hex="00A6"/>
  <outline>
    <contour>
      <point x="163" y="725" type="qcurve"/>
      <point x="160" y="655"/>
      <point x="156" y="479"/>
      <point x="156" y="376" type="qcurve"/>
      <point x="144" y="373"/>
      <point x="118" y="370"/>
      <point x="102" y="371" type="qcurve"/>
      <point x="101" y="433"/>
      <point x="100" y="575"/>
      <point x="100" y="714" type="qcurve"/>
      <point x="113" y="720"/>
      <point x="146" y="726"/>
    </contour>
    <contour>
      <point x="168" y="-165" type="qcurve"/>
      <point x="161" y="-167"/>
      <point x="130" y="-171"/>
      <point x="120" y="-171" type="qcurve"/>
      <point x="115" y="-80"/>
      <point x="107" y="118"/>
      <point x="105" y="222" type="qcurve"/>
      <point x="116" y="224"/>
      <point x="142" y="224"/>
      <point x="157" y="221" type="qcurve"/>
      <point x="158" y="132"/>
      <point x="164" y="-62"/>
    </contour>
  </outline>
</glyph>
<glyph name="section" format="1">
  <advance width="347"/>
  <unicode hex="00A7"/>
  <outline>
    <contour>
      <point x="165" y="358" type="qcurve"/>
      <point x="125" y="349"/>
      <point x="82" y="301"/>
      <point x="82" y="265" type="qcurve" smooth="yes"/>
      <point x="82" y="228"/>
      <point x="123" y="172"/>
      <point x="172" y="139" type="qcurve"/>
      <point x="212" y="148"/>
      <point x="255" y="196"/>
      <point x="255" y="232" type="qcurve" smooth="yes"/>
      <point x="255" y="269"/>
      <point x="214" y="325"/>
    </contour>
    <contour>
      <point x="302" y="-46" type="qcurve" smooth="yes"/>
      <point x="302" y="-101"/>
      <point x="229" y="-181"/>
      <point x="176" y="-181" type="qcurve" smooth="yes"/>
      <point x="115" y="-181"/>
      <point x="47" y="-109"/>
      <point x="35" y="-32" type="qcurve"/>
      <point x="46" y="-26"/>
      <point x="68" y="-20"/>
      <point x="80" y="-20" type="qcurve"/>
      <point x="88" y="-81"/>
      <point x="133" y="-137"/>
      <point x="173" y="-137" type="qcurve" smooth="yes"/>
      <point x="207" y="-137"/>
      <point x="247" y="-92"/>
      <point x="247" y="-55" type="qcurve" smooth="yes"/>
      <point x="247" y="-10"/>
      <point x="202" y="56"/>
      <point x="143" y="96" type="qcurve" smooth="yes"/>
      <point x="77" y="141"/>
      <point x="30" y="214"/>
      <point x="30" y="258" type="qcurve" smooth="yes"/>
      <point x="30" y="302"/>
      <point x="77" y="369"/>
      <point x="123" y="388" type="qcurve"/>
      <point x="82" y="420"/>
      <point x="45" y="490"/>
      <point x="45" y="536" type="qcurve" smooth="yes"/>
      <point x="45" y="595"/>
      <point x="119" y="676"/>
      <point x="174" y="676" type="qcurve" smooth="yes"/>
      <point x="233" y="676"/>
      <point x="300" y="604"/>
      <point x="312" y="527" type="qcurve"/>
      <point x="302" y="521"/>
      <point x="279" y="515"/>
      <point x="267" y="515" type="qcurve"/>
      <point x="259" y="576"/>
      <point x="215" y="632"/>
      <point x="177" y="632" type="qcurve" smooth="yes"/>
      <point x="140" y="632"/>
      <point x="100" y="586"/>
      <point x="100" y="545" type="qcurve" smooth="yes"/>
      <point x="100" y="500"/>
      <point x="142" y="436"/>
      <point x="194" y="401" type="qcurve" smooth="yes"/>
      <point x="260" y="356"/>
      <point x="307" y="283"/>
      <point x="307" y="239" type="qcurve" smooth="yes"/>
      <point x="307" y="195"/>
      <point x="259" y="128"/>
      <point x="214" y="109" type="qcurve"/>
      <point x="260" y="74"/>
      <point x="302" y="1"/>
    </contour>
  </outline>
</glyph>
<glyph name="copyright" format="1">
  <advance width="725"/>
  <unicode hex="00A9"/>
  <outline>
    <contour>
      <point x="390" y="698" type="qcurve" smooth="yes"/>
      <point x="529" y="698"/>
      <point x="680" y="511"/>
      <point x="680" y="345" type="qcurve" smooth="yes"/>
      <point x="680" y="181"/>
      <point x="506" y="-8"/>
      <point x="355" y="-8" type="qcurve" smooth="yes"/>
      <point x="217" y="-8"/>
      <point x="45" y="174"/>
      <point x="45" y="322" type="qcurve" smooth="yes"/>
      <point x="45" y="494"/>
      <point x="233" y="698"/>
    </contour>
    <contour>
      <point x="363" y="36" type="qcurve" smooth="yes"/>
      <point x="489" y="36"/>
      <point x="625" y="198"/>
      <point x="625" y="347" type="qcurve" smooth="yes"/>
      <point x="625" y="491"/>
      <point x="495" y="654"/>
      <point x="378" y="654" type="qcurve" smooth="yes"/>
      <point x="263" y="654"/>
      <point x="100" y="468"/>
      <point x="100" y="335" type="qcurve" smooth="yes"/>
      <point x="100" y="197"/>
      <point x="241" y="36"/>
    </contour>
    <contour>
      <point x="440" y="288" type="qcurve"/>
      <point x="453" y="289"/>
      <point x="473" y="285"/>
      <point x="481" y="281" type="qcurve"/>
      <point x="478" y="218"/>
      <point x="416" y="150"/>
      <point x="361" y="150" type="qcurve" smooth="yes"/>
      <point x="302" y="150"/>
      <point x="237" y="238"/>
      <point x="237" y="318" type="qcurve" smooth="yes"/>
      <point x="237" y="416"/>
      <point x="322" y="539"/>
      <point x="390" y="539" type="qcurve"/>
      <point x="437" y="539"/>
      <point x="483" y="478"/>
      <point x="482" y="418" type="qcurve"/>
      <point x="473" y="412"/>
      <point x="449" y="407"/>
      <point x="433" y="407" type="qcurve"/>
      <point x="436" y="457"/>
      <point x="411" y="503"/>
      <point x="381" y="503" type="qcurve"/>
      <point x="344" y="503"/>
      <point x="291" y="405"/>
      <point x="291" y="329" type="qcurve" smooth="yes"/>
      <point x="291" y="260"/>
      <point x="332" y="187"/>
      <point x="370" y="187" type="qcurve" smooth="yes"/>
      <point x="405" y="187"/>
      <point x="442" y="241"/>
    </contour>
  </outline>
</glyph>
<glyph name="guillemotleft" format="1">
  <advance width="448"/>
  <unicode hex="00AB"/>
  <outline>
    <contour>
      <point x="418" y="109" type="qcurve"/>
      <point x="406" y="92"/>
      <point x="390" y="76"/>
      <point x="381" y="70" type="qcurve"/>
      <point x="324" y="113"/>
      <point x="239" y="208"/>
      <point x="207" y="264" type="qcurve"/>
      <point x="250" y="290"/>
      <point x="337" y="377"/>
      <point x="375" y="433" type="qcurve"/>
      <point x="392" y="421"/>
      <point x="408" y="405"/>
      <point x="414" y="396" type="qcurve"/>
      <point x="381" y="352"/>
      <point x="308" y="280"/>
      <point x="266" y="251" type="qcurve"/>
      <point x="293" y="213"/>
      <point x="371" y="141"/>
    </contour>
    <contour>
      <point x="221" y="109" type="qcurve"/>
      <point x="209" y="92"/>
      <point x="193" y="76"/>
      <point x="184" y="70" type="qcurve"/>
      <point x="127" y="113"/>
      <point x="42" y="208"/>
      <point x="10" y="264" type="qcurve"/>
      <point x="53" y="290"/>
      <point x="140" y="377"/>
      <point x="178" y="433" type="qcurve"/>
      <point x="195" y="421"/>
      <point x="211" y="405"/>
      <point x="217" y="396" type="qcurve"/>
      <point x="184" y="352"/>
      <point x="111" y="280"/>
      <point x="69" y="251" type="qcurve"/>
      <point x="96" y="213"/>
      <point x="174" y="141"/>
    </contour>
  </outline>
</glyph>
<glyph name="logicalnot" format="1">
  <advance width="340.622776602"/>
  <unicode hex="00AC"/>
  <outline>
    <contour>
      <point x="312" y="399" type="qcurve"/>
      <point x="316" y="363"/>
      <point x="315" y="284"/>
      <point x="310" y="237" type="qcurve"/>
      <point x="299" y="237"/>
      <point x="280" y="239"/>
      <point x="268" y="242" type="qcurve"/>
      <point x="273" y="279"/>
      <point x="275" y="330"/>
      <point x="273" y="355" type="qcurve"/>
      <point x="212" y="350"/>
      <point x="86" y="352"/>
      <point x="25" y="359" type="qcurve"/>
      <point x="25" y="370"/>
      <point x="27" y="389"/>
      <point x="30" y="401" type="qcurve"/>
      <point x="98" y="393"/>
      <point x="226" y="392"/>
    </contour>
  </outline>
</glyph>
<glyph name="acute" format="1">
  <advance width="260"/>
  <unicode hex="00B4"/>
  <outline>
    <contour>
      <point x="175" y="746" type="qcurve"/>
      <point x="170" y="703"/>
      <point x="139" y="617"/>
      <point x="113" y="571" type="qcurve"/>
      <point x="102" y="572"/>
      <point x="82" y="575"/>
      <point x="72" y="578" type="qcurve"/>
      <point x="90" y="630"/>
      <point x="110" y="711"/>
      <point x="113" y="749" type="qcurve"/>
      <point x="128" y="751"/>
      <point x="163" y="749"/>
    </contour>
    <contour>
      <point x="88.0" y="560.0" type="move" name="_top"/>
    </contour>
  </outline>
</glyph>
<glyph name="paragraph" format="1">
  <advance width="626.277669544"/>
  <unicode hex="00B6"/>
  <outline>
    <contour>
      <point x="549" y="724" type="qcurve"/>
      <point x="559" y="413"/>
      <point x="549" y="4"/>
      <point x="527" y="-272" type="qcurve"/>
      <point x="516" y="-273"/>
      <point x="493" y="-274"/>
      <point x="479" y="-273" type="qcurve"/>
      <point x="503" y="104"/>
      <point x="508" y="426"/>
      <point x="494" y="693" type="qcurve"/>
      <point x="487" y="696"/>
      <point x="469" y="701"/>
      <point x="450" y="706" type="qcurve"/>
      <point x="461" y="356"/>
      <point x="450" y="-8"/>
      <point x="429" y="-272" type="qcurve"/>
      <point x="417" y="-274"/>
      <point x="391" y="-274"/>
      <point x="381" y="-273" type="qcurve"/>
      <point x="394" y="-67"/>
      <point x="403" y="152"/>
      <point x="404" y="263" type="qcurve"/>
      <point x="235" y="315"/>
      <point x="74" y="465"/>
      <point x="74" y="571" type="qcurve" smooth="yes"/>
      <point x="74" y="661"/>
      <point x="209" y="765"/>
      <point x="329" y="765" type="qcurve" smooth="yes"/>
      <point x="385" y="765"/>
      <point x="481" y="747"/>
    </contour>
  </outline>
</glyph>
<glyph name="onesuperior" format="1">
  <advance width="220"/>
  <unicode hex="00B9"/>
  <outline>
    <contour>
      <point x="138" y="277" type="qcurve"/>
      <point x="131" y="275"/>
      <point x="121" y="273"/>
      <point x="116" y="273" type="qcurve" smooth="yes"/>
      <point x="110" y="272"/>
      <point x="100" y="272"/>
      <point x="95" y="273" type="qcurve"/>
      <point x="97" y="310"/>
      <point x="102" y="371"/>
      <point x="107" y="412" type="qcurve" smooth="yes"/>
      <point x="113" y="471"/>
      <point x="135" y="596"/>
      <point x="149" y="651" type="qcurve"/>
      <point x="119" y="628"/>
      <point x="62" y="590"/>
      <point x="32" y="572" type="qcurve"/>
      <point x="21" y="581"/>
      <point x="9" y="597"/>
      <point x="4" y="608" type="qcurve"/>
      <point x="57" y="636"/>
      <point x="150" y="700"/>
      <point x="189" y="735" type="qcurve"/>
      <point x="201" y="729"/>
      <point x="214" y="720"/>
      <point x="219" y="715" type="qcurve"/>
      <point x="194" y="654"/>
      <point x="149" y="407"/>
    </contour>
  </outline>
</glyph>
<glyph name="ordmasculine" format="1">
  <advance width="222"/>
  <unicode hex="00BA"/>
  <outline>
    <contour>
      <point x="5" y="579" type="qcurve" smooth="yes"/>
      <point x="5" y="649"/>
      <point x="72" y="737"/>
      <point x="125" y="737" type="qcurve" smooth="yes"/>
      <point x="168" y="737"/>
      <point x="217" y="676"/>
      <point x="217" y="623" type="qcurve" smooth="yes"/>
      <point x="217" y="545"/>
      <point x="153" y="445"/>
      <point x="100" y="445" type="qcurve" smooth="yes"/>
      <point x="57" y="445"/>
      <point x="5" y="519"/>
    </contour>
    <contour>
      <point x="165" y="599" type="qcurve" smooth="yes"/>
      <point x="165" y="652"/>
      <point x="140" y="703"/>
      <point x="114" y="703" type="qcurve" smooth="yes"/>
      <point x="90" y="703"/>
      <point x="55" y="635"/>
      <point x="55" y="585" type="qcurve" smooth="yes"/>
      <point x="55" y="539"/>
      <point x="85" y="479"/>
      <point x="110" y="479" type="qcurve" smooth="yes"/>
      <point x="132" y="479"/>
      <point x="165" y="550"/>
    </contour>
  </outline>
</glyph>
<glyph name="AE" format="1">
  <advance width="804.313708499"/>
  <unicode hex="00C6"/>
  <outline>
    <contour>
      <point x="762" y="-18" type="qcurve"/>
      <point x="676" y="-30"/>
      <point x="525" y="-42"/>
      <point x="425" y="-45" type="qcurve"/>
      <point x="416" y="15"/>
      <point x="399" y="143"/>
      <point x="392" y="208" type="qcurve"/>
      <point x="340" y="207"/>
      <point x="238" y="197"/>
      <point x="192" y="189" type="qcurve"/>
      <point x="170" y="141"/>
      <point x="115" y="36"/>
      <point x="79" y="-25" type="qcurve"/>
      <point x="63" y="-21"/>
      <point x="40" y="-8"/>
      <point x="27" y="5" type="qcurve"/>
      <point x="130" y="169"/>
      <point x="258" y="475"/>
      <point x="315" y="698" type="qcurve"/>
      <point x="328" y="697"/>
      <point x="352" y="693"/>
      <point x="363" y="690" type="qcurve"/>
      <point x="499" y="713"/>
      <point x="653" y="729"/>
      <point x="739" y="731" type="qcurve"/>
      <point x="740" y="718"/>
      <point x="738" y="695"/>
      <point x="736" y="684" type="qcurve"/>
      <point x="654" y="683"/>
      <point x="499" y="668"/>
      <point x="417" y="653" type="qcurve"/>
      <point x="416" y="580"/>
      <point x="421" y="445"/>
      <point x="427" y="372" type="qcurve"/>
      <point x="561" y="393"/>
      <point x="646" y="404"/>
      <point x="689" y="408" type="qcurve"/>
      <point x="692" y="396"/>
      <point x="694" y="374"/>
      <point x="693" y="363" type="qcurve"/>
      <point x="617" y="357"/>
      <point x="507" y="343"/>
      <point x="431" y="329" type="qcurve"/>
      <point x="439" y="245"/>
      <point x="460" y="78"/>
      <point x="472" y="0" type="qcurve"/>
      <point x="567" y="3"/>
      <point x="695" y="18"/>
      <point x="760" y="32" type="qcurve"/>
      <point x="763" y="21"/>
      <point x="764" y="-8"/>
    </contour>
    <contour>
      <point x="358" y="654" type="qcurve"/>
      <point x="324" y="526"/>
      <point x="255" y="327"/>
      <point x="214" y="235" type="qcurve"/>
      <point x="253" y="242"/>
      <point x="341" y="251"/>
      <point x="387" y="253" type="qcurve"/>
      <point x="375" y="364"/>
      <point x="360" y="570"/>
    </contour>
  </outline>
</glyph>
<glyph name="Eth" format="1">
  <advance width="566"/>
  <unicode hex="00D0"/>
  <outline>
    <contour>
      <point x="125" y="349" type="qcurve"/>
      <point x="125" y="321"/>
      <point x="125" y="264"/>
      <point x="125" y="236" type="qcurve" smooth="yes"/>
      <point x="125" y="170"/>
      <point x="127" y="78"/>
      <point x="129" y="35" type="qcurve"/>
      <point x="293" y="96"/>
      <point x="461" y="305"/>
      <point x="461" y="448" type="qcurve" smooth="yes"/>
      <point x="461" y="557"/>
      <point x="346" y="670"/>
      <point x="234" y="670" type="qcurve" smooth="yes"/>
      <point x="207" y="670"/>
      <point x="156" y="662"/>
      <point x="134" y="654" type="qcurve"/>
      <point x="129" y="577"/>
      <point x="125" y="455"/>
      <point x="125" y="392" type="qcurve"/>
      <point x="161" y="393"/>
      <point x="239" y="401"/>
      <point x="290" y="410" type="qcurve"/>
      <point x="291" y="401"/>
      <point x="290" y="378"/>
      <point x="288" y="365" type="qcurve"/>
      <point x="246" y="358"/>
      <point x="165" y="350"/>
    </contour>
    <contour>
      <point x="522" y="445" type="qcurve" smooth="yes"/>
      <point x="522" y="292"/>
      <point x="313" y="47"/>
      <point x="131" y="-12" type="qcurve"/>
      <point x="131" y="-12"/>
      <point x="124" y="-11"/>
      <point x="113" y="-9" type="qcurve" smooth="yes"/>
      <point x="94" y="-7"/>
      <point x="82" y="-5"/>
      <point x="81" y="-5" type="qcurve"/>
      <point x="77" y="83"/>
      <point x="71" y="250"/>
      <point x="69" y="349" type="qcurve"/>
      <point x="46" y="350"/>
      <point x="-2" y="353"/>
      <point x="-27" y="355" type="qcurve"/>
      <point x="-27" y="377"/>
      <point x="-26" y="393"/>
      <point x="-25" y="400" type="qcurve"/>
      <point x="-2" y="397"/>
      <point x="44" y="394"/>
      <point x="69" y="393" type="qcurve"/>
      <point x="68" y="413"/>
      <point x="68" y="460"/>
      <point x="68" y="508" type="qcurve" smooth="yes"/>
      <point x="68" y="550"/>
      <point x="70" y="643"/>
      <point x="71" y="678" type="qcurve"/>
      <point x="111" y="697"/>
      <point x="196" y="717"/>
      <point x="234" y="717" type="qcurve" smooth="yes"/>
      <point x="377" y="717"/>
      <point x="522" y="580"/>
    </contour>
  </outline>
</glyph>
<glyph name="Thorn" format="1">
  <advance width="520"/>
  <unicode hex="00DE"/>
  <outline>
    <contour>
      <point x="122" y="103" type="qcurve"/>
      <point x="124" y="68"/>
      <point x="130" y="-13"/>
      <point x="134" y="-68" type="qcurve"/>
      <point x="121" y="-70"/>
      <point x="92" y="-70"/>
      <point x="84" y="-67" type="qcurve"/>
      <point x="71" y="94"/>
      <point x="61" y="328"/>
      <point x="61" y="538" type="qcurve" smooth="yes"/>
      <point x="61" y="576"/>
      <point x="65" y="686"/>
      <point x="68" y="721" type="qcurve"/>
      <point x="85" y="722"/>
      <point x="117" y="716"/>
      <point x="133" y="709" type="qcurve"/>
      <point x="132" y="696"/>
      <point x="127" y="639"/>
      <point x="123" y="596" type="qcurve"/>
      <point x="155" y="602"/>
      <point x="211" y="607"/>
      <point x="239" y="607" type="qcurve" smooth="yes"/>
      <point x="361" y="607"/>
      <point x="494" y="504"/>
      <point x="494" y="412" type="qcurve" smooth="yes"/>
      <point x="494" y="310"/>
      <point x="315" y="161"/>
    </contour>
    <contour>
      <point x="120" y="546" type="qcurve"/>
      <point x="117" y="501"/>
      <point x="115" y="411"/>
      <point x="115" y="357" type="qcurve" smooth="yes"/>
      <point x="115" y="307"/>
      <point x="117" y="210"/>
      <point x="120" y="150" type="qcurve"/>
      <point x="276" y="192"/>
      <point x="434" y="321"/>
      <point x="434" y="407" type="qcurve" smooth="yes"/>
      <point x="434" y="483"/>
      <point x="337" y="563"/>
      <point x="244" y="563" type="qcurve" smooth="yes"/>
      <point x="206" y="563"/>
      <point x="146" y="555"/>
    </contour>
  </outline>
</glyph>
<glyph name="germandbls" format="1">
  <advance width="537"/>
  <unicode hex="00DF"/>
  <outline>
    <contour>
      <point x="514" y="115" type="qcurve" smooth="yes"/>
      <point x="514" y="47"/>
      <point x="439" y="-40"/>
      <point x="378" y="-40" type="qcurve" smooth="yes"/>
      <point x="310" y="-40"/>
      <point x="226" y="64"/>
      <point x="226" y="149" type="qcurve"/>
      <point x="241" y="153"/>
      <point x="265" y="156"/>
      <point x="278" y="155" type="qcurve"/>
      <point x="276" y="84"/>
      <point x="330" y="4"/>
      <point x="380" y="4" type="qcurve" smooth="yes"/>
      <point x="418" y="4"/>
      <point x="459" y="57"/>
      <point x="459" y="104" type="qcurve" smooth="yes"/>
      <point x="459" y="140"/>
      <point x="419" y="198"/>
      <point x="353" y="240" type="qcurve" smooth="yes"/>
      <point x="286" y="282"/>
      <point x="245" y="342"/>
      <point x="245" y="379" type="qcurve" smooth="yes"/>
      <point x="245" y="413"/>
      <point x="269" y="468"/>
      <point x="298" y="498" type="qcurve" smooth="yes"/>
      <point x="323" y="524"/>
      <point x="339" y="566"/>
      <point x="339" y="599" type="qcurve" smooth="yes"/>
      <point x="339" y="636"/>
      <point x="298" y="682"/>
      <point x="264" y="682" type="qcurve" smooth="yes"/>
      <point x="204" y="682"/>
      <point x="139" y="562"/>
      <point x="139" y="448" type="qcurve" smooth="yes"/>
      <point x="139" y="313"/>
      <point x="161" y="83"/>
      <point x="183" y="-9" type="qcurve"/>
      <point x="165" y="-15"/>
      <point x="138" y="-21"/>
      <point x="127" y="-21" type="qcurve"/>
      <point x="114" y="39"/>
      <point x="89" y="288"/>
      <point x="88" y="391" type="qcurve"/>
      <point x="69" y="394"/>
      <point x="37" y="403"/>
      <point x="26" y="407" type="qcurve"/>
      <point x="26" y="419"/>
      <point x="29" y="439"/>
      <point x="32" y="442" type="qcurve"/>
      <point x="43" y="440"/>
      <point x="68" y="437"/>
      <point x="88" y="435" type="qcurve"/>
      <point x="93" y="581"/>
      <point x="180" y="727"/>
      <point x="264" y="727" type="qcurve" smooth="yes"/>
      <point x="322" y="727"/>
      <point x="390" y="652"/>
      <point x="390" y="592" type="qcurve" smooth="yes"/>
      <point x="390" y="564"/>
      <point x="367" y="517"/>
      <point x="339" y="490" type="qcurve" smooth="yes"/>
      <point x="315" y="466"/>
      <point x="296" y="424"/>
      <point x="296" y="397" type="qcurve" smooth="yes"/>
      <point x="296" y="364"/>
      <point x="334" y="311"/>
      <point x="397" y="272" type="qcurve" smooth="yes"/>
      <point x="469" y="228"/>
      <point x="514" y="159"/>
    </contour>
  </outline>
</glyph>
<glyph name="ccedilla" format="1">
  <advance width="408"/>
  <unicode hex="00E7"/>
  <outline>
    <contour>
      <point x="300" y="-135" type="qcurve" smooth="yes"/>
      <point x="300" y="-178"/>
      <point x="241" y="-228"/>
      <point x="192" y="-228" type="qcurve" smooth="yes"/>
      <point x="155" y="-228"/>
      <point x="105" y="-191"/>
      <point x="91" y="-154" type="qcurve"/>
      <point x="96" y="-151"/>
      <point x="116" y="-138"/>
      <point x="131" y="-132" type="qcurve"/>
      <point x="139" y="-156"/>
      <point x="170" y="-184"/>
      <point x="190" y="-184" type="qcurve" smooth="yes"/>
      <point x="213" y="-184"/>
      <point x="240" y="-159"/>
      <point x="240" y="-138" type="qcurve" smooth="yes"/>
      <point x="240" y="-120"/>
      <point x="214" y="-96"/>
      <point x="193" y="-96" type="qcurve" smooth="yes"/>
      <point x="185" y="-96"/>
      <point x="168" y="-100"/>
      <point x="159" y="-105" type="qcurve"/>
      <point x="151" y="-99"/>
      <point x="135" y="-83"/>
      <point x="132" y="-78" type="qcurve"/>
      <point x="142" y="-63"/>
      <point x="155" y="-36"/>
      <point x="159" y="-22" type="qcurve"/>
      <point x="95" y="-12"/>
      <point x="28" y="103"/>
      <point x="28" y="200" type="qcurve" smooth="yes"/>
      <point x="28" y="349"/>
      <point x="140" y="543"/>
      <point x="226" y="543" type="qcurve" smooth="yes"/>
      <point x="292" y="543"/>
      <point x="366" y="451"/>
      <point x="366" y="370" type="qcurve"/>
      <point x="352" y="363"/>
      <point x="323" y="357"/>
      <point x="307" y="357" type="qcurve"/>
      <point x="307" y="427"/>
      <point x="267" y="498"/>
      <point x="228" y="498" type="qcurve" smooth="yes"/>
      <point x="168" y="498"/>
      <point x="82" y="320"/>
      <point x="82" y="205" type="qcurve" smooth="yes"/>
      <point x="82" y="119"/>
      <point x="141" y="21"/>
      <point x="195" y="21" type="qcurve" smooth="yes"/>
      <point x="235" y="21"/>
      <point x="302" y="86"/>
      <point x="326" y="148" type="qcurve"/>
      <point x="338" y="143"/>
      <point x="357" y="131"/>
      <point x="364" y="122" type="qcurve"/>
      <point x="350" y="67"/>
      <point x="262" y="-15"/>
      <point x="209" y="-22" type="qcurve"/>
      <point x="207" y="-31"/>
      <point x="200" y="-50"/>
      <point x="194" y="-60" type="qcurve"/>
      <point x="204" y="-59"/>
      <point x="211" y="-58"/>
      <point x="214" y="-58" type="qcurve" smooth="yes"/>
      <point x="252" y="-58"/>
      <point x="300" y="-101"/>
    </contour>
  </outline>
</glyph>
<glyph name="eogonek" format="1">
  <advance width="416"/>
  <unicode hex="0119"/>
  <outline>
    <contour>
      <point x="97" y="309" type="qcurve"/>
      <point x="128" y="296"/>
      <point x="200" y="284"/>
      <point x="247" y="284" type="qcurve" smooth="yes"/>
      <point x="259" y="284"/>
      <point x="286" y="287"/>
      <point x="292" y="289" type="qcurve"/>
      <point x="299" y="318"/>
      <point x="307" y="368"/>
      <point x="307" y="389" type="qcurve" smooth="yes"/>
      <point x="307" y="437"/>
      <point x="275" y="478"/>
      <point x="239" y="478" type="qcurve" smooth="yes"/>
      <point x="193" y="478"/>
      <point x="115" y="384"/>
    </contour>
    <contour>
      <point x="346" y="-73" type="qcurve"/>
      <point x="354" y="-79"/>
      <point x="364" y="-96"/>
      <point x="369" y="-109" type="qcurve"/>
      <point x="352" y="-135"/>
      <point x="305" y="-162"/>
      <point x="275" y="-162" type="qcurve" smooth="yes"/>
      <point x="240" y="-162"/>
      <point x="196" y="-119"/>
      <point x="196" y="-83" type="qcurve" smooth="yes"/>
      <point x="196" y="-63"/>
      <point x="209" y="-26"/>
      <point x="223" y="-8" type="qcurve"/>
      <point x="212" y="-9"/>
      <point x="201" y="-10"/>
      <point x="196" y="-10" type="qcurve" smooth="yes"/>
      <point x="119" y="-10"/>
      <point x="31" y="118"/>
      <point x="31" y="225" type="qcurve" smooth="yes"/>
      <point x="31" y="339"/>
      <point x="156" y="524"/>
      <point x="244" y="524" type="qcurve" smooth="yes"/>
      <point x="299" y="524"/>
      <point x="362" y="451"/>
      <point x="362" y="388" type="qcurve" smooth="yes"/>
      <point x="362" y="353"/>
      <point x="349" y="285"/>
      <point x="337" y="255" type="qcurve"/>
      <point x="318" y="249"/>
      <point x="266" y="243"/>
      <point x="230" y="243" type="qcurve" smooth="yes"/>
      <point x="195" y="243"/>
      <point x="123" y="256"/>
      <point x="89" y="268" type="qcurve"/>
      <point x="88" y="256"/>
      <point x="86" y="232"/>
      <point x="86" y="221" type="qcurve" smooth="yes"/>
      <point x="86" y="138"/>
      <point x="145" y="35"/>
      <point x="195" y="35" type="qcurve" smooth="yes"/>
      <point x="239" y="35"/>
      <point x="324" y="112"/>
      <point x="339" y="167" type="qcurve"/>
      <point x="351" y="165"/>
      <point x="376" y="151"/>
      <point x="385" y="141" type="qcurve"/>
      <point x="371" y="105"/>
      <point x="334" y="54"/>
      <point x="304" y="31" type="qcurve" smooth="yes"/>
      <point x="279" y="11"/>
      <point x="251" y="-42"/>
      <point x="251" y="-71" type="qcurve" smooth="yes"/>
      <point x="251" y="-91"/>
      <point x="272" y="-118"/>
      <point x="287" y="-118" type="qcurve" smooth="yes"/>
      <point x="305" y="-118"/>
      <point x="334" y="-96"/>
    </contour>
  </outline>
</glyph>
<glyph name="lslash" format="1">
  <advance width="182"/>
  <unicode hex="0142"/>
  <outline>
    <contour>
      <point x="118" y="-55" type="qcurve"/>
      <point x="111" y="-57"/>
      <point x="78" y="-61"/>
      <point x="68" y="-61" type="qcurve"/>
      <point x="62" y="23"/>
      <point x="54" y="181"/>
      <point x="52" y="261" type="qcurve"/>
      <point x="20" y="238"/>
      <point x="-14" y="214"/>
      <point x="-29" y="203" type="qcurve"/>
      <point x="-38" y="210"/>
      <point x="-52" y="230"/>
      <point x="-60" y="246" type="qcurve"/>
      <point x="-30" y="265"/>
      <point x="25" y="303"/>
      <point x="51" y="323" type="qcurve"/>
      <point x="50" y="429"/>
      <point x="56" y="629"/>
      <point x="62" y="734" type="qcurve"/>
      <point x="69" y="738"/>
      <point x="87" y="742"/>
      <point x="95" y="742" type="qcurve" smooth="yes"/>
      <point x="103" y="742"/>
      <point x="118" y="740"/>
      <point x="125" y="738" type="qcurve"/>
      <point x="116" y="657"/>
      <point x="107" y="470"/>
      <point x="106" y="365" type="qcurve"/>
      <point x="137" y="391"/>
      <point x="176" y="423"/>
      <point x="192" y="438" type="qcurve"/>
      <point x="202" y="430"/>
      <point x="216" y="413"/>
      <point x="224" y="400" type="qcurve"/>
      <point x="198" y="376"/>
      <point x="141" y="328"/>
      <point x="106" y="301" type="qcurve"/>
      <point x="106" y="212"/>
      <point x="112" y="33"/>
    </contour>
  </outline>
</glyph>
<glyph name="breve" format="1">
  <advance width="260.224371179"/>
  <unicode hex="02D8"/>
  <outline>
    <contour>
      <point x="44" y="661" type="qcurve" smooth="yes"/>
      <point x="34" y="676"/>
      <point x="26" y="706"/>
      <point x="26" y="727" type="qcurve"/>
      <point x="38" y="731"/>
      <point x="65" y="735"/>
      <point x="76" y="734" type="qcurve"/>
      <point x="72" y="696"/>
      <point x="100" y="663"/>
      <point x="135" y="663" type="qcurve" smooth="yes"/>
      <point x="168" y="663"/>
      <point x="194" y="702"/>
      <point x="184" y="736" type="qcurve"/>
      <point x="194" y="739"/>
      <point x="220" y="739"/>
      <point x="233" y="737" type="qcurve"/>
      <point x="236" y="712"/>
      <point x="229" y="671"/>
      <point x="220" y="655" type="qcurve" smooth="yes"/>
      <point x="208" y="637"/>
      <point x="165" y="619"/>
      <point x="134" y="619" type="qcurve" smooth="yes"/>
      <point x="104" y="619"/>
      <point x="59" y="640"/>
    </contour>
    <contour>
      <point x="137.0" y="560.0" type="move" name="_top"/>
    </contour>
  </outline>
</glyph>
<glyph name="dotaccent" format="1">
  <advance width="261"/>
  <unicode hex="02D9"/>
  <outline>
    <contour>
      <point x="156" y="744" type="qcurve" smooth="yes"/>
      <point x="167" y="743"/>
      <point x="182" y="739"/>
      <point x="190" y="734" type="qcurve"/>
      <point x="178" y="709"/>
      <point x="159" y="652"/>
      <point x="153" y="626" type="qcurve"/>
      <point x="146" y="625"/>
      <point x="121" y="625"/>
      <point x="109" y="626" type="qcurve"/>
      <point x="108" y="630"/>
      <point x="108" y="639"/>
      <point x="108" y="648" type="qcurve" smooth="yes"/>
      <point x="108" y="671"/>
      <point x="118" y="723"/>
      <point x="126" y="740" type="qcurve"/>
      <point x="135" y="743"/>
      <point x="147" y="745"/>
    </contour>
    <contour>
      <point x="130.0" y="560.0" type="move" name="_top"/>
    </contour>
  </outline>
</glyph>
<glyph name="bn_bisarga" format="1">
  <advance width="433"/>
  <unicode hex="0983"/>
  <outline>
    <contour>
      <point x="230" y="599" type="qcurve" smooth="yes"/>
      <point x="288" y="599"/>
      <point x="363" y="529"/>
      <point x="363" y="474" type="qcurve" smooth="yes"/>
      <point x="363" y="415"/>
      <point x="276" y="330"/>
      <point x="215" y="330" type="qcurve" smooth="yes"/>
      <point x="159" y="330"/>
      <point x="85" y="401"/>
      <point x="85" y="456" type="qcurve" smooth="yes"/>
      <point x="85" y="516"/>
      <point x="169" y="599"/>
    </contour>
    <contour>
      <point x="215" y="556" type="qcurve" smooth="yes"/>
      <point x="176" y="556"/>
      <point x="131" y="511"/>
      <point x="131" y="472" type="qcurve" smooth="yes"/>
      <point x="131" y="427"/>
      <point x="185" y="373"/>
      <point x="229" y="373" type="qcurve" smooth="yes"/>
      <point x="269" y="373"/>
      <point x="317" y="421"/>
      <point x="317" y="461" type="qcurve" smooth="yes"/>
      <point x="317" y="504"/>
      <point x="261" y="556"/>
    </contour>
    <contour>
      <point x="227" y="266" type="qcurve" smooth="yes"/>
      <point x="283" y="266"/>
      <point x="357" y="194"/>
      <point x="357" y="140" type="qcurve" smooth="yes"/>
      <point x="357" y="83"/>
      <point x="276" y="5"/>
      <point x="218" y="5" type="qcurve" smooth="yes"/>
      <point x="163" y="5"/>
      <point x="90" y="76"/>
      <point x="90" y="130" type="qcurve" smooth="yes"/>
      <point x="90" y="187"/>
      <point x="169" y="266"/>
    </contour>
    <contour>
      <point x="216" y="221" type="qcurve" smooth="yes"/>
      <point x="179" y="221"/>
      <point x="135" y="179"/>
      <point x="135" y="143" type="qcurve" smooth="yes"/>
      <point x="135" y="102"/>
      <point x="189" y="50"/>
      <point x="232" y="50" type="qcurve" smooth="yes"/>
      <point x="269" y="50"/>
      <point x="312" y="91"/>
      <point x="312" y="127" type="qcurve" smooth="yes"/>
      <point x="312" y="168"/>
      <point x="259" y="221"/>
    </contour>
  </outline>
</glyph>
<glyph name="bn_i" format="1">
  <advance width="442"/>
  <unicode hex="0987"/>
  <outline>
    <contour>
      <point x="445" y="561" type="qcurve" smooth="yes"/>
      <point x="445" y="554"/>
      <point x="443" y="540"/>
      <point x="442" y="535" type="qcurve"/>
      <point x="401" y="546"/>
      <point x="277" y="561"/>
      <point x="224" y="561" type="qcurve" smooth="yes"/>
      <point x="174" y="561"/>
      <point x="51" y="546"/>
      <point x="0" y="535" type="qcurve"/>
      <point x="-3" y="541"/>
      <point x="-6" y="554"/>
      <point x="-6" y="560" type="qcurve" smooth="yes"/>
      <point x="-6" y="567"/>
      <point x="-3" y="577"/>
      <point x="0" y="581" type="qcurve"/>
      <point x="45" y="594"/>
      <point x="172" y="611"/>
      <point x="225" y="611" type="qcurve" smooth="yes"/>
      <point x="269" y="611"/>
      <point x="367" y="600"/>
      <point x="405" y="591" type="qcurve"/>
      <point x="393" y="643"/>
      <point x="343" y="697"/>
      <point x="305" y="697" type="qcurve" smooth="yes"/>
      <point x="287" y="697"/>
      <point x="247" y="692"/>
      <point x="210" y="684" type="qcurve" smooth="yes"/>
      <point x="176" y="677"/>
      <point x="141" y="672"/>
      <point x="126" y="672" type="qcurve" smooth="yes"/>
      <point x="79" y="672"/>
      <point x="8" y="719"/>
      <point x="-21" y="770" type="qcurve"/>
      <point x="-14" y="779"/>
      <point x="6" y="795"/>
      <point x="16" y="799" type="qcurve"/>
      <point x="44" y="754"/>
      <point x="96" y="718"/>
      <point x="128" y="718" type="qcurve" smooth="yes"/>
      <point x="140" y="718"/>
      <point x="170" y="722"/>
      <point x="203" y="729" type="qcurve" smooth="yes"/>
      <point x="243" y="738"/>
      <point x="284" y="743"/>
      <point x="302" y="743" type="qcurve" smooth="yes"/>
      <point x="358" y="743"/>
      <point x="432" y="657"/>
      <point x="442" y="581" type="qcurve"/>
      <point x="444" y="578"/>
      <point x="445" y="570"/>
    </contour>
    <contour>
      <point x="464" y="-77" type="qcurve"/>
      <point x="458" y="-86"/>
      <point x="443" y="-106"/>
      <point x="432" y="-118" type="qcurve"/>
      <point x="344" y="-20"/>
      <point x="160" y="104"/>
      <point x="54" y="137" type="qcurve"/>
      <point x="34" y="207" type="line"/>
      <point x="82" y="189"/>
      <point x="164" y="171"/>
      <point x="199" y="171" type="qcurve" smooth="yes"/>
      <point x="260" y="171"/>
      <point x="328" y="229"/>
      <point x="328" y="281" type="qcurve" smooth="yes"/>
      <point x="328" y="347"/>
      <point x="233" y="457"/>
      <point x="175" y="457" type="qcurve" smooth="yes"/>
      <point x="147" y="457"/>
      <point x="115" y="430"/>
      <point x="115" y="407" type="qcurve" smooth="yes"/>
      <point x="115" y="387"/>
      <point x="141" y="344"/>
      <point x="170" y="317" type="qcurve"/>
      <point x="159" y="312"/>
      <point x="126" y="307"/>
      <point x="113" y="308" type="qcurve"/>
      <point x="91" y="334"/>
      <point x="70" y="383"/>
      <point x="70" y="408" type="qcurve" smooth="yes"/>
      <point x="70" y="449"/>
      <point x="125" y="498"/>
      <point x="171" y="498" type="qcurve" smooth="yes"/>
      <point x="251" y="498"/>
      <point x="376" y="358"/>
      <point x="376" y="270" type="qcurve" smooth="yes"/>
      <point x="376" y="200"/>
      <point x="285" y="122"/>
      <point x="204" y="122" type="qcurve"/>
      <point x="272" y="85"/>
      <point x="403" y="-15"/>
    </contour>
    <contour>
      <point x="185" y="775" type="move" name="chandrabindu"/>
    </contour>
  </outline>
</glyph>
<glyph name="bn_uu" format="1">
  <advance width="610"/>
  <unicode hex="098A"/>
  <outline>
    <contour>
      <point x="589" y="205" type="qcurve" smooth="yes"/>
      <point x="589" y="98"/>
      <point x="481" y="-23"/>
      <point x="384" y="-23" type="qcurve" smooth="yes"/>
      <point x="260" y="-23"/>
      <point x="72" y="181"/>
      <point x="5" y="391" type="qcurve"/>
      <point x="13" y="397"/>
      <point x="33" y="409"/>
      <point x="46" y="415" type="qcurve"/>
      <point x="95" y="249"/>
      <point x="212" y="66"/>
      <point x="292" y="33" type="qcurve"/>
      <point x="230" y="78"/>
      <point x="134" y="267"/>
      <point x="91" y="437" type="qcurve"/>
      <point x="99" y="443"/>
      <point x="119" y="455"/>
      <point x="132" y="461" type="qcurve"/>
      <point x="186" y="236"/>
      <point x="311" y="38"/>
      <point x="402" y="38" type="qcurve" smooth="yes"/>
      <point x="470" y="38"/>
      <point x="543" y="134"/>
      <point x="543" y="224" type="qcurve" smooth="yes"/>
      <point x="543" y="255"/>
      <point x="534" y="321"/>
      <point x="525" y="352" type="qcurve"/>
      <point x="479" y="296"/>
      <point x="415" y="253"/>
      <point x="382" y="253" type="qcurve" smooth="yes"/>
      <point x="337" y="253"/>
      <point x="276" y="327"/>
      <point x="276" y="380" type="qcurve" smooth="yes"/>
      <point x="276" y="406"/>
      <point x="293" y="493"/>
      <point x="312" y="563" type="qcurve"/>
      <point x="310" y="563"/>
      <point x="306" y="563"/>
      <point x="304" y="563" type="qcurve" smooth="yes"/>
      <point x="219" y="563"/>
      <point x="71" y="550"/>
      <point x="-1" y="535" type="qcurve"/>
      <point x="-4" y="540"/>
      <point x="-6" y="551"/>
      <point x="-6" y="559" type="qcurve" smooth="yes"/>
      <point x="-6" y="566"/>
      <point x="-4" y="577"/>
      <point x="-1" y="581" type="qcurve"/>
      <point x="68" y="597"/>
      <point x="218" y="613"/>
      <point x="304" y="613" type="qcurve" smooth="yes"/>
      <point x="379" y="613"/>
      <point x="512" y="601"/>
      <point x="573" y="589" type="qcurve"/>
      <point x="561" y="643"/>
      <point x="511" y="697"/>
      <point x="473" y="697" type="qcurve" smooth="yes"/>
      <point x="452" y="697"/>
      <point x="402" y="692"/>
      <point x="355" y="684" type="qcurve" smooth="yes"/>
      <point x="310" y="677"/>
      <point x="266" y="672"/>
      <point x="248" y="672" type="qcurve" smooth="yes"/>
      <point x="197" y="672"/>
      <point x="122" y="718"/>
      <point x="93" y="770" type="qcurve"/>
      <point x="100" y="779"/>
      <point x="120" y="795"/>
      <point x="130" y="799" type="qcurve"/>
      <point x="158" y="754"/>
      <point x="214" y="718"/>
      <point x="250" y="718" type="qcurve" smooth="yes"/>
      <point x="264" y="718"/>
      <point x="302" y="722"/>
      <point x="345" y="729" type="qcurve" smooth="yes"/>
      <point x="397" y="738"/>
      <point x="449" y="743"/>
      <point x="470" y="743" type="qcurve" smooth="yes"/>
      <point x="526" y="743"/>
      <point x="600" y="657"/>
      <point x="610" y="581" type="qcurve"/>
      <point x="612" y="572"/>
      <point x="614" y="563"/>
      <point x="614" y="558" type="qcurve" smooth="yes"/>
      <point x="614" y="552"/>
      <point x="612" y="539"/>
      <point x="610" y="535" type="qcurve"/>
      <point x="554" y="547"/>
      <point x="432" y="560"/>
      <point x="363" y="562" type="qcurve"/>
      <point x="334" y="462"/>
      <point x="321" y="394"/>
      <point x="321" y="371" type="qcurve" smooth="yes"/>
      <point x="321" y="338"/>
      <point x="349" y="300"/>
      <point x="373" y="300" type="qcurve" smooth="yes"/>
      <point x="397" y="300"/>
      <point x="453" y="344"/>
      <point x="511" y="414" type="qcurve"/>
      <point x="518" y="413"/>
      <point x="536" y="404"/>
      <point x="544" y="399" type="qcurve"/>
      <point x="565" y="357"/>
      <point x="589" y="255"/>
    </contour>
    <contour>
      <point x="301" y="775" type="move" name="chandrabindu"/>
    </contour>
  </outline>
</glyph>
<glyph name="bn_ri" format="1">
  <advance width="655"/>
  <unicode hex="098B"/>
  <outline>
    <contour>
      <point x="362" y="52" type="qcurve"/>
      <point x="362" y="61" type="line" smooth="yes"/>
      <point x="362" y="156"/>
      <point x="372" y="333"/>
      <point x="382" y="411" type="qcurve"/>
      <point x="325" y="386"/>
      <point x="198" y="308"/>
      <point x="154" y="270" type="qcurve"/>
      <point x="224" y="236"/>
      <point x="329" y="126"/>
    </contour>
    <contour>
      <point x="404" y="56" type="qcurve" smooth="yes"/>
      <point x="404" y="26"/>
      <point x="404" y="-2"/>
      <point x="405" y="-13" type="qcurve"/>
      <point x="399" y="-15"/>
      <point x="382" y="-17"/>
      <point x="363" y="-17" type="qcurve"/>
      <point x="319" y="83"/>
      <point x="197" y="205"/>
      <point x="117" y="228" type="qcurve"/>
      <point x="106" y="241"/>
      <point x="96" y="268"/>
      <point x="95" y="289" type="qcurve"/>
      <point x="132" y="327"/>
      <point x="263" y="413"/>
      <point x="336" y="448" type="qcurve"/>
      <point x="334" y="467"/>
      <point x="313" y="501"/>
      <point x="295" y="517" type="qcurve"/>
      <point x="266" y="477"/>
      <point x="186" y="430"/>
      <point x="145" y="430" type="qcurve" smooth="yes"/>
      <point x="99" y="430"/>
      <point x="42" y="486"/>
      <point x="42" y="533" type="qcurve" smooth="yes"/>
      <point x="42" y="549"/>
      <point x="49" y="578"/>
      <point x="55" y="589" type="qcurve"/>
      <point x="67" y="594"/>
      <point x="98" y="599"/>
      <point x="112" y="598" type="qcurve"/>
      <point x="104" y="587"/>
      <point x="94" y="554"/>
      <point x="94" y="537" type="qcurve" smooth="yes"/>
      <point x="94" y="510"/>
      <point x="121" y="483"/>
      <point x="147" y="483" type="qcurve" smooth="yes"/>
      <point x="182" y="483"/>
      <point x="253" y="526"/>
      <point x="279" y="564" type="qcurve"/>
      <point x="315" y="547" type="line"/>
      <point x="333" y="534"/>
      <point x="362" y="488"/>
      <point x="368" y="462" type="qcurve"/>
      <point x="373" y="464"/>
      <point x="384" y="469"/>
      <point x="389" y="471" type="qcurve"/>
      <point x="391" y="494"/>
      <point x="399" y="543"/>
      <point x="410" y="595" type="qcurve"/>
      <point x="424" y="595"/>
      <point x="450" y="588"/>
      <point x="460" y="582" type="qcurve"/>
      <point x="438" y="498"/>
      <point x="412" y="331"/>
      <point x="408" y="240" type="qcurve"/>
      <point x="449" y="213"/>
      <point x="517" y="142"/>
      <point x="544" y="98" type="qcurve"/>
      <point x="538" y="139"/>
      <point x="532" y="236"/>
      <point x="532" y="287" type="qcurve" smooth="yes"/>
      <point x="532" y="374"/>
      <point x="551" y="521"/>
      <point x="570" y="585" type="qcurve"/>
      <point x="581" y="585"/>
      <point x="603" y="581"/>
      <point x="612" y="577" type="qcurve"/>
      <point x="594" y="519"/>
      <point x="573" y="372"/>
      <point x="573" y="294" type="qcurve" smooth="yes"/>
      <point x="573" y="209"/>
      <point x="596" y="62"/>
      <point x="619" y="5" type="qcurve"/>
      <point x="609" y="-1"/>
      <point x="584" y="-7"/>
      <point x="570" y="-6" type="qcurve"/>
      <point x="535" y="63"/>
      <point x="454" y="161"/>
      <point x="406" y="191" type="qcurve"/>
      <point x="405" y="168"/>
      <point x="404" y="112"/>
    </contour>
    <contour>
      <point x="354" y="690" type="move" name="chandrabindu"/>
    </contour>
  </outline>
</glyph>
<glyph name="bn_au" format="1">
  <advance width="710"/>
  <unicode hex="0994"/>
  <outline>
    <contour>
      <point x="597" y="162" type="qcurve" smooth="yes"/>
      <point x="597" y="83"/>
      <point x="499" y="-17"/>
      <point x="417" y="-17" type="qcurve" smooth="yes"/>
      <point x="286" y="-17"/>
      <point x="90" y="257"/>
      <point x="22" y="543" type="qcurve"/>
      <point x="31" y="551"/>
      <point x="51" y="563"/>
      <point x="63" y="569" type="qcurve"/>
      <point x="127" y="299"/>
      <point x="303" y="37"/>
      <point x="420" y="37" type="qcurve" smooth="yes"/>
      <point x="482" y="37"/>
      <point x="550" y="107"/>
      <point x="550" y="172" type="qcurve" smooth="yes"/>
      <point x="550" y="203"/>
      <point x="534" y="255"/>
      <point x="519" y="276" type="qcurve"/>
      <point x="496" y="248"/>
      <point x="446" y="220"/>
      <point x="419" y="220" type="qcurve" smooth="yes"/>
      <point x="382" y="220"/>
      <point x="332" y="271"/>
      <point x="332" y="310" type="qcurve" smooth="yes"/>
      <point x="332" y="349"/>
      <point x="381" y="402"/>
      <point x="419" y="402" type="qcurve" smooth="yes"/>
      <point x="443" y="402"/>
      <point x="492" y="378"/>
      <point x="509" y="358" type="qcurve"/>
      <point x="526" y="386"/>
      <point x="544" y="446"/>
      <point x="544" y="475" type="qcurve" smooth="yes"/>
      <point x="544" y="528"/>
      <point x="486" y="585"/>
      <point x="432" y="585" type="qcurve" smooth="yes"/>
      <point x="363" y="585"/>
      <point x="273" y="497"/>
      <point x="273" y="431" type="qcurve" smooth="yes"/>
      <point x="273" y="419"/>
      <point x="276" y="395"/>
      <point x="278" y="386" type="qcurve"/>
      <point x="264" y="386"/>
      <point x="228" y="402"/>
      <point x="220" y="412" type="qcurve"/>
      <point x="219" y="508"/>
      <point x="329" y="627"/>
      <point x="418" y="627" type="qcurve" smooth="yes"/>
      <point x="495" y="627"/>
      <point x="591" y="538"/>
      <point x="591" y="465" type="qcurve"/>
      <point x="614" y="488"/>
      <point x="642" y="550"/>
      <point x="642" y="581" type="qcurve" smooth="yes"/>
      <point x="642" y="622"/>
      <point x="584" y="666"/>
      <point x="484" y="686" type="qcurve" smooth="yes"/>
      <point x="421" y="698"/>
      <point x="368" y="715"/>
      <point x="351" y="726" type="qcurve" smooth="yes"/>
      <point x="324" y="742"/>
      <point x="293" y="798"/>
      <point x="285" y="843" type="qcurve"/>
      <point x="295" y="847"/>
      <point x="319" y="853"/>
      <point x="329" y="854" type="qcurve"/>
      <point x="340" y="798"/>
      <point x="392" y="751"/>
      <point x="460" y="738" type="qcurve"/>
      <point x="524" y="725" type="line" smooth="yes"/>
      <point x="602" y="709"/>
      <point x="678" y="635"/>
      <point x="678" y="574" type="qcurve" smooth="yes"/>
      <point x="678" y="523"/>
      <point x="626" y="425"/>
      <point x="576" y="380" type="qcurve"/>
      <point x="569" y="359"/>
      <point x="552" y="325"/>
      <point x="543" y="312" type="qcurve"/>
      <point x="570" y="276"/>
      <point x="597" y="201"/>
    </contour>
    <contour>
      <point x="370" y="312" type="qcurve" smooth="yes"/>
      <point x="370" y="293"/>
      <point x="396" y="269"/>
      <point x="416" y="269" type="qcurve" smooth="yes"/>
      <point x="435" y="269"/>
      <point x="470" y="293"/>
      <point x="488" y="319" type="qcurve"/>
      <point x="474" y="338"/>
      <point x="438" y="360"/>
      <point x="419" y="360" type="qcurve" smooth="yes"/>
      <point x="398" y="360"/>
      <point x="370" y="333"/>
    </contour>
    <contour>
      <point x="511" y="775" type="move" name="chandrabindu"/>
    </contour>
  </outline>
</glyph>
<glyph name="bn_kha" format="1">
  <advance width="526"/>
  <unicode hex="0996"/>
  <outline>
    <contour>
      <point x="466" y="476" type="qcurve" smooth="yes"/>
      <point x="466" y="308"/>
      <point x="430" y="73"/>
      <point x="390" y="-18" type="qcurve"/>
      <point x="376" y="-18"/>
      <point x="350" y="-11"/>
      <point x="339" y="-4" type="qcurve"/>
      <point x="297" y="108"/>
      <point x="203" y="219"/>
      <point x="137" y="236" type="qcurve"/>
      <point x="124" y="246"/>
      <point x="107" y="275"/>
      <point x="106" y="289" type="qcurve"/>
      <point x="184" y="329" type="line" smooth="yes"/>
      <point x="249" y="362"/>
      <point x="304" y="426"/>
      <point x="304" y="467" type="qcurve" smooth="yes"/>
      <point x="304" y="475"/>
      <point x="301" y="492"/>
      <point x="299" y="499" type="qcurve"/>
      <point x="270" y="460"/>
      <point x="191" y="413"/>
      <point x="155" y="413" type="qcurve" smooth="yes"/>
      <point x="106" y="413"/>
      <point x="48" y="467"/>
      <point x="48" y="515" type="qcurve" smooth="yes"/>
      <point x="48" y="532"/>
      <point x="54" y="560"/>
      <point x="60" y="571" type="qcurve"/>
      <point x="71" y="576"/>
      <point x="102" y="581"/>
      <point x="117" y="581" type="qcurve"/>
      <point x="109" y="569"/>
      <point x="100" y="539"/>
      <point x="100" y="524" type="qcurve" smooth="yes"/>
      <point x="100" y="493"/>
      <point x="126" y="466"/>
      <point x="155" y="466" type="qcurve" smooth="yes"/>
      <point x="188" y="466"/>
      <point x="259" y="512"/>
      <point x="284" y="550" type="qcurve"/>
      <point x="321" y="533" type="line"/>
      <point x="334" y="515"/>
      <point x="346" y="472"/>
      <point x="346" y="446" type="qcurve" smooth="yes"/>
      <point x="346" y="396"/>
      <point x="272" y="309"/>
      <point x="204" y="278" type="qcurve"/>
      <point x="185" y="269" type="line"/>
      <point x="241" y="242"/>
      <point x="329" y="123"/>
      <point x="360" y="33" type="qcurve"/>
      <point x="391" y="102"/>
      <point x="422" y="298"/>
      <point x="422" y="425" type="qcurve" smooth="yes"/>
      <point x="422" y="433"/>
      <point x="421" y="453"/>
      <point x="421" y="470" type="qcurve" smooth="yes"/>
      <point x="420" y="480"/>
      <point x="420" y="488"/>
      <point x="420" y="490" type="qcurve" smooth="yes"/>
      <point x="420" y="513"/>
      <point x="432" y="543"/>
      <point x="445" y="551" type="qcurve" smooth="yes"/>
      <point x="458" y="559"/>
      <point x="497" y="574"/>
      <point x="526" y="581" type="qcurve"/>
      <point x="528" y="578"/>
      <point x="531" y="566"/>
      <point x="531" y="559" type="qcurve" smooth="yes"/>
      <point x="531" y="551"/>
      <point x="528" y="538"/>
      <point x="526" y="535" type="qcurve"/>
      <point x="511" y="531"/>
      <point x="488" y="523"/>
      <point x="479" y="518" type="qcurve" smooth="yes"/>
      <point x="472" y="514"/>
      <point x="466" y="496"/>
    </contour>
    <contour>
      <point x="359" y="0" type="move" name="blwm"/>
    </contour>
    <contour>
      <point x="161" y="0" type="move" name="nukt"/>
    </contour>
    <contour>
      <point x="459" y="690" type="move" name="reph"/>
    </contour>
    <contour>
      <point x="459" y="690" type="move" name="chandrabindu"/>
    </contour>
    <contour>
      <point x="259" y="0" type="move" name="haln"/>
    </contour>
  </outline>
</glyph>
<glyph name="bn_nga" format="1">
  <advance width="565"/>
  <unicode hex="0999"/>
  <outline>
    <contour>
      <point x="287" y="498" type="qcurve"/>
      <point x="310" y="490"/>
      <point x="352" y="482"/>
      <point x="369" y="482" type="qcurve" smooth="yes"/>
      <point x="403" y="482"/>
      <point x="441" y="511"/>
      <point x="441" y="538" type="qcurve" smooth="yes"/>
      <point x="441" y="560"/>
      <point x="409" y="587"/>
      <point x="383" y="587" type="qcurve" smooth="yes"/>
      <point x="352" y="587"/>
      <point x="302" y="541"/>
    </contour>
    <contour>
      <point x="533" y="191" type="qcurve" smooth="yes"/>
      <point x="533" y="91"/>
      <point x="435" y="-27"/>
      <point x="350" y="-27" type="qcurve" smooth="yes"/>
      <point x="236" y="-27"/>
      <point x="74" y="182"/>
      <point x="10" y="429" type="qcurve"/>
      <point x="17" y="433"/>
      <point x="35" y="441"/>
      <point x="54" y="447" type="qcurve"/>
      <point x="112" y="225"/>
      <point x="251" y="28"/>
      <point x="350" y="28" type="qcurve" smooth="yes"/>
      <point x="416" y="28"/>
      <point x="487" y="120"/>
      <point x="487" y="205" type="qcurve" smooth="yes"/>
      <point x="487" y="240"/>
      <point x="478" y="305"/>
      <point x="469" y="333" type="qcurve"/>
      <point x="424" y="283"/>
      <point x="362" y="244"/>
      <point x="332" y="243" type="qcurve" smooth="yes"/>
      <point x="283" y="241"/>
      <point x="220" y="315"/>
      <point x="220" y="374" type="qcurve" smooth="yes"/>
      <point x="220" y="398"/>
      <point x="225" y="445"/>
      <point x="229" y="466" type="qcurve"/>
      <point x="197" y="478"/>
      <point x="133" y="511"/>
      <point x="107" y="528" type="qcurve"/>
      <point x="113" y="547"/>
      <point x="123" y="571"/>
      <point x="129" y="580" type="qcurve"/>
      <point x="153" y="562"/>
      <point x="212" y="528"/>
      <point x="243" y="515" type="qcurve"/>
      <point x="263" y="568"/>
      <point x="334" y="624"/>
      <point x="382" y="624" type="qcurve" smooth="yes"/>
      <point x="426" y="624"/>
      <point x="484" y="573"/>
      <point x="484" y="534" type="qcurve" smooth="yes"/>
      <point x="484" y="489"/>
      <point x="418" y="436"/>
      <point x="362" y="436" type="qcurve" smooth="yes"/>
      <point x="344" y="436"/>
      <point x="299" y="444"/>
      <point x="274" y="451" type="qcurve"/>
      <point x="270" y="434"/>
      <point x="266" y="395"/>
      <point x="266" y="373" type="qcurve" smooth="yes"/>
      <point x="266" y="328"/>
      <point x="290" y="290"/>
      <point x="318" y="290" type="qcurve" smooth="yes"/>
      <point x="341" y="290"/>
      <point x="408" y="341"/>
      <point x="455" y="394" type="qcurve"/>
      <point x="462" y="393"/>
      <point x="480" y="384"/>
      <point x="488" y="379" type="qcurve"/>
      <point x="509" y="338"/>
      <point x="533" y="240"/>
    </contour>
    <contour>
      <point x="321" y="0" type="move" name="blwm"/>
    </contour>
    <contour>
      <point x="151" y="-120" type="move" name="nukt"/>
    </contour>
    <contour>
      <point x="345" y="690" type="move" name="reph"/>
    </contour>
    <contour>
      <point x="345" y="690" type="move" name="chandrabindu"/>
    </contour>
    <contour>
      <point x="267" y="0" type="move" name="haln"/>
    </contour>
  </outline>
</glyph>
<glyph name="bn_ca" format="1">
  <advance width="426"/>
  <unicode hex="099A"/>
  <outline>
    <contour>
      <point x="317" y="396" type="qcurve" smooth="yes"/>
      <point x="357" y="378"/>
      <point x="390" y="327"/>
      <point x="390" y="286" type="qcurve" smooth="yes"/>
      <point x="390" y="168"/>
      <point x="265" y="-17"/>
      <point x="183" y="-17" type="qcurve" smooth="yes"/>
      <point x="127" y="-17"/>
      <point x="67" y="71"/>
      <point x="67" y="155" type="qcurve" smooth="yes"/>
      <point x="67" y="213"/>
      <point x="87" y="411"/>
      <point x="107" y="552" type="qcurve"/>
      <point x="77" y="549"/>
      <point x="22" y="540"/>
      <point x="0" y="535" type="qcurve"/>
      <point x="-2" y="542"/>
      <point x="-5" y="555"/>
      <point x="-5" y="561" type="qcurve" smooth="yes"/>
      <point x="-5" y="567"/>
      <point x="-2" y="577"/>
      <point x="0" y="581" type="qcurve"/>
      <point x="42" y="593"/>
      <point x="160" y="609"/>
      <point x="211" y="609" type="qcurve" smooth="yes"/>
      <point x="262" y="609"/>
      <point x="394" y="592"/>
      <point x="426" y="581" type="qcurve"/>
      <point x="428" y="578"/>
      <point x="429" y="571"/>
      <point x="429" y="562" type="qcurve" smooth="yes"/>
      <point x="429" y="554"/>
      <point x="427" y="539"/>
      <point x="426" y="535" type="qcurve"/>
      <point x="389" y="545"/>
      <point x="269" y="559"/>
      <point x="219" y="559" type="qcurve" smooth="yes"/>
      <point x="209" y="559"/>
      <point x="184" y="558"/>
      <point x="158" y="557" type="qcurve"/>
      <point x="177" y="503"/>
      <point x="254" y="425"/>
    </contour>
    <contour>
      <point x="114" y="130" type="qcurve" smooth="yes"/>
      <point x="114" y="75"/>
      <point x="143" y="25"/>
      <point x="175" y="25" type="qcurve" smooth="yes"/>
      <point x="236" y="25"/>
      <point x="339" y="188"/>
      <point x="339" y="286" type="qcurve" smooth="yes"/>
      <point x="339" y="313"/>
      <point x="316" y="345"/>
      <point x="277" y="364" type="qcurve" smooth="yes"/>
      <point x="234" y="385"/>
      <point x="164" y="456"/>
      <point x="146" y="499" type="qcurve"/>
      <point x="132" y="401"/>
      <point x="114" y="190"/>
    </contour>
    <contour>
      <point x="173" y="0" type="move" name="blwm"/>
    </contour>
    <contour>
      <point x="115" y="-120" type="move" name="nukt"/>
    </contour>
    <contour>
      <point x="199" y="690" type="move" name="reph"/>
    </contour>
    <contour>
      <point x="199" y="690" type="move" name="chandrabindu"/>
    </contour>
    <contour>
      <point x="107" y="0" type="move" name="haln"/>
    </contour>
  </outline>
</glyph>
<glyph name="bn_jha" format="1">
  <advance width="589"/>
  <unicode hex="099D"/>
  <outline>
    <contour>
      <point x="294" y="74" type="qcurve"/>
      <point x="293" y="79"/>
      <point x="293" y="93"/>
      <point x="293" y="107" type="qcurve" smooth="yes"/>
      <point x="293" y="184"/>
      <point x="307" y="358"/>
      <point x="319" y="441" type="qcurve"/>
      <point x="263" y="415"/>
      <point x="132" y="325"/>
      <point x="89" y="282" type="qcurve"/>
      <point x="156" y="250"/>
      <point x="260" y="145"/>
    </contour>
    <contour>
      <point x="343" y="167" type="qcurve" smooth="yes"/>
      <point x="343" y="115"/>
      <point x="350" y="27"/>
      <point x="357" y="-6" type="qcurve"/>
      <point x="348" y="-11"/>
      <point x="322" y="-16"/>
      <point x="304" y="-16" type="qcurve"/>
      <point x="258" y="90"/>
      <point x="134" y="217"/>
      <point x="54" y="240" type="qcurve"/>
      <point x="43" y="253"/>
      <point x="32" y="280"/>
      <point x="31" y="300" type="qcurve"/>
      <point x="76" y="351"/>
      <point x="245" y="467"/>
      <point x="330" y="503" type="qcurve"/>
      <point x="333" y="521"/>
      <point x="338" y="545"/>
      <point x="340" y="555" type="qcurve"/>
      <point x="318" y="559"/>
      <point x="266" y="562"/>
      <point x="237" y="562" type="qcurve" smooth="yes"/>
      <point x="180" y="562"/>
      <point x="48" y="547"/>
      <point x="0" y="535" type="qcurve"/>
      <point x="-1" y="539"/>
      <point x="-3" y="554"/>
      <point x="-3" y="562" type="qcurve" smooth="yes"/>
      <point x="-3" y="567"/>
      <point x="-1" y="577"/>
      <point x="0" y="581" type="qcurve"/>
      <point x="41" y="594"/>
      <point x="179" y="612"/>
      <point x="237" y="612" type="qcurve" smooth="yes"/>
      <point x="265" y="612"/>
      <point x="328" y="607"/>
      <point x="356" y="602" type="qcurve" smooth="yes"/>
      <point x="370" y="600"/>
      <point x="384" y="584"/>
      <point x="384" y="571" type="qcurve" smooth="yes"/>
      <point x="384" y="570"/>
      <point x="383" y="562"/>
      <point x="380" y="549" type="qcurve" smooth="yes"/>
      <point x="365" y="469"/>
      <point x="349" y="332"/>
      <point x="345" y="264" type="qcurve"/>
      <point x="386" y="238"/>
      <point x="455" y="167"/>
      <point x="483" y="122" type="qcurve"/>
      <point x="475" y="174"/>
      <point x="466" y="302"/>
      <point x="466" y="368" type="qcurve" smooth="yes"/>
      <point x="466" y="374"/>
      <point x="466" y="392"/>
      <point x="467" y="413" type="qcurve" smooth="yes"/>
      <point x="468" y="445"/>
      <point x="468" y="479"/>
      <point x="468" y="493" type="qcurve" smooth="yes"/>
      <point x="468" y="514"/>
      <point x="483" y="540"/>
      <point x="500" y="549" type="qcurve" smooth="yes"/>
      <point x="521" y="560"/>
      <point x="563" y="575"/>
      <point x="589" y="581" type="qcurve"/>
      <point x="591" y="578"/>
      <point x="594" y="566"/>
      <point x="594" y="559" type="qcurve" smooth="yes"/>
      <point x="594" y="551"/>
      <point x="591" y="538"/>
      <point x="589" y="535" type="qcurve"/>
      <point x="570" y="530"/>
      <point x="538" y="518"/>
      <point x="526" y="511" type="qcurve" smooth="yes"/>
      <point x="516" y="505"/>
      <point x="508" y="490"/>
      <point x="508" y="476" type="qcurve" smooth="yes"/>
      <point x="507" y="459"/>
      <point x="507" y="418"/>
      <point x="507" y="382" type="qcurve" smooth="yes"/>
      <point x="507" y="277"/>
      <point x="534" y="100"/>
      <point x="561" y="31" type="qcurve"/>
      <point x="550" y="24"/>
      <point x="523" y="17"/>
      <point x="509" y="18" type="qcurve"/>
      <point x="474" y="86"/>
      <point x="392" y="183"/>
      <point x="344" y="215" type="qcurve"/>
      <point x="343" y="207"/>
      <point x="343" y="187"/>
    </contour>
    <contour>
      <point x="316" y="0" type="move" name="blwm"/>
    </contour>
    <contour>
      <point x="90" y="0" type="move" name="nukt"/>
    </contour>
    <contour>
      <point x="393" y="690" type="move" name="reph"/>
    </contour>
    <contour>
      <point x="393" y="690" type="move" name="chandrabindu"/>
    </contour>
    <contour>
      <point x="234" y="0" type="move" name="haln"/>
    </contour>
  </outline>
</glyph>
<glyph name="bn_nya" format="1">
  <advance width="797"/>
  <unicode hex="099E"/>
  <outline>
    <contour>
      <point x="498" y="260" type="qcurve"/>
      <point x="528" y="215"/>
      <point x="611" y="163"/>
      <point x="651" y="163" type="qcurve" smooth="yes"/>
      <point x="684" y="163"/>
      <point x="722" y="197"/>
      <point x="722" y="225" type="qcurve" smooth="yes"/>
      <point x="722" y="239"/>
      <point x="714" y="268"/>
      <point x="706" y="281" type="qcurve"/>
      <point x="689" y="257"/>
      <point x="646" y="232"/>
      <point x="624" y="232" type="qcurve" smooth="yes"/>
      <point x="590" y="232"/>
      <point x="547" y="278"/>
      <point x="547" y="314" type="qcurve" smooth="yes"/>
      <point x="547" y="347"/>
      <point x="592" y="391"/>
      <point x="627" y="391" type="qcurve" smooth="yes"/>
      <point x="647" y="391"/>
      <point x="685" y="373"/>
      <point x="699" y="358" type="qcurve"/>
      <point x="708" y="374"/>
      <point x="716" y="404"/>
      <point x="716" y="420" type="qcurve" smooth="yes"/>
      <point x="716" y="443"/>
      <point x="680" y="471"/>
      <point x="650" y="471" type="qcurve" smooth="yes"/>
      <point x="609" y="471"/>
      <point x="532" y="423"/>
      <point x="502" y="378" type="qcurve"/>
      <point x="501" y="331"/>
      <point x="499" y="281"/>
    </contour>
    <contour>
      <point x="581" y="313" type="qcurve" smooth="yes"/>
      <point x="581" y="297"/>
      <point x="602" y="276"/>
      <point x="618" y="276" type="qcurve" smooth="yes"/>
      <point x="634" y="276"/>
      <point x="665" y="301"/>
      <point x="681" y="328" type="qcurve"/>
      <point x="670" y="340"/>
      <point x="641" y="354"/>
      <point x="627" y="354" type="qcurve" smooth="yes"/>
      <point x="607" y="354"/>
      <point x="581" y="331"/>
    </contour>
    <contour>
      <point x="476" y="-9" type="qcurve"/>
      <point x="466" y="-13"/>
      <point x="442" y="-17"/>
      <point x="429" y="-17" type="qcurve"/>
      <point x="416" y="9"/>
      <point x="399" y="40"/>
      <point x="395" y="45" type="qcurve" smooth="yes"/>
      <point x="383" y="61"/>
      <point x="353" y="75"/>
      <point x="334" y="75" type="qcurve" smooth="yes"/>
      <point x="320" y="75"/>
      <point x="284" y="68"/>
      <point x="244" y="56" type="qcurve" smooth="yes"/>
      <point x="200" y="42"/>
      <point x="156" y="34"/>
      <point x="139" y="34" type="qcurve" smooth="yes"/>
      <point x="87" y="34"/>
      <point x="25" y="101"/>
      <point x="25" y="155" type="qcurve" smooth="yes"/>
      <point x="25" y="185"/>
      <point x="46" y="257"/>
      <point x="65" y="291" type="qcurve"/>
      <point x="77" y="290"/>
      <point x="97" y="283"/>
      <point x="105" y="275" type="qcurve"/>
      <point x="92" y="254"/>
      <point x="74" y="190"/>
      <point x="74" y="163" type="qcurve" smooth="yes"/>
      <point x="74" y="126"/>
      <point x="112" y="87"/>
      <point x="146" y="87" type="qcurve" smooth="yes"/>
      <point x="160" y="87"/>
      <point x="196" y="95"/>
      <point x="234" y="107" type="qcurve" smooth="yes"/>
      <point x="275" y="120"/>
      <point x="314" y="128"/>
      <point x="330" y="128" type="qcurve" smooth="yes"/>
      <point x="365" y="128"/>
      <point x="412" y="89"/>
      <point x="431" y="45" type="qcurve"/>
      <point x="443" y="134"/>
      <point x="456" y="375"/>
      <point x="456" y="501" type="qcurve" smooth="yes"/>
      <point x="456" y="540"/>
      <point x="421" y="585"/>
      <point x="392" y="585" type="qcurve" smooth="yes"/>
      <point x="365" y="585"/>
      <point x="300" y="548"/>
      <point x="271" y="517" type="qcurve" smooth="yes"/>
      <point x="243" y="487"/>
      <point x="212" y="421"/>
      <point x="212" y="391" type="qcurve" smooth="yes"/>
      <point x="212" y="362"/>
      <point x="243" y="331"/>
      <point x="270" y="331" type="qcurve" smooth="yes"/>
      <point x="293" y="331"/>
      <point x="334" y="354"/>
      <point x="354" y="377" type="qcurve"/>
      <point x="357" y="373"/>
      <point x="360" y="360"/>
      <point x="360" y="349" type="qcurve" smooth="yes"/>
      <point x="360" y="338"/>
      <point x="357" y="322"/>
      <point x="354" y="315" type="qcurve"/>
      <point x="336" y="299"/>
      <point x="289" y="281"/>
      <point x="263" y="281" type="qcurve" smooth="yes"/>
      <point x="215" y="281"/>
      <point x="156" y="339"/>
      <point x="156" y="387" type="qcurve" smooth="yes"/>
      <point x="156" y="425"/>
      <point x="195" y="508"/>
      <point x="229" y="545" type="qcurve" smooth="yes"/>
      <point x="265" y="583"/>
      <point x="348" y="627"/>
      <point x="383" y="627" type="qcurve" smooth="yes"/>
      <point x="434" y="627"/>
      <point x="503" y="546"/>
      <point x="503" y="484" type="qcurve" smooth="yes"/>
      <point x="503" y="475"/>
      <point x="503" y="457"/>
      <point x="503" y="448" type="qcurve"/>
      <point x="531" y="481"/>
      <point x="607" y="520"/>
      <point x="646" y="520" type="qcurve" smooth="yes"/>
      <point x="695" y="520"/>
      <point x="759" y="462"/>
      <point x="759" y="415" type="qcurve" smooth="yes"/>
      <point x="759" y="389"/>
      <point x="744" y="337"/>
      <point x="729" y="315" type="qcurve"/>
      <point x="747" y="293"/>
      <point x="765" y="246"/>
      <point x="765" y="220" type="qcurve" smooth="yes"/>
      <point x="765" y="172"/>
      <point x="705" y="113"/>
      <point x="656" y="113" type="qcurve" smooth="yes"/>
      <point x="612" y="113"/>
      <point x="525" y="163"/>
      <point x="495" y="204" type="qcurve"/>
      <point x="492" y="153"/>
      <point x="483" y="49"/>
    </contour>
    <contour>
      <point x="440" y="0" type="move" name="blwm"/>
    </contour>
    <contour>
      <point x="267" y="-49" type="move" name="nukt"/>
    </contour>
    <contour>
      <point x="414" y="690" type="move" name="reph"/>
    </contour>
    <contour>
      <point x="491" y="690" type="move" name="chandrabindu"/>
    </contour>
    <contour>
      <point x="370" y="0" type="move" name="haln"/>
    </contour>
  </outline>
</glyph>
<glyph name="bn_tta" format="1">
  <advance width="468"/>
  <unicode hex="099F"/>
  <outline>
    <contour>
      <point x="324" y="371" type="qcurve" smooth="yes"/>
      <point x="372" y="371"/>
      <point x="431" y="306"/>
      <point x="431" y="251" type="qcurve" smooth="yes"/>
      <point x="431" y="209"/>
      <point x="394" y="118"/>
      <point x="361" y="78" type="qcurve" smooth="yes"/>
      <point x="325" y="34"/>
      <point x="240" y="-17"/>
      <point x="202" y="-17" type="qcurve" smooth="yes"/>
      <point x="152" y="-17"/>
      <point x="83" y="65"/>
      <point x="83" y="126" type="qcurve" smooth="yes"/>
      <point x="83" y="242"/>
      <point x="93" y="454"/>
      <point x="103" y="554" type="qcurve"/>
      <point x="73" y="550"/>
      <point x="19" y="541"/>
      <point x="0" y="535" type="qcurve"/>
      <point x="-2" y="543"/>
      <point x="-4" y="552"/>
      <point x="-4" y="558" type="qcurve" smooth="yes"/>
      <point x="-4" y="564"/>
      <point x="-2" y="576"/>
      <point x="0" y="581" type="qcurve"/>
      <point x="34" y="595"/>
      <point x="158" y="612"/>
      <point x="228" y="612" type="qcurve" smooth="yes"/>
      <point x="280" y="612"/>
      <point x="382" y="601"/>
      <point x="431" y="591" type="qcurve"/>
      <point x="419" y="643"/>
      <point x="367" y="695"/>
      <point x="327" y="695" type="qcurve" smooth="yes"/>
      <point x="309" y="695"/>
      <point x="270" y="690"/>
      <point x="233" y="683" type="qcurve" smooth="yes"/>
      <point x="199" y="676"/>
      <point x="164" y="672"/>
      <point x="149" y="672" type="qcurve" smooth="yes"/>
      <point x="103" y="672"/>
      <point x="35" y="711"/>
      <point x="7" y="754" type="qcurve"/>
      <point x="14" y="765"/>
      <point x="30" y="783"/>
      <point x="38" y="788" type="qcurve"/>
      <point x="66" y="749"/>
      <point x="119" y="718"/>
      <point x="151" y="718" type="qcurve" smooth="yes"/>
      <point x="163" y="718"/>
      <point x="193" y="722"/>
      <point x="226" y="728" type="qcurve" smooth="yes"/>
      <point x="266" y="736"/>
      <point x="307" y="741"/>
      <point x="324" y="741" type="qcurve" smooth="yes"/>
      <point x="382" y="741"/>
      <point x="457" y="656"/>
      <point x="468" y="581" type="qcurve"/>
      <point x="470" y="576"/>
      <point x="471" y="566"/>
      <point x="471" y="559" type="qcurve" smooth="yes"/>
      <point x="471" y="552"/>
      <point x="470" y="540"/>
      <point x="468" y="535" type="qcurve"/>
      <point x="405" y="549"/>
      <point x="289" y="562"/>
      <point x="230" y="562" type="qcurve" smooth="yes"/>
      <point x="216" y="562"/>
      <point x="184" y="561"/>
      <point x="157" y="560" type="qcurve"/>
      <point x="144" y="466"/>
      <point x="130" y="225"/>
      <point x="130" y="109" type="qcurve" smooth="yes"/>
      <point x="130" y="71"/>
      <point x="165" y="25"/>
      <point x="194" y="25" type="qcurve" smooth="yes"/>
      <point x="222" y="25"/>
      <point x="291" y="70"/>
      <point x="320" y="107" type="qcurve" smooth="yes"/>
      <point x="347" y="141"/>
      <point x="376" y="214"/>
      <point x="376" y="248" type="qcurve" smooth="yes"/>
      <point x="376" y="282"/>
      <point x="345" y="321"/>
      <point x="318" y="321" type="qcurve" smooth="yes"/>
      <point x="296" y="321"/>
      <point x="253" y="294"/>
      <point x="240" y="273" type="qcurve"/>
      <point x="234" y="279"/>
      <point x="228" y="298"/>
      <point x="228" y="308" type="qcurve" smooth="yes"/>
      <point x="228" y="315"/>
      <point x="230" y="327"/>
      <point x="233" y="333" type="qcurve"/>
      <point x="250" y="351"/>
      <point x="298" y="371"/>
    </contour>
    <contour>
      <point x="197" y="0" type="move" name="blwm"/>
    </contour>
    <contour>
      <point x="202" y="-120" type="move" name="nukt"/>
    </contour>
    <contour>
      <point x="185" y="690" type="move" name="reph"/>
    </contour>
    <contour>
      <point x="227" y="787" type="move" name="chandrabindu"/>
    </contour>
    <contour>
      <point x="104" y="0" type="move" name="haln"/>
    </contour>
  </outline>
</glyph>
<glyph name="bn_ddha" format="1">
  <advance width="468"/>
  <unicode hex="09A2"/>
  <outline>
    <contour>
      <point x="324" y="371" type="qcurve" smooth="yes"/>
      <point x="372" y="371"/>
      <point x="431" y="306"/>
      <point x="431" y="251" type="qcurve" smooth="yes"/>
      <point x="431" y="209"/>
      <point x="394" y="118"/>
      <point x="361" y="78" type="qcurve" smooth="yes"/>
      <point x="325" y="34"/>
      <point x="240" y="-17"/>
      <point x="202" y="-17" type="qcurve" smooth="yes"/>
      <point x="152" y="-17"/>
      <point x="83" y="65"/>
      <point x="83" y="126" type="qcurve" smooth="yes"/>
      <point x="83" y="242"/>
      <point x="93" y="454"/>
      <point x="103" y="554" type="qcurve"/>
      <point x="73" y="550"/>
      <point x="19" y="541"/>
      <point x="0" y="535" type="qcurve"/>
      <point x="-2" y="543"/>
      <point x="-4" y="552"/>
      <point x="-4" y="558" type="qcurve" smooth="yes"/>
      <point x="-4" y="564"/>
      <point x="-2" y="576"/>
      <point x="0" y="581" type="qcurve"/>
      <point x="34" y="595"/>
      <point x="158" y="612"/>
      <point x="228" y="612" type="qcurve" smooth="yes"/>
      <point x="294" y="612"/>
      <point x="416" y="596"/>
      <point x="468" y="581" type="qcurve"/>
      <point x="470" y="576"/>
      <point x="471" y="566"/>
      <point x="471" y="559" type="qcurve" smooth="yes"/>
      <point x="471" y="552"/>
      <point x="470" y="540"/>
      <point x="468" y="535" type="qcurve"/>
      <point x="405" y="549"/>
      <point x="289" y="562"/>
      <point x="230" y="562" type="qcurve" smooth="yes"/>
      <point x="216" y="562"/>
      <point x="184" y="561"/>
      <point x="157" y="560" type="qcurve"/>
      <point x="144" y="466"/>
      <point x="130" y="225"/>
      <point x="130" y="109" type="qcurve" smooth="yes"/>
      <point x="130" y="71"/>
      <point x="165" y="25"/>
      <point x="194" y="25" type="qcurve" smooth="yes"/>
      <point x="222" y="25"/>
      <point x="291" y="70"/>
      <point x="320" y="107" type="qcurve" smooth="yes"/>
      <point x="347" y="141"/>
      <point x="376" y="214"/>
      <point x="376" y="248" type="qcurve" smooth="yes"/>
      <point x="376" y="282"/>
      <point x="345" y="321"/>
      <point x="318" y="321" type="qcurve" smooth="yes"/>
      <point x="296" y="321"/>
      <point x="253" y="294"/>
      <point x="240" y="273" type="qcurve"/>
      <point x="234" y="279"/>
      <point x="228" y="298"/>
      <point x="228" y="308" type="qcurve" smooth="yes"/>
      <point x="228" y="315"/>
      <point x="230" y="327"/>
      <point x="233" y="333" type="qcurve"/>
      <point x="250" y="351"/>
      <point x="298" y="371"/>
    </contour>
    <contour>
      <point x="194" y="0" type="move" name="blwm"/>
    </contour>
    <contour>
      <point x="188" y="-120" type="move" name="nukt"/>
    </contour>
    <contour>
      <point x="224" y="690" type="move" name="reph"/>
    </contour>
    <contour>
      <point x="224" y="690" type="move" name="chandrabindu"/>
    </contour>
    <contour>
      <point x="105" y="0" type="move" name="haln"/>
    </contour>
  </outline>
</glyph>
<glyph name="bn_ta" format="1">
  <advance width="565"/>
  <unicode hex="09A4"/>
  <outline>
    <contour>
      <point x="565" y="535" type="qcurve"/>
      <point x="495" y="549"/>
      <point x="354" y="562"/>
      <point x="282" y="562" type="qcurve" smooth="yes"/>
      <point x="207" y="562"/>
      <point x="74" y="550"/>
      <point x="-1" y="535" type="qcurve"/>
      <point x="-3" y="539"/>
      <point x="-6" y="551"/>
      <point x="-6" y="558" type="qcurve" smooth="yes"/>
      <point x="-6" y="565"/>
      <point x="-3" y="577"/>
      <point x="-1" y="581" type="qcurve"/>
      <point x="66" y="597"/>
      <point x="203" y="612"/>
      <point x="282" y="612" type="qcurve" smooth="yes"/>
      <point x="358" y="612"/>
      <point x="501" y="596"/>
      <point x="565" y="581" type="qcurve"/>
      <point x="567" y="577"/>
      <point x="570" y="565"/>
      <point x="570" y="558" type="qcurve" smooth="yes"/>
      <point x="570" y="552"/>
      <point x="567" y="540"/>
    </contour>
    <contour>
      <point x="355" y="479" type="qcurve" smooth="yes"/>
      <point x="432" y="479"/>
      <point x="543" y="318"/>
      <point x="543" y="203" type="qcurve" smooth="yes"/>
      <point x="543" y="100"/>
      <point x="448" y="-17"/>
      <point x="365" y="-17" type="qcurve" smooth="yes"/>
      <point x="254" y="-17"/>
      <point x="85" y="199"/>
      <point x="21" y="430" type="qcurve"/>
      <point x="30" y="437"/>
      <point x="51" y="449"/>
      <point x="63" y="455" type="qcurve"/>
      <point x="119" y="248"/>
      <point x="271" y="39"/>
      <point x="365" y="39" type="qcurve" smooth="yes"/>
      <point x="429" y="39"/>
      <point x="495" y="129"/>
      <point x="495" y="216" type="qcurve" smooth="yes"/>
      <point x="495" y="313"/>
      <point x="419" y="437"/>
      <point x="362" y="437" type="qcurve" smooth="yes"/>
      <point x="332" y="437"/>
      <point x="300" y="395"/>
      <point x="300" y="357" type="qcurve" smooth="yes"/>
      <point x="300" y="322"/>
      <point x="329" y="255"/>
      <point x="354" y="234" type="qcurve"/>
      <point x="345" y="228"/>
      <point x="324" y="222"/>
      <point x="313" y="222" type="qcurve" smooth="yes"/>
      <point x="306" y="222"/>
      <point x="297" y="223"/>
      <point x="294" y="225" type="qcurve"/>
      <point x="272" y="250"/>
      <point x="246" y="322"/>
      <point x="246" y="357" type="qcurve" smooth="yes"/>
      <point x="246" y="411"/>
      <point x="306" y="479"/>
    </contour>
    <contour>
      <point x="333" y="0" type="move" name="blwm"/>
    </contour>
    <contour>
      <point x="325" y="-120" type="move" name="nukt"/>
    </contour>
    <contour>
      <point x="282" y="690" type="move" name="reph"/>
    </contour>
    <contour>
      <point x="282" y="690" type="move" name="chandrabindu"/>
    </contour>
    <contour>
      <point x="239" y="0" type="move" name="haln"/>
    </contour>
  </outline>
</glyph>
<glyph name="bn_da" format="1">
  <advance width="469"/>
  <unicode hex="09A6"/>
  <outline>
    <contour>
      <point x="381" y="209" type="qcurve" smooth="yes"/>
      <point x="381" y="159"/>
      <point x="394" y="55"/>
      <point x="406" y="2" type="qcurve"/>
      <point x="393" y="-4"/>
      <point x="369" y="-13"/>
      <point x="356" y="-16" type="qcurve"/>
      <point x="345" y="29"/>
      <point x="333" y="130"/>
      <point x="333" y="183" type="qcurve" smooth="yes"/>
      <point x="333" y="238"/>
      <point x="346" y="349"/>
      <point x="358" y="397" type="qcurve"/>
      <point x="283" y="345"/>
      <point x="141" y="194"/>
      <point x="98" y="120" type="qcurve"/>
      <point x="84" y="122"/>
      <point x="55" y="137"/>
      <point x="47" y="145" type="qcurve"/>
      <point x="76" y="244"/>
      <point x="112" y="459"/>
      <point x="115" y="555" type="qcurve"/>
      <point x="82" y="551"/>
      <point x="24" y="540"/>
      <point x="0" y="535" type="qcurve"/>
      <point x="-2" y="539"/>
      <point x="-5" y="554"/>
      <point x="-5" y="561" type="qcurve" smooth="yes"/>
      <point x="-5" y="567"/>
      <point x="-2" y="577"/>
      <point x="0" y="581" type="qcurve"/>
      <point x="46" y="595"/>
      <point x="181" y="612"/>
      <point x="245" y="612" type="qcurve" smooth="yes"/>
      <point x="307" y="612"/>
      <point x="435" y="594"/>
      <point x="469" y="581" type="qcurve"/>
      <point x="470" y="577"/>
      <point x="472" y="567"/>
      <point x="472" y="562" type="qcurve" smooth="yes"/>
      <point x="472" y="554"/>
      <point x="470" y="539"/>
      <point x="469" y="535" type="qcurve"/>
      <point x="430" y="547"/>
      <point x="302" y="562"/>
      <point x="240" y="562" type="qcurve" smooth="yes"/>
      <point x="214" y="562"/>
      <point x="171" y="560"/>
      <point x="151" y="558" type="qcurve"/>
      <point x="151" y="552"/>
      <point x="151" y="539"/>
      <point x="151" y="532" type="qcurve" smooth="yes"/>
      <point x="151" y="457"/>
      <point x="134" y="298"/>
      <point x="118" y="233" type="qcurve"/>
      <point x="172" y="305"/>
      <point x="300" y="423"/>
      <point x="369" y="465" type="qcurve"/>
      <point x="383" y="458"/>
      <point x="404" y="437"/>
      <point x="413" y="422" type="qcurve"/>
      <point x="397" y="373"/>
      <point x="381" y="266"/>
    </contour>
    <contour>
      <point x="372" y="0" type="move" name="blwm"/>
    </contour>
    <contour>
      <point x="152" y="0" type="move" name="nukt"/>
    </contour>
    <contour>
      <point x="244" y="690" type="move" name="reph"/>
    </contour>
    <contour>
      <point x="244" y="690" type="move" name="chandrabindu"/>
    </contour>
    <contour>
      <point x="230" y="0" type="move" name="haln"/>
    </contour>
  </outline>
</glyph>
<glyph name="bn_dha" format="1">
  <advance width="467"/>
  <unicode hex="09A7"/>
  <outline>
    <contour>
      <point x="376" y="291" type="qcurve" smooth="yes"/>
      <point x="376" y="196"/>
      <point x="386" y="43"/>
      <point x="395" y="-4" type="qcurve"/>
      <point x="386" y="-10"/>
      <point x="358" y="-16"/>
      <point x="341" y="-16" type="qcurve"/>
      <point x="290" y="94"/>
      <point x="158" y="222"/>
      <point x="75" y="242" type="qcurve"/>
      <point x="63" y="254"/>
      <point x="50" y="281"/>
      <point x="48" y="300" type="qcurve"/>
      <point x="65" y="319"/>
      <point x="114" y="358"/>
      <point x="143" y="378" type="qcurve"/>
      <point x="94" y="384"/>
      <point x="32" y="451"/>
      <point x="32" y="498" type="qcurve" smooth="yes"/>
      <point x="32" y="546"/>
      <point x="96" y="611"/>
      <point x="146" y="611" type="qcurve" smooth="yes"/>
      <point x="181" y="611"/>
      <point x="240" y="568"/>
      <point x="251" y="535" type="qcurve"/>
      <point x="245" y="524"/>
      <point x="218" y="502"/>
      <point x="206" y="499" type="qcurve"/>
      <point x="204" y="527"/>
      <point x="167" y="562"/>
      <point x="141" y="562" type="qcurve" smooth="yes"/>
      <point x="114" y="562"/>
      <point x="83" y="524"/>
      <point x="83" y="490" type="qcurve" smooth="yes"/>
      <point x="83" y="455"/>
      <point x="128" y="411"/>
      <point x="161" y="411" type="qcurve" smooth="yes"/>
      <point x="177" y="411"/>
      <point x="215" y="422"/>
      <point x="240" y="434" type="qcurve"/>
      <point x="265" y="447"/>
      <point x="318" y="472"/>
      <point x="345" y="484" type="qcurve"/>
      <point x="345" y="485"/>
      <point x="346" y="490"/>
      <point x="346" y="491" type="qcurve" smooth="yes"/>
      <point x="348" y="510"/>
      <point x="362" y="534"/>
      <point x="375" y="544" type="qcurve" smooth="yes"/>
      <point x="391" y="556"/>
      <point x="437" y="574"/>
      <point x="467" y="581" type="qcurve"/>
      <point x="469" y="578"/>
      <point x="472" y="566"/>
      <point x="472" y="559" type="qcurve" smooth="yes"/>
      <point x="472" y="551"/>
      <point x="469" y="538"/>
      <point x="467" y="535" type="qcurve"/>
      <point x="447" y="530"/>
      <point x="417" y="518"/>
      <point x="406" y="511" type="qcurve" smooth="yes"/>
      <point x="395" y="504"/>
      <point x="386" y="490"/>
      <point x="384" y="469" type="qcurve" smooth="yes"/>
      <point x="379" y="405"/>
      <point x="376" y="329"/>
    </contour>
    <contour>
      <point x="332" y="66" type="qcurve"/>
      <point x="330" y="90"/>
      <point x="329" y="156"/>
      <point x="329" y="199" type="qcurve" smooth="yes"/>
      <point x="329" y="254"/>
      <point x="334" y="365"/>
      <point x="339" y="422" type="qcurve"/>
      <point x="278" y="397"/>
      <point x="150" y="321"/>
      <point x="110" y="284" type="qcurve"/>
      <point x="182" y="252"/>
      <point x="294" y="143"/>
    </contour>
    <contour>
      <point x="359" y="0" type="move" name="blwm"/>
    </contour>
    <contour>
      <point x="156" y="0" type="move" name="nukt"/>
    </contour>
    <contour>
      <point x="377" y="690" type="move" name="reph"/>
    </contour>
    <contour>
      <point x="377" y="690" type="move" name="chandrabindu"/>
    </contour>
    <contour>
      <point x="262" y="0" type="move" name="haln"/>
    </contour>
  </outline>
</glyph>
<glyph name="bn_ba" format="1">
  <advance width="457"/>
  <unicode hex="09AC"/>
  <outline>
    <contour>
      <point x="364" y="291" type="qcurve" smooth="yes"/>
      <point x="364" y="194"/>
      <point x="378" y="43"/>
      <point x="391" y="-4" type="qcurve"/>
      <point x="382" y="-10"/>
      <point x="354" y="-16"/>
      <point x="337" y="-16" type="qcurve"/>
      <point x="285" y="87"/>
      <point x="149" y="208"/>
      <point x="63" y="227" type="qcurve"/>
      <point x="51" y="239"/>
      <point x="38" y="266"/>
      <point x="36" y="285" type="qcurve"/>
      <point x="80" y="339"/>
      <point x="249" y="463"/>
      <point x="336" y="504" type="qcurve"/>
      <point x="338" y="522"/>
      <point x="341" y="544"/>
      <point x="343" y="554" type="qcurve"/>
      <point x="313" y="558"/>
      <point x="261" y="561"/>
      <point x="239" y="561" type="qcurve" smooth="yes"/>
      <point x="184" y="561"/>
      <point x="54" y="547"/>
      <point x="0" y="535" type="qcurve"/>
      <point x="-3" y="540"/>
      <point x="-5" y="552"/>
      <point x="-5" y="560" type="qcurve" smooth="yes"/>
      <point x="-5" y="566"/>
      <point x="-2" y="577"/>
      <point x="0" y="581" type="qcurve"/>
      <point x="48" y="594"/>
      <point x="184" y="611"/>
      <point x="243" y="611" type="qcurve" smooth="yes"/>
      <point x="294" y="611"/>
      <point x="411" y="594"/>
      <point x="457" y="581" type="qcurve"/>
      <point x="459" y="578"/>
      <point x="461" y="567"/>
      <point x="461" y="561" type="qcurve" smooth="yes"/>
      <point x="461" y="554"/>
      <point x="459" y="541"/>
      <point x="457" y="535" type="qcurve"/>
      <point x="440" y="539"/>
      <point x="403" y="546"/>
      <point x="385" y="549" type="qcurve"/>
      <point x="373" y="484"/>
      <point x="364" y="371"/>
    </contour>
    <contour>
      <point x="322" y="74" type="qcurve"/>
      <point x="319" y="100"/>
      <point x="317" y="162"/>
      <point x="317" y="199" type="qcurve" smooth="yes"/>
      <point x="317" y="262"/>
      <point x="322" y="381"/>
      <point x="328" y="441" type="qcurve"/>
      <point x="273" y="414"/>
      <point x="140" y="318"/>
      <point x="96" y="271" type="qcurve"/>
      <point x="168" y="242"/>
      <point x="281" y="143"/>
    </contour>
    <contour>
      <point x="350" y="0" type="move" name="blwm"/>
    </contour>
    <contour>
      <point x="123" y="0" type="move" name="nukt"/>
    </contour>
    <contour>
      <point x="335" y="690" type="move" name="reph"/>
    </contour>
    <contour>
      <point x="335" y="690" type="move" name="chandrabindu"/>
    </contour>
    <contour>
      <point x="265" y="0" type="move" name="haln"/>
    </contour>
  </outline>
</glyph>
<glyph name="bn_bha" format="1">
  <advance width="595"/>
  <unicode hex="09AD"/>
  <outline>
    <contour>
      <point x="595" y="535" type="qcurve"/>
      <point x="521" y="549"/>
      <point x="376" y="562"/>
      <point x="297" y="562" type="qcurve" smooth="yes"/>
      <point x="218" y="562"/>
      <point x="73" y="549"/>
      <point x="-1" y="535" type="qcurve"/>
      <point x="-3" y="539"/>
      <point x="-5" y="552"/>
      <point x="-5" y="558" type="qcurve" smooth="yes"/>
      <point x="-5" y="564"/>
      <point x="-3" y="577"/>
      <point x="-1" y="581" type="qcurve"/>
      <point x="65" y="597"/>
      <point x="213" y="612"/>
      <point x="297" y="612" type="qcurve" smooth="yes"/>
      <point x="380" y="612"/>
      <point x="528" y="597"/>
      <point x="595" y="581" type="qcurve"/>
      <point x="598" y="578"/>
      <point x="600" y="567"/>
      <point x="600" y="558" type="qcurve" smooth="yes"/>
      <point x="600" y="550"/>
      <point x="597" y="539"/>
    </contour>
    <contour>
      <point x="571" y="206" type="qcurve" smooth="yes"/>
      <point x="571" y="103"/>
      <point x="464" y="-17"/>
      <point x="373" y="-17" type="qcurve" smooth="yes"/>
      <point x="255" y="-17"/>
      <point x="82" y="198"/>
      <point x="20" y="430" type="qcurve"/>
      <point x="29" y="437"/>
      <point x="50" y="449"/>
      <point x="62" y="455" type="qcurve"/>
      <point x="121" y="239"/>
      <point x="270" y="38"/>
      <point x="373" y="38" type="qcurve" smooth="yes"/>
      <point x="446" y="38"/>
      <point x="525" y="132"/>
      <point x="525" y="221" type="qcurve" smooth="yes"/>
      <point x="525" y="252"/>
      <point x="515" y="317"/>
      <point x="505" y="347" type="qcurve"/>
      <point x="452" y="301"/>
      <point x="376" y="264"/>
      <point x="339" y="264" type="qcurve" smooth="yes"/>
      <point x="285" y="264"/>
      <point x="211" y="328"/>
      <point x="211" y="376" type="qcurve" smooth="yes"/>
      <point x="211" y="417"/>
      <point x="267" y="482"/>
      <point x="313" y="498" type="qcurve"/>
      <point x="325" y="492"/>
      <point x="344" y="467"/>
      <point x="348" y="452" type="qcurve"/>
      <point x="303" y="440"/>
      <point x="256" y="397"/>
      <point x="256" y="368" type="qcurve" smooth="yes"/>
      <point x="256" y="342"/>
      <point x="293" y="312"/>
      <point x="324" y="312" type="qcurve" smooth="yes"/>
      <point x="360" y="312"/>
      <point x="438" y="354"/>
      <point x="501" y="409" type="qcurve"/>
      <point x="510" y="403"/>
      <point x="528" y="389"/>
      <point x="534" y="383" type="qcurve"/>
      <point x="551" y="344"/>
      <point x="571" y="250"/>
    </contour>
    <contour>
      <point x="370" y="0" type="move" name="blwm"/>
    </contour>
    <contour>
      <point x="370" y="-120" type="move" name="nukt"/>
    </contour>
    <contour>
      <point x="298" y="690" type="move" name="reph"/>
    </contour>
    <contour>
      <point x="298" y="690" type="move" name="chandrabindu"/>
    </contour>
    <contour>
      <point x="250" y="0" type="move" name="haln"/>
    </contour>
  </outline>
</glyph>
<glyph name="bn_sha" format="1">
  <advance width="510"/>
  <unicode hex="09B6"/>
  <outline>
    <contour>
      <point x="442" y="482" type="qcurve" smooth="yes"/>
      <point x="439" y="273"/>
      <point x="419" y="90"/>
      <point x="396" y="-16" type="qcurve"/>
      <point x="377" y="-16"/>
      <point x="345" y="-11"/>
      <point x="335" y="-7" type="qcurve"/>
      <point x="366" y="86"/>
      <point x="391" y="249"/>
      <point x="393" y="361" type="qcurve"/>
      <point x="390" y="446"/>
      <point x="325" y="555"/>
      <point x="281" y="555" type="qcurve" smooth="yes"/>
      <point x="266" y="555"/>
      <point x="239" y="539"/>
      <point x="229" y="524" type="qcurve"/>
      <point x="271" y="511"/>
      <point x="327" y="429"/>
      <point x="327" y="379" type="qcurve" smooth="yes"/>
      <point x="327" y="339"/>
      <point x="290" y="292"/>
      <point x="257" y="292" type="qcurve" smooth="yes"/>
      <point x="232" y="292"/>
      <point x="194" y="320"/>
      <point x="182" y="347" type="qcurve"/>
      <point x="169" y="318"/>
      <point x="130" y="289"/>
      <point x="105" y="289" type="qcurve" smooth="yes"/>
      <point x="73" y="289"/>
      <point x="36" y="330"/>
      <point x="36" y="368" type="qcurve" smooth="yes"/>
      <point x="36" y="421"/>
      <point x="99" y="509"/>
      <point x="150" y="522" type="qcurve"/>
      <point x="140" y="536"/>
      <point x="110" y="549"/>
      <point x="90" y="549" type="qcurve" smooth="yes"/>
      <point x="75" y="549"/>
      <point x="17" y="540"/>
      <point x="0" y="535" type="qcurve"/>
      <point x="-2" y="541"/>
      <point x="-5" y="554"/>
      <point x="-5" y="560" type="qcurve" smooth="yes"/>
      <point x="-5" y="566"/>
      <point x="-2" y="577"/>
      <point x="0" y="581" type="qcurve"/>
      <point x="23" y="587"/>
      <point x="76" y="596"/>
      <point x="92" y="596" type="qcurve" smooth="yes"/>
      <point x="126" y="596"/>
      <point x="172" y="558"/>
      <point x="184" y="522" type="qcurve"/>
      <point x="197" y="563"/>
      <point x="247" y="609"/>
      <point x="279" y="609" type="qcurve" smooth="yes"/>
      <point x="321" y="609"/>
      <point x="384" y="532"/>
      <point x="401" y="461" type="qcurve"/>
      <point x="401" y="507" type="line" smooth="yes"/>
      <point x="401" y="519"/>
      <point x="416" y="542"/>
      <point x="429" y="551" type="qcurve" smooth="yes"/>
      <point x="441" y="559"/>
      <point x="480" y="573"/>
      <point x="510" y="581" type="qcurve"/>
      <point x="512" y="578"/>
      <point x="515" y="566"/>
      <point x="515" y="559" type="qcurve" smooth="yes"/>
      <point x="515" y="551"/>
      <point x="512" y="538"/>
      <point x="510" y="535" type="qcurve"/>
      <point x="494" y="531"/>
      <point x="470" y="522"/>
      <point x="462" y="518" type="qcurve" smooth="yes"/>
      <point x="450" y="511"/>
      <point x="442" y="497"/>
    </contour>
    <contour>
      <point x="207" y="434" type="qcurve" smooth="yes"/>
      <point x="207" y="391"/>
      <point x="236" y="335"/>
      <point x="260" y="335" type="qcurve" smooth="yes"/>
      <point x="275" y="335"/>
      <point x="289" y="357"/>
      <point x="289" y="381" type="qcurve" smooth="yes"/>
      <point x="289" y="420"/>
      <point x="248" y="481"/>
      <point x="216" y="492" type="qcurve"/>
      <point x="212" y="479"/>
      <point x="207" y="450"/>
    </contour>
    <contour>
      <point x="78" y="371" type="qcurve" smooth="yes"/>
      <point x="78" y="351"/>
      <point x="93" y="331"/>
      <point x="109" y="331" type="qcurve" smooth="yes"/>
      <point x="134" y="331"/>
      <point x="165" y="393"/>
      <point x="165" y="441" type="qcurve" smooth="yes"/>
      <point x="165" y="453"/>
      <point x="162" y="478"/>
      <point x="160" y="489" type="qcurve"/>
      <point x="126" y="482"/>
      <point x="78" y="411"/>
    </contour>
    <contour>
      <point x="365" y="0" type="move" name="blwm"/>
    </contour>
    <contour>
      <point x="163" y="0" type="move" name="nukt"/>
    </contour>
    <contour>
      <point x="440" y="690" type="move" name="reph"/>
    </contour>
    <contour>
      <point x="440" y="690" type="move" name="chandrabindu"/>
    </contour>
    <contour>
      <point x="282" y="0" type="move" name="haln"/>
    </contour>
  </outline>
</glyph>
<glyph name="bn_ha" format="1">
  <advance width="442"/>
  <unicode hex="09B9"/>
  <outline>
    <contour>
      <point x="442" y="535" type="qcurve"/>
      <point x="401" y="546"/>
      <point x="277" y="561"/>
      <point x="224" y="561" type="qcurve" smooth="yes"/>
      <point x="174" y="561"/>
      <point x="51" y="546"/>
      <point x="0" y="535" type="qcurve"/>
      <point x="-3" y="541"/>
      <point x="-6" y="554"/>
      <point x="-6" y="560" type="qcurve" smooth="yes"/>
      <point x="-6" y="567"/>
      <point x="-3" y="577"/>
      <point x="0" y="581" type="qcurve"/>
      <point x="45" y="594"/>
      <point x="172" y="611"/>
      <point x="225" y="611" type="qcurve" smooth="yes"/>
      <point x="280" y="611"/>
      <point x="406" y="593"/>
      <point x="442" y="581" type="qcurve"/>
      <point x="444" y="578"/>
      <point x="445" y="570"/>
      <point x="445" y="561" type="qcurve" smooth="yes"/>
      <point x="445" y="554"/>
      <point x="443" y="540"/>
    </contour>
    <contour>
      <point x="464" y="-77" type="qcurve"/>
      <point x="458" y="-86"/>
      <point x="443" y="-106"/>
      <point x="432" y="-118" type="qcurve"/>
      <point x="344" y="-20"/>
      <point x="160" y="104"/>
      <point x="54" y="137" type="qcurve"/>
      <point x="34" y="207" type="line"/>
      <point x="82" y="189"/>
      <point x="164" y="171"/>
      <point x="199" y="171" type="qcurve" smooth="yes"/>
      <point x="260" y="171"/>
      <point x="328" y="229"/>
      <point x="328" y="281" type="qcurve" smooth="yes"/>
      <point x="328" y="347"/>
      <point x="233" y="457"/>
      <point x="175" y="457" type="qcurve" smooth="yes"/>
      <point x="147" y="457"/>
      <point x="115" y="430"/>
      <point x="115" y="407" type="qcurve" smooth="yes"/>
      <point x="115" y="387"/>
      <point x="141" y="344"/>
      <point x="170" y="317" type="qcurve"/>
      <point x="159" y="312"/>
      <point x="126" y="307"/>
      <point x="113" y="308" type="qcurve"/>
      <point x="91" y="334"/>
      <point x="70" y="383"/>
      <point x="70" y="408" type="qcurve" smooth="yes"/>
      <point x="70" y="449"/>
      <point x="125" y="498"/>
      <point x="171" y="498" type="qcurve" smooth="yes"/>
      <point x="251" y="498"/>
      <point x="376" y="358"/>
      <point x="376" y="270" type="qcurve" smooth="yes"/>
      <point x="376" y="200"/>
      <point x="285" y="122"/>
      <point x="204" y="122" type="qcurve"/>
      <point x="272" y="85"/>
      <point x="403" y="-15"/>
    </contour>
    <contour>
      <point x="235.0" y="60.0" type="move" name="blwm"/>
    </contour>
    <contour>
      <point x="164.0" y="-66.0" type="move" name="nukt"/>
    </contour>
    <contour>
      <point x="216.0" y="690.0" type="move" name="reph"/>
    </contour>
    <contour>
      <point x="216.0" y="690.0" type="move" name="chandrabindu"/>
    </contour>
    <contour>
      <point x="108.0" y="0.0" type="move" name="haln"/>
    </contour>
  </outline>
</glyph>
<glyph name="bn_nukta" format="1">
  <advance width="0"/>
  <unicode hex="09BC"/>
  <outline>
    <contour>
      <point x="-45" y="-23" type="qcurve" smooth="yes"/>
      <point x="-45" y="-6"/>
      <point x="-20" y="18"/>
      <point x="-3" y="18" type="qcurve" smooth="yes"/>
      <point x="17" y="18"/>
      <point x="44" y="-12"/>
      <point x="44" y="-33" type="qcurve" smooth="yes"/>
      <point x="44" y="-51"/>
      <point x="20" y="-73"/>
      <point x="2" y="-73" type="qcurve" smooth="yes"/>
      <point x="-18" y="-73"/>
      <point x="-45" y="-44"/>
    </contour>
    <contour>
      <point x="0" y="-28" type="move" name="_nukt"/>
    </contour>
  </outline>
</glyph>
<glyph name="bn_aakaar" format="1">
  <advance width="224"/>
  <unicode hex="09BE"/>
  <outline>
    <contour>
      <point x="148" y="493" type="qcurve"/>
      <point x="147" y="363"/>
      <point x="137" y="88"/>
      <point x="127" y="-51" type="qcurve"/>
      <point x="110" y="-51"/>
      <point x="70" y="-46"/>
      <point x="61" y="-42" type="qcurve"/>
      <point x="80" y="64"/>
      <point x="99" y="306"/>
      <point x="100" y="458" type="qcurve"/>
      <point x="99" y="484"/>
      <point x="50" y="522"/>
      <point x="0" y="535" type="qcurve"/>
      <point x="-3" y="545"/>
      <point x="-3" y="573"/>
      <point x="0" y="581" type="qcurve"/>
      <point x="37" y="572"/>
      <point x="98" y="545"/>
      <point x="118" y="528" type="qcurve"/>
      <point x="132" y="544"/>
      <point x="187" y="571"/>
      <point x="224" y="581" type="qcurve"/>
      <point x="227" y="574"/>
      <point x="227" y="546"/>
      <point x="224" y="535" type="qcurve"/>
      <point x="197" y="527"/>
      <point x="159" y="506"/>
    </contour>
  </outline>
</glyph>
<glyph name="bn_ikaar" format="1">
  <advance width="224"/>
  <unicode hex="09BF"/>
  <outline>
    <contour>
      <point x="183" y="-41" type="qcurve"/>
      <point x="173" y="-45"/>
      <point x="134" y="-50"/>
      <point x="117" y="-50" type="qcurve"/>
      <point x="108" y="87"/>
      <point x="99" y="344"/>
      <point x="98" y="469" type="qcurve"/>
      <point x="94" y="491"/>
      <point x="45" y="524"/>
      <point x="0" y="535" type="qcurve"/>
      <point x="-3" y="545"/>
      <point x="-3" y="573"/>
      <point x="0" y="581" type="qcurve"/>
      <point x="29" y="574"/>
      <point x="74" y="556"/>
      <point x="91" y="546" type="qcurve"/>
      <point x="67" y="585"/>
      <point x="43" y="657"/>
      <point x="43" y="691" type="qcurve" smooth="yes"/>
      <point x="43" y="760"/>
      <point x="128" y="835"/>
      <point x="206" y="835" type="qcurve" smooth="yes"/>
      <point x="284" y="835"/>
      <point x="493" y="772"/>
      <point x="624" y="708" type="qcurve"/>
      <point x="621" y="697"/>
      <point x="610" y="676"/>
      <point x="602" y="666" type="qcurve"/>
      <point x="486" y="727"/>
      <point x="303" y="783"/>
      <point x="221" y="783" type="qcurve" smooth="yes"/>
      <point x="157" y="783"/>
      <point x="98" y="732"/>
      <point x="98" y="675" type="qcurve" smooth="yes"/>
      <point x="98" y="646"/>
      <point x="112" y="587"/>
      <point x="133" y="541" type="qcurve"/>
      <point x="149" y="553"/>
      <point x="196" y="574"/>
      <point x="224" y="581" type="qcurve"/>
      <point x="227" y="574"/>
      <point x="227" y="546"/>
      <point x="224" y="535" type="qcurve"/>
      <point x="195" y="527"/>
      <point x="156" y="504"/>
      <point x="146" y="490" type="qcurve"/>
      <point x="145" y="324"/>
      <point x="163" y="69"/>
    </contour>
  </outline>
</glyph>
<glyph name="bn_rrikaar" format="1">
  <advance width="0"/>
  <unicode hex="09C4"/>
  <outline>
    <contour>
      <point x="-126" y="-241" type="line"/>
      <point x="-11" y="-322" type="line"/>
      <point x="-16" y="-334"/>
      <point x="-29" y="-353"/>
      <point x="-37" y="-359" type="qcurve"/>
      <point x="-182" y="-247" type="line"/>
      <point x="-182" y="-232" type="line"/>
      <point x="-121" y="-171" type="line"/>
      <point x="-151" y="-148" type="line"/>
      <point x="-151" y="-133" type="line"/>
      <point x="-24" y="-9" type="line"/>
      <point x="-24" y="8" type="line"/>
      <point x="11" y="0" type="line"/>
      <point x="30" y="-24" type="line"/>
      <point x="-92" y="-143" type="line"/>
      <point x="51" y="-243" type="line"/>
      <point x="46" y="-255"/>
      <point x="32" y="-275"/>
      <point x="23" y="-282" type="qcurve"/>
      <point x="-83" y="-200" type="line"/>
    </contour>
    <contour>
      <point x="0" y="-20" type="move" name="_blwm"/>
    </contour>
  </outline>
</glyph>
<glyph name="bn_ekaar" format="1">
  <advance width="244"/>
  <unicode hex="09C7"/>
  <outline>
    <contour>
      <point x="285" y="-1" type="qcurve"/>
      <point x="269" y="-30"/>
      <point x="221" y="-63"/>
      <point x="196" y="-63" type="qcurve" smooth="yes"/>
      <point x="139" y="-63"/>
      <point x="70" y="97"/>
      <point x="70" y="229" type="qcurve" smooth="yes"/>
      <point x="70" y="306"/>
      <point x="90" y="445"/>
      <point x="107" y="487" type="qcurve"/>
      <point x="92" y="500"/>
      <point x="39" y="524"/>
      <point x="0" y="535" type="qcurve"/>
      <point x="-2" y="541"/>
      <point x="-3" y="553"/>
      <point x="-3" y="559" type="qcurve" smooth="yes"/>
      <point x="-3" y="566"/>
      <point x="-1" y="577"/>
      <point x="0" y="581" type="qcurve"/>
      <point x="42" y="572"/>
      <point x="114" y="542"/>
      <point x="137" y="525" type="qcurve"/>
      <point x="150" y="544"/>
      <point x="202" y="571"/>
      <point x="244" y="581" type="qcurve"/>
      <point x="245" y="577"/>
      <point x="247" y="566"/>
      <point x="247" y="559" type="qcurve" smooth="yes"/>
      <point x="247" y="553"/>
      <point x="245" y="540"/>
      <point x="244" y="535" type="qcurve"/>
      <point x="178" y="519"/>
      <point x="126" y="389"/>
      <point x="126" y="238" type="qcurve" smooth="yes"/>
      <point x="126" y="113"/>
      <point x="157" y="-19"/>
      <point x="186" y="-19" type="qcurve" smooth="yes"/>
      <point x="199" y="-19"/>
      <point x="228" y="12"/>
      <point x="251" y="52" type="qcurve"/>
      <point x="265" y="44"/>
      <point x="285" y="13"/>
    </contour>
  </outline>
</glyph>
<glyph name="bn_aikaar" format="1">
  <advance width="244"/>
  <unicode hex="09C8"/>
  <outline>
    <contour>
      <point x="285" y="-1" type="qcurve"/>
      <point x="269" y="-30"/>
      <point x="221" y="-63"/>
      <point x="196" y="-63" type="qcurve" smooth="yes"/>
      <point x="139" y="-63"/>
      <point x="70" y="97"/>
      <point x="70" y="229" type="qcurve" smooth="yes"/>
      <point x="70" y="306"/>
      <point x="90" y="445"/>
      <point x="107" y="487" type="qcurve"/>
      <point x="92" y="500"/>
      <point x="39" y="524"/>
      <point x="0" y="535" type="qcurve"/>
      <point x="-2" y="541"/>
      <point x="-3" y="553"/>
      <point x="-3" y="559" type="qcurve" smooth="yes"/>
      <point x="-3" y="566"/>
      <point x="-1" y="577"/>
      <point x="0" y="581" type="qcurve"/>
      <point x="42" y="572"/>
      <point x="114" y="542"/>
      <point x="137" y="525" type="qcurve"/>
      <point x="147" y="539"/>
      <point x="182" y="562"/>
      <point x="209" y="571" type="qcurve"/>
      <point x="202" y="628"/>
      <point x="167" y="677"/>
      <point x="137" y="677" type="qcurve" smooth="yes"/>
      <point x="127" y="677"/>
      <point x="105" y="674"/>
      <point x="84" y="670" type="qcurve" smooth="yes"/>
      <point x="61" y="665"/>
      <point x="37" y="662"/>
      <point x="26" y="662" type="qcurve" smooth="yes"/>
      <point x="-10" y="662"/>
      <point x="-64" y="702"/>
      <point x="-91" y="750" type="qcurve"/>
      <point x="-85" y="757"/>
      <point x="-63" y="770"/>
      <point x="-53" y="774" type="qcurve"/>
      <point x="-29" y="734"/>
      <point x="7" y="707"/>
      <point x="29" y="707" type="qcurve" smooth="yes"/>
      <point x="37" y="707"/>
      <point x="58" y="710"/>
      <point x="80" y="715" type="qcurve" smooth="yes"/>
      <point x="103" y="720"/>
      <point x="126" y="723"/>
      <point x="135" y="723" type="qcurve" smooth="yes"/>
      <point x="181" y="723"/>
      <point x="237" y="649"/>
      <point x="244" y="581" type="qcurve"/>
      <point x="245" y="577"/>
      <point x="247" y="566"/>
      <point x="247" y="559" type="qcurve" smooth="yes"/>
      <point x="247" y="553"/>
      <point x="245" y="540"/>
      <point x="244" y="535" type="qcurve"/>
      <point x="178" y="519"/>
      <point x="126" y="389"/>
      <point x="126" y="238" type="qcurve" smooth="yes"/>
      <point x="126" y="113"/>
      <point x="157" y="-19"/>
      <point x="186" y="-19" type="qcurve" smooth="yes"/>
      <point x="199" y="-19"/>
      <point x="228" y="12"/>
      <point x="251" y="52" type="qcurve"/>
      <point x="265" y="44"/>
      <point x="285" y="13"/>
    </contour>
  </outline>
</glyph>
<glyph name="bn_okaar" format="1">
  <advance width="1111"/>
  <unicode hex="09CB"/>
  <outline>
    <contour>
      <point x="572" y="585" type="qcurve" smooth="yes"/>
      <point x="591" y="585"/>
      <point x="612" y="563"/>
      <point x="612" y="544" type="qcurve" smooth="yes"/>
      <point x="612" y="525"/>
      <point x="591" y="504"/>
      <point x="572" y="504" type="qcurve" smooth="yes"/>
      <point x="553" y="504"/>
      <point x="533" y="525"/>
      <point x="533" y="544" type="qcurve" smooth="yes"/>
      <point x="533" y="564"/>
      <point x="553" y="585"/>
    </contour>
    <contour>
      <point x="1035" y="493" type="qcurve"/>
      <point x="1034" y="363"/>
      <point x="1024" y="88"/>
      <point x="1014" y="-51" type="qcurve"/>
      <point x="997" y="-51"/>
      <point x="957" y="-46"/>
      <point x="948" y="-42" type="qcurve"/>
      <point x="967" y="64"/>
      <point x="986" y="306"/>
      <point x="987" y="458" type="qcurve"/>
      <point x="986" y="484"/>
      <point x="937" y="522"/>
      <point x="887" y="535" type="qcurve"/>
      <point x="884" y="545"/>
      <point x="884" y="573"/>
      <point x="887" y="581" type="qcurve"/>
      <point x="924" y="572"/>
      <point x="985" y="545"/>
      <point x="1005" y="528" type="qcurve"/>
      <point x="1019" y="544"/>
      <point x="1074" y="571"/>
      <point x="1111" y="581" type="qcurve"/>
      <point x="1114" y="574"/>
      <point x="1114" y="546"/>
      <point x="1111" y="535" type="qcurve"/>
      <point x="1084" y="527"/>
      <point x="1046" y="506"/>
    </contour>
    <contour>
      <point x="285" y="-1" type="qcurve"/>
      <point x="269" y="-30"/>
      <point x="221" y="-63"/>
      <point x="196" y="-63" type="qcurve" smooth="yes"/>
      <point x="139" y="-63"/>
      <point x="70" y="97"/>
      <point x="70" y="229" type="qcurve" smooth="yes"/>
      <point x="70" y="306"/>
      <point x="90" y="445"/>
      <point x="107" y="487" type="qcurve"/>
      <point x="92" y="500"/>
      <point x="39" y="524"/>
      <point x="0" y="535" type="qcurve"/>
      <point x="-2" y="541"/>
      <point x="-3" y="553"/>
      <point x="-3" y="559" type="qcurve" smooth="yes"/>
      <point x="-3" y="566"/>
      <point x="-1" y="577"/>
      <point x="0" y="581" type="qcurve"/>
      <point x="42" y="572"/>
      <point x="114" y="542"/>
      <point x="137" y="525" type="qcurve"/>
      <point x="150" y="544"/>
      <point x="202" y="571"/>
      <point x="244" y="581" type="qcurve"/>
      <point x="245" y="577"/>
      <point x="247" y="566"/>
      <point x="247" y="559" type="qcurve" smooth="yes"/>
      <point x="247" y="553"/>
      <point x="245" y="540"/>
      <point x="244" y="535" type="qcurve"/>
      <point x="178" y="519"/>
      <point x="126" y="389"/>
      <point x="126" y="238" type="qcurve" smooth="yes"/>
      <point x="126" y="113"/>
      <point x="157" y="-19"/>
      <point x="186" y="-19" type="qcurve" smooth="yes"/>
      <point x="199" y="-19"/>
      <point x="228" y="12"/>
      <point x="251" y="52" type="qcurve"/>
      <point x="265" y="44"/>
      <point x="285" y="13"/>
    </contour>
    <contour>
      <point x="702" y="549" type="qcurve" smooth="yes"/>
      <point x="720" y="549"/>
      <point x="743" y="526"/>
      <point x="743" y="508" type="qcurve" smooth="yes"/>
      <point x="743" y="490"/>
      <point x="721" y="469"/>
      <point x="702" y="469" type="qcurve" smooth="yes"/>
      <point x="684" y="469"/>
      <point x="663" y="490"/>
      <point x="663" y="508" type="qcurve" smooth="yes"/>
      <point x="663" y="526"/>
      <point x="684" y="549"/>
    </contour>
    <contour>
      <point x="440" y="549" type="qcurve" smooth="yes"/>
      <point x="458" y="549"/>
      <point x="480" y="526"/>
      <point x="480" y="508" type="qcurve" smooth="yes"/>
      <point x="480" y="490"/>
      <point x="458" y="469"/>
      <point x="440" y="469" type="qcurve" smooth="yes"/>
      <point x="422" y="469"/>
      <point x="401" y="490"/>
      <point x="401" y="508" type="qcurve" smooth="yes"/>
      <point x="401" y="526"/>
      <point x="423" y="549"/>
    </contour>
    <contour>
      <point x="347" y="453" type="qcurve" smooth="yes"/>
      <point x="365" y="453"/>
      <point x="385" y="431"/>
      <point x="385" y="412" type="qcurve" smooth="yes"/>
      <point x="385" y="395"/>
      <point x="363" y="372"/>
      <point x="347" y="372" type="qcurve" smooth="yes"/>
      <point x="329" y="372"/>
      <point x="306" y="395"/>
      <point x="306" y="413" type="qcurve" smooth="yes"/>
      <point x="306" y="431"/>
      <point x="329" y="453"/>
    </contour>
    <contour>
      <point x="799" y="453" type="qcurve" smooth="yes"/>
      <point x="817" y="453"/>
      <point x="837" y="432"/>
      <point x="837" y="413" type="qcurve" smooth="yes"/>
      <point x="837" y="394"/>
      <point x="817" y="372"/>
      <point x="799" y="372" type="qcurve" smooth="yes"/>
      <point x="782" y="372"/>
      <point x="758" y="396"/>
      <point x="758" y="413" type="qcurve" smooth="yes"/>
      <point x="758" y="430"/>
      <point x="782" y="453"/>
    </contour>
    <contour>
      <point x="834" y="325" type="qcurve" smooth="yes"/>
      <point x="852" y="325"/>
      <point x="873" y="304"/>
      <point x="873" y="285" type="qcurve" smooth="yes"/>
      <point x="873" y="266"/>
      <point x="852" y="244"/>
      <point x="834" y="244" type="qcurve" smooth="yes"/>
      <point x="816" y="244"/>
      <point x="794" y="267"/>
      <point x="794" y="285" type="qcurve" smooth="yes"/>
      <point x="794" y="303"/>
      <point x="816" y="325"/>
    </contour>
    <contour>
      <point x="312" y="325" type="qcurve" smooth="yes"/>
      <point x="331" y="325"/>
      <point x="351" y="304"/>
      <point x="351" y="285" type="qcurve" smooth="yes"/>
      <point x="351" y="266"/>
      <point x="330" y="244"/>
      <point x="312" y="244" type="qcurve" smooth="yes"/>
      <point x="293" y="244"/>
      <point x="271" y="266"/>
      <point x="271" y="285" type="qcurve" smooth="yes"/>
      <point x="271" y="303"/>
      <point x="293" y="325"/>
    </contour>
    <contour>
      <point x="799" y="197" type="qcurve" smooth="yes"/>
      <point x="817" y="197"/>
      <point x="837" y="175"/>
      <point x="837" y="157" type="qcurve" smooth="yes"/>
      <point x="837" y="137"/>
      <point x="817" y="115"/>
      <point x="799" y="115" type="qcurve" smooth="yes"/>
      <point x="781" y="115"/>
      <point x="758" y="139"/>
      <point x="758" y="157" type="qcurve" smooth="yes"/>
      <point x="758" y="174"/>
      <point x="782" y="197"/>
    </contour>
    <contour>
      <point x="347" y="197" type="qcurve" smooth="yes"/>
      <point x="364" y="197"/>
      <point x="385" y="175"/>
      <point x="385" y="157" type="qcurve" smooth="yes"/>
      <point x="385" y="138"/>
      <point x="364" y="115"/>
      <point x="347" y="115" type="qcurve" smooth="yes"/>
      <point x="329" y="115"/>
      <point x="306" y="138"/>
      <point x="306" y="157" type="qcurve" smooth="yes"/>
      <point x="306" y="174"/>
      <point x="329" y="197"/>
    </contour>
    <contour>
      <point x="702" y="101" type="qcurve" smooth="yes"/>
      <point x="721" y="101"/>
      <point x="743" y="79"/>
      <point x="743" y="60" type="qcurve" smooth="yes"/>
      <point x="743" y="43"/>
      <point x="720" y="21"/>
      <point x="702" y="21" type="qcurve" smooth="yes"/>
      <point x="684" y="21"/>
      <point x="663" y="42"/>
      <point x="663" y="60" type="qcurve" smooth="yes"/>
      <point x="663" y="79"/>
      <point x="684" y="101"/>
    </contour>
    <contour>
      <point x="440" y="101" type="qcurve" smooth="yes"/>
      <point x="458" y="101"/>
      <point x="480" y="79"/>
      <point x="480" y="60" type="qcurve" smooth="yes"/>
      <point x="480" y="43"/>
      <point x="458" y="21"/>
      <point x="440" y="21" type="qcurve" smooth="yes"/>
      <point x="423" y="21"/>
      <point x="401" y="43"/>
      <point x="401" y="60" type="qcurve" smooth="yes"/>
      <point x="401" y="78"/>
      <point x="423" y="101"/>
    </contour>
    <contour>
      <point x="572" y="66" type="qcurve" smooth="yes"/>
      <point x="591" y="66"/>
      <point x="612" y="44"/>
      <point x="612" y="25" type="qcurve" smooth="yes"/>
      <point x="612" y="6"/>
      <point x="591" y="-15"/>
      <point x="572" y="-15" type="qcurve" smooth="yes"/>
      <point x="553" y="-15"/>
      <point x="533" y="6"/>
      <point x="533" y="25" type="qcurve" smooth="yes"/>
      <point x="533" y="44"/>
      <point x="554" y="66"/>
    </contour>
  </outline>
</glyph>
<glyph name="bn_aukaar" format="1">
  <advance width="1111"/>
  <unicode hex="09CC"/>
  <outline>
    <contour>
      <point x="569" y="585" type="qcurve" smooth="yes"/>
      <point x="588" y="585"/>
      <point x="609" y="563"/>
      <point x="609" y="544" type="qcurve" smooth="yes"/>
      <point x="609" y="525"/>
      <point x="588" y="504"/>
      <point x="569" y="504" type="qcurve" smooth="yes"/>
      <point x="550" y="504"/>
      <point x="530" y="525"/>
      <point x="530" y="544" type="qcurve" smooth="yes"/>
      <point x="530" y="564"/>
      <point x="550" y="585"/>
    </contour>
    <contour>
      <point x="1035" y="493" type="qcurve"/>
      <point x="1034" y="363"/>
      <point x="1024" y="88"/>
      <point x="1014" y="-51" type="qcurve"/>
      <point x="997" y="-51"/>
      <point x="957" y="-46"/>
      <point x="948" y="-42" type="qcurve"/>
      <point x="967" y="64"/>
      <point x="986" y="306"/>
      <point x="987" y="458" type="qcurve"/>
      <point x="986" y="484"/>
      <point x="937" y="522"/>
      <point x="887" y="535" type="qcurve"/>
      <point x="886" y="540"/>
      <point x="884" y="552"/>
      <point x="884" y="558" type="qcurve" smooth="yes"/>
      <point x="884" y="565"/>
      <point x="886" y="577"/>
      <point x="887" y="581" type="qcurve"/>
      <point x="924" y="572"/>
      <point x="983" y="545"/>
      <point x="1004" y="528" type="qcurve"/>
      <point x="1018" y="545"/>
      <point x="1033" y="585"/>
      <point x="1033" y="604" type="qcurve" smooth="yes"/>
      <point x="1033" y="629"/>
      <point x="999" y="674"/>
      <point x="955" y="709" type="qcurve" smooth="yes"/>
      <point x="937" y="723"/>
      <point x="881" y="763"/>
      <point x="872" y="771" type="qcurve" smooth="yes"/>
      <point x="850" y="790"/>
      <point x="833" y="830"/>
      <point x="833" y="862" type="qcurve" smooth="yes"/>
      <point x="833" y="872"/>
      <point x="835" y="892"/>
      <point x="837" y="902" type="qcurve"/>
      <point x="846" y="905"/>
      <point x="869" y="908"/>
      <point x="879" y="907" type="qcurve"/>
      <point x="877" y="897"/>
      <point x="876" y="878"/>
      <point x="876" y="869" type="qcurve" smooth="yes"/>
      <point x="876" y="846"/>
      <point x="891" y="813"/>
      <point x="908" y="798" type="qcurve" smooth="yes"/>
      <point x="917" y="789"/>
      <point x="963" y="758"/>
      <point x="975" y="749" type="qcurve" smooth="yes"/>
      <point x="1024" y="712"/>
      <point x="1067" y="646"/>
      <point x="1067" y="610" type="qcurve" smooth="yes"/>
      <point x="1067" y="599"/>
      <point x="1063" y="575"/>
      <point x="1059" y="563" type="qcurve"/>
      <point x="1070" y="568"/>
      <point x="1096" y="577"/>
      <point x="1111" y="581" type="qcurve"/>
      <point x="1112" y="577"/>
      <point x="1114" y="567"/>
      <point x="1114" y="561" type="qcurve" smooth="yes"/>
      <point x="1114" y="553"/>
      <point x="1112" y="540"/>
      <point x="1111" y="535" type="qcurve"/>
      <point x="1084" y="527"/>
      <point x="1046" y="506"/>
    </contour>
    <contour>
      <point x="285" y="-1" type="qcurve"/>
      <point x="269" y="-30"/>
      <point x="221" y="-63"/>
      <point x="196" y="-63" type="qcurve" smooth="yes"/>
      <point x="139" y="-63"/>
      <point x="70" y="97"/>
      <point x="70" y="229" type="qcurve" smooth="yes"/>
      <point x="70" y="306"/>
      <point x="90" y="445"/>
      <point x="107" y="487" type="qcurve"/>
      <point x="92" y="500"/>
      <point x="39" y="524"/>
      <point x="0" y="535" type="qcurve"/>
      <point x="-2" y="541"/>
      <point x="-3" y="553"/>
      <point x="-3" y="559" type="qcurve" smooth="yes"/>
      <point x="-3" y="566"/>
      <point x="-1" y="577"/>
      <point x="0" y="581" type="qcurve"/>
      <point x="42" y="572"/>
      <point x="114" y="542"/>
      <point x="137" y="525" type="qcurve"/>
      <point x="150" y="544"/>
      <point x="202" y="571"/>
      <point x="244" y="581" type="qcurve"/>
      <point x="245" y="577"/>
      <point x="247" y="566"/>
      <point x="247" y="559" type="qcurve" smooth="yes"/>
      <point x="247" y="553"/>
      <point x="245" y="540"/>
      <point x="244" y="535" type="qcurve"/>
      <point x="178" y="519"/>
      <point x="126" y="389"/>
      <point x="126" y="238" type="qcurve" smooth="yes"/>
      <point x="126" y="113"/>
      <point x="157" y="-19"/>
      <point x="186" y="-19" type="qcurve" smooth="yes"/>
      <point x="199" y="-19"/>
      <point x="228" y="12"/>
      <point x="251" y="52" type="qcurve"/>
      <point x="265" y="44"/>
      <point x="285" y="13"/>
    </contour>
    <contour>
      <point x="699" y="549" type="qcurve" smooth="yes"/>
      <point x="717" y="549"/>
      <point x="740" y="526"/>
      <point x="740" y="508" type="qcurve" smooth="yes"/>
      <point x="740" y="490"/>
      <point x="718" y="469"/>
      <point x="699" y="469" type="qcurve" smooth="yes"/>
      <point x="681" y="469"/>
      <point x="660" y="490"/>
      <point x="660" y="508" type="qcurve" smooth="yes"/>
      <point x="660" y="526"/>
      <point x="681" y="549"/>
    </contour>
    <contour>
      <point x="437" y="549" type="qcurve" smooth="yes"/>
      <point x="455" y="549"/>
      <point x="477" y="526"/>
      <point x="477" y="508" type="qcurve" smooth="yes"/>
      <point x="477" y="490"/>
      <point x="455" y="469"/>
      <point x="437" y="469" type="qcurve" smooth="yes"/>
      <point x="419" y="469"/>
      <point x="398" y="490"/>
      <point x="398" y="508" type="qcurve" smooth="yes"/>
      <point x="398" y="526"/>
      <point x="420" y="549"/>
    </contour>
    <contour>
      <point x="796" y="453" type="qcurve" smooth="yes"/>
      <point x="814" y="453"/>
      <point x="834" y="432"/>
      <point x="834" y="413" type="qcurve" smooth="yes"/>
      <point x="834" y="394"/>
      <point x="814" y="372"/>
      <point x="796" y="372" type="qcurve" smooth="yes"/>
      <point x="779" y="372"/>
      <point x="755" y="396"/>
      <point x="755" y="413" type="qcurve" smooth="yes"/>
      <point x="755" y="430"/>
      <point x="779" y="453"/>
    </contour>
    <contour>
      <point x="344" y="453" type="qcurve" smooth="yes"/>
      <point x="362" y="453"/>
      <point x="382" y="431"/>
      <point x="382" y="412" type="qcurve" smooth="yes"/>
      <point x="382" y="395"/>
      <point x="360" y="372"/>
      <point x="344" y="372" type="qcurve" smooth="yes"/>
      <point x="326" y="372"/>
      <point x="303" y="395"/>
      <point x="303" y="413" type="qcurve" smooth="yes"/>
      <point x="303" y="431"/>
      <point x="326" y="453"/>
    </contour>
    <contour>
      <point x="309" y="325" type="qcurve" smooth="yes"/>
      <point x="328" y="325"/>
      <point x="348" y="304"/>
      <point x="348" y="285" type="qcurve" smooth="yes"/>
      <point x="348" y="266"/>
      <point x="327" y="244"/>
      <point x="309" y="244" type="qcurve" smooth="yes"/>
      <point x="290" y="244"/>
      <point x="268" y="266"/>
      <point x="268" y="285" type="qcurve" smooth="yes"/>
      <point x="268" y="303"/>
      <point x="290" y="325"/>
    </contour>
    <contour>
      <point x="831" y="325" type="qcurve" smooth="yes"/>
      <point x="849" y="325"/>
      <point x="870" y="304"/>
      <point x="870" y="285" type="qcurve" smooth="yes"/>
      <point x="870" y="266"/>
      <point x="849" y="244"/>
      <point x="831" y="244" type="qcurve" smooth="yes"/>
      <point x="813" y="244"/>
      <point x="791" y="267"/>
      <point x="791" y="285" type="qcurve" smooth="yes"/>
      <point x="791" y="303"/>
      <point x="813" y="325"/>
    </contour>
    <contour>
      <point x="796" y="197" type="qcurve" smooth="yes"/>
      <point x="814" y="197"/>
      <point x="834" y="175"/>
      <point x="834" y="157" type="qcurve" smooth="yes"/>
      <point x="834" y="137"/>
      <point x="814" y="115"/>
      <point x="796" y="115" type="qcurve" smooth="yes"/>
      <point x="778" y="115"/>
      <point x="755" y="139"/>
      <point x="755" y="157" type="qcurve" smooth="yes"/>
      <point x="755" y="174"/>
      <point x="779" y="197"/>
    </contour>
    <contour>
      <point x="344" y="197" type="qcurve" smooth="yes"/>
      <point x="361" y="197"/>
      <point x="382" y="175"/>
      <point x="382" y="157" type="qcurve" smooth="yes"/>
      <point x="382" y="138"/>
      <point x="361" y="115"/>
      <point x="344" y="115" type="qcurve" smooth="yes"/>
      <point x="326" y="115"/>
      <point x="303" y="138"/>
      <point x="303" y="157" type="qcurve" smooth="yes"/>
      <point x="303" y="174"/>
      <point x="326" y="197"/>
    </contour>
    <contour>
      <point x="699" y="101" type="qcurve" smooth="yes"/>
      <point x="718" y="101"/>
      <point x="740" y="79"/>
      <point x="740" y="60" type="qcurve" smooth="yes"/>
      <point x="740" y="43"/>
      <point x="717" y="21"/>
      <point x="699" y="21" type="qcurve" smooth="yes"/>
      <point x="681" y="21"/>
      <point x="660" y="42"/>
      <point x="660" y="60" type="qcurve" smooth="yes"/>
      <point x="660" y="79"/>
      <point x="681" y="101"/>
    </contour>
    <contour>
      <point x="437" y="101" type="qcurve" smooth="yes"/>
      <point x="455" y="101"/>
      <point x="477" y="79"/>
      <point x="477" y="60" type="qcurve" smooth="yes"/>
      <point x="477" y="43"/>
      <point x="455" y="21"/>
      <point x="437" y="21" type="qcurve" smooth="yes"/>
      <point x="420" y="21"/>
      <point x="398" y="43"/>
      <point x="398" y="60" type="qcurve" smooth="yes"/>
      <point x="398" y="78"/>
      <point x="420" y="101"/>
    </contour>
    <contour>
      <point x="569" y="66" type="qcurve" smooth="yes"/>
      <point x="588" y="66"/>
      <point x="609" y="44"/>
      <point x="609" y="25" type="qcurve" smooth="yes"/>
      <point x="609" y="6"/>
      <point x="588" y="-15"/>
      <point x="569" y="-15" type="qcurve" smooth="yes"/>
      <point x="550" y="-15"/>
      <point x="530" y="6"/>
      <point x="530" y="25" type="qcurve" smooth="yes"/>
      <point x="530" y="44"/>
      <point x="551" y="66"/>
    </contour>
  </outline>
</glyph>
<glyph name="bn_halanth" format="1">
  <advance width="0"/>
  <unicode hex="09CD"/>
  <outline>
    <contour>
      <point x="56" y="-101" type="qcurve"/>
      <point x="246" y="-243" type="line"/>
      <point x="241" y="-255"/>
      <point x="227" y="-275"/>
      <point x="218" y="-282" type="qcurve"/>
      <point x="29" y="-137" type="line"/>
      <point x="34" y="-127"/>
      <point x="47" y="-109"/>
    </contour>
    <contour>
      <point x="0" y="-20" type="move" name="_haln"/>
    </contour>
  </outline>
</glyph>
